<svg width="73" height="79" viewBox="0 0 73 79" fill="none" xmlns="http://www.w3.org/2000/svg">
<path fill-rule="evenodd" clip-rule="evenodd" d="M18.1302 4.34106C22.2556 1.90439 26.9756 0.516639 32.4018 0.144925C44.6269 -0.692415 53.5104 2.08435 60.2475 8.84867C63.7753 12.3907 66.4778 16.8554 68.571 22.6004C70.4026 27.6269 71.6615 34.3382 72.3078 42.5222C72.625 46.5379 72.5772 57.5371 72.23 60.4551C71.4818 66.7403 70.3911 70.4488 68.5286 73.0396C66.2882 76.1562 64.1456 77.6073 60.481 78.4901C59.4004 78.7504 58.4344 78.8274 55.4472 78.8912C49.9231 79.0092 47.4621 78.6007 44.5144 77.0761C41.8229 75.6839 40.8279 74.2737 39.4161 69.8501C38.8539 68.0884 38.4888 67.2102 38.1473 66.7983C37.2714 65.742 35.9447 65.6318 34.9214 66.5301C34.1429 67.2136 33.8621 67.7475 33.0276 70.1294C32.6184 71.2974 31.9942 72.8194 31.6406 73.5115C30.3081 76.119 27.9633 77.7596 24.4443 78.5464C22.8985 78.892 16.5968 79.0525 14.6641 78.7953C9.16347 78.0632 5.48423 75.5304 3.05385 70.8026C1.78517 68.3343 1.10294 65.8103 0.358252 60.8286C0.0222458 58.5807 -0.00291912 57.9165 0.000227004 51.41C0.00415966 43.0973 0.239015 39.8081 1.27519 33.5558C2.35856 27.0178 3.74522 22.505 6.13564 17.7388C9.25518 11.5186 12.9325 7.41105 18.1302 4.34106ZM28.2984 17.0312C27.3122 17.1507 26.5613 17.4761 25.9302 18.0573C25.2805 18.6556 24.9284 19.3236 24.5412 20.6927C24.3247 21.458 24.1276 23.0177 24.0479 24.5957C23.9567 26.4025 24.0017 30.2851 24.1317 31.8292C24.3392 34.2923 24.838 35.8869 25.6762 36.7666C26.4831 37.6134 27.5225 38 28.9929 38C30.2404 38 31.1008 37.7524 31.874 37.171C33.0189 36.31 33.6252 34.6856 33.8678 31.8292C33.9971 30.3065 34.0433 26.3957 33.9532 24.6084C33.8281 22.1278 33.4981 20.4068 32.9159 19.1981C32.4996 18.3338 31.7774 17.6635 30.8846 17.3126C30.2538 17.0646 29.0779 16.9367 28.2984 17.0312ZM43.2984 17.0312C42.3122 17.1507 41.5613 17.4761 40.9302 18.0573C40.2805 18.6556 39.9284 19.3236 39.5412 20.6927C39.3247 21.458 39.1276 23.0177 39.0479 24.5957C38.9567 26.4025 39.0017 30.2851 39.1317 31.8292C39.3392 34.2923 39.838 35.8869 40.6762 36.7666C41.4831 37.6134 42.5225 38 43.9929 38C45.2404 38 46.1008 37.7524 46.874 37.171C48.0189 36.31 48.6252 34.6856 48.8678 31.8292C48.9971 30.3065 49.0433 26.3957 48.9532 24.6084C48.8281 22.1278 48.4981 20.4068 47.9159 19.1981C47.4996 18.3338 46.7774 17.6635 45.8846 17.3126C45.2538 17.0646 44.0779 16.9367 43.2984 17.0312ZM19.6417 29.3466C20.257 30.8849 19.5088 32.6308 17.9704 33.2462L15.4793 34.2426C16.1876 42.8851 24.9676 50.4609 36.76 50.4609C48.5525 50.4609 57.3325 42.8851 58.0408 34.2425L55.5499 33.2462C54.0115 32.6308 53.2633 30.8849 53.8786 29.3466C54.4939 27.8082 56.2399 27.06 57.7782 27.6753L66.6244 31.2138C68.1627 31.8291 68.911 33.575 68.2956 35.1134C67.6803 36.6517 65.9344 37.4 64.396 36.7847L63.8006 36.5465C61.8378 48.1589 50.0518 56.4609 36.76 56.4609C23.4683 56.4609 11.6824 48.1589 9.71947 36.5466L9.12425 36.7847C7.5859 37.4 5.83999 36.6517 5.22464 35.1134C4.6093 33.575 5.35755 31.8291 6.8959 31.2138L15.7421 27.6753C17.2804 27.06 19.0263 27.8082 19.6417 29.3466Z" fill="black" style="fill:black;fill-opacity:1;"/>
</svg>
