<svg width="2042" height="2790" viewBox="0 0 2042 2790" fill="none" xmlns="http://www.w3.org/2000/svg">
<path d="M1317.89 1371.01C1676.35 1330.5 1937.62 1130.71 2023.52 810.139C2141.35 370.384 1666.02 160.139 1380.75 66.3702C777.072 -95.3839 607.883 53.0991 519.785 381.888C499.889 456.139 484.869 720.522 650.583 764.925C742.91 789.664 710.051 776.476 797.642 799.946C835.52 810.096 854.954 841.732 838.435 903.38C821.917 965.028 776.66 1001.36 658.016 1018.02C230.621 1088.51 179.457 1396.33 63.8273 1827.87C-84.8392 2382.7 -1.38143 2563.64 625.966 2731.74C1239.11 2896.03 1439.19 2698.56 1552.61 2275.24C1648.42 1917.69 1618.59 1707.07 1405.53 1649.98C1320.3 1627.14 1227.53 1641.93 1156.51 1622.9C1118.64 1612.75 1096.83 1580.48 1113.35 1518.83C1130.97 1453.07 1171.33 1406.62 1317.89 1371.01Z" fill="#F18B02"/>
</svg>
