<svg width="38" height="79" viewBox="0 0 38 79" fill="none" xmlns="http://www.w3.org/2000/svg">
<path d="M7.29389 3.95012C9.62863 1.77867 12.4068 0.563011 16.0552 0.116419C18.9393 -0.236576 23.2896 0.241471 25.6234 1.16785C28.9263 2.47899 31.598 4.98346 33.138 8.21233C35.292 12.7283 36.5129 19.1585 36.9757 28.4262C37.3091 35.104 37.138 49.7152 36.6596 55.4042C35.7624 66.0764 33.5194 72.1451 29.2834 75.3621C26.4231 77.5343 23.2399 78.4592 18.6248 78.4594C13.185 78.4594 9.33936 77.0152 6.35416 73.8511C3.25335 70.5647 1.40798 64.6067 0.64048 55.4042C0.159438 49.6354 -0.00699964 35.1294 0.330422 28.3788C0.625213 22.4833 1.35434 16.6559 2.15519 13.7967C3.58793 8.68141 4.89057 6.18544 7.29389 3.95012Z" fill="black" style="fill:black;fill-opacity:1;"/>
</svg>
