<svg width="75" height="80" viewBox="0 0 75 80" fill="none" xmlns="http://www.w3.org/2000/svg">
<path d="M23.1021 2.56856C26.7826 1.1591 29.4966 0.566207 34.6641 0.0422208C35.9364 -0.0867702 41.4794 0.100109 43.1587 0.328675C53.1238 1.68513 61.4562 6.26179 67.0963 13.4771C69.2603 16.2455 71.5606 20.4851 72.7292 23.8593C75.7333 32.5319 75.6977 45.4503 72.6457 54.3018C68.3449 66.7743 58.6079 75.6792 46.1566 78.5268C41.1135 79.6803 34.6402 79.7352 29.4745 78.6685C25.5648 77.8611 20.8849 75.9455 17.5757 73.7982C8.72828 68.0568 2.87255 58.651 1.17569 47.4552C0.393405 42.2934 0.391828 35.7765 1.17175 30.6235C2.37719 22.6586 5.77707 15.7562 11.1807 10.3028C14.5354 6.91744 18.5536 4.31041 23.1021 2.56856Z" fill="black" style="fill:black;fill-opacity:1;"/>
</svg>
