<svg width="59" height="80" viewBox="0 0 59 80" fill="none" xmlns="http://www.w3.org/2000/svg">
<path d="M8.56508 9.67213C13.7754 4.46278 22.7761 0.825234 32.2643 0.0945474C34.821 -0.1024 40.1984 0.0242248 42.1504 0.327511C49.1304 1.41166 52.9896 4.17255 54.7865 9.36806C55.7536 12.164 55.8876 15.8908 55.1316 18.9672C54.4923 21.5686 52.5092 24.0047 50.0399 25.2221C48.4038 26.0288 47.7373 26.2387 44.9275 26.8319C41.9037 27.4702 41.0927 27.7331 40.5885 28.2372C39.732 29.0936 39.6831 30.5013 40.4798 31.3568C40.8907 31.798 42.2619 32.5161 44.2983 33.3566C50.7154 36.0055 54.1368 38.7986 56.2483 43.1118C57.55 45.7709 58.1008 48.6903 58.1033 52.9453C58.1064 58.3975 56.8955 62.1293 53.8202 66.1455C52.7808 67.5027 50.4167 69.8449 49.0174 70.9035C45.6904 73.4206 40.5001 75.8717 35.4105 77.3292C28.4328 79.3273 18.9898 80.0119 12.837 78.9658C6.97 77.9683 3.53318 75.7365 1.47278 71.5861C-0.53177 67.5483 -0.47278 61.0648 1.59579 58.0504C3.66988 55.0282 7.11409 53.2486 12.689 52.3187C15.4232 51.8627 17.9992 51.2786 18.5638 50.9867C19.5619 50.4706 19.9674 49.2329 19.4579 48.2576C19.0531 47.4827 18.3704 47.0101 15.2378 45.3363C9.90517 42.4868 7.72177 40.7429 5.68449 37.706C4.96435 36.6325 3.82026 34.3044 3.41771 33.0936C2.95398 31.6988 2.5357 29.2303 2.37163 26.922C1.85991 19.715 3.72997 14.5063 8.56508 9.67213Z" fill="black" style="fill:black;fill-opacity:1;"/>
</svg>
