<svg width="72" height="79" viewBox="0 0 72 79" fill="none" xmlns="http://www.w3.org/2000/svg">
<path d="M2.36588 14.2852C4.82772 5.27425 9.32101 0.899404 16.8955 0.138671C20.9179 -0.265448 24.3991 0.216862 27.0417 1.54421C29.5924 2.82547 31.1633 4.39726 32.3033 6.80939C34.097 10.6049 34.3188 13.2954 34.077 28.3191C33.8976 39.4606 33.9133 39.7886 34.6816 40.9193C35.1549 41.6157 35.93 41.9711 36.9762 41.9711C38.4378 41.9711 39.3968 41.2295 39.7753 39.8073C39.9027 39.3282 39.9405 35.5061 39.9078 26.3577C39.8658 14.5868 39.885 13.4355 40.1506 11.7814C41.0179 6.38279 43.2485 3.10106 47.2555 1.32822C51.4694 -0.536012 58.0662 -0.388764 61.6174 1.64898C63.2268 2.57237 64.9896 4.25145 66.2064 6.01989C68.2782 9.03136 69.8077 13.9601 70.5288 19.9482C71.2601 26.0225 71.641 38.6675 71.2593 44.2039C70.7513 51.5756 69.5052 56.9867 67.1217 62.1745C64.2504 68.4235 59.6379 73.0332 53.7837 75.5039C48.7649 77.6222 43.988 78.4623 36.952 78.4641C32.7686 78.4652 30.5161 78.3099 27.5946 77.8189C20.7181 76.6635 15.8643 74.5857 11.6257 70.9824C10.0717 69.6614 9.47674 69.045 8.29647 67.5333C3.03521 60.7943 0.465779 51.1985 0.459015 38.2629C0.45351 27.8088 1.1853 18.6058 2.36588 14.2852Z" fill="black" style="fill:black;fill-opacity:1;"/>
</svg>
