<svg width="48" height="48" viewBox="0 0 48 48" fill="none" xmlns="http://www.w3.org/2000/svg">
<path d="M24 47.977C27.2828 47.977 30.3739 47.348 33.2733 46.0901C36.1726 44.8476 38.7191 43.1218 40.9128 40.9128C43.1218 38.7037 44.8552 36.1572 46.1131 33.2733C47.371 30.3739 48 27.2752 48 23.977C48 20.6942 47.371 17.6107 46.1131 14.7267C44.8552 11.8274 43.1218 9.27325 40.9128 7.06424C38.7191 4.85523 36.1649 3.12943 33.2502 1.88686C30.3509 0.628955 27.2598 0 23.977 0C20.6942 0 17.6031 0.628955 14.7037 1.88686C11.8044 3.12943 9.25024 4.85523 7.04123 7.06424C4.84756 9.27325 3.12176 11.8274 1.86385 14.7267C0.621285 17.6107 0 20.6942 0 23.977C0 27.2752 0.621285 30.3739 1.86385 33.2733C3.12176 36.1572 4.85523 38.7037 7.06424 40.9128C9.27325 43.1218 11.8274 44.8476 14.7267 46.0901C17.6261 47.348 20.7172 47.977 24 47.977ZM22.8495 34.3547C22.5273 34.3547 22.2282 34.2934 21.9521 34.1707C21.6913 34.0326 21.4075 33.8255 21.1007 33.5494L16.2685 28.9933C16.2071 28.9473 16.1227 28.9243 16.0153 28.9243H12.8399C11.9655 28.9243 11.2905 28.6788 10.815 28.1879C10.3547 27.697 10.1246 26.999 10.1246 26.094V21.883C10.1246 20.9626 10.3547 20.2646 10.815 19.7891C11.2905 19.2982 11.9655 19.0527 12.8399 19.0527H16.0153C16.1227 19.0527 16.2071 19.0221 16.2685 18.9607L21.1007 14.4736C21.4382 14.1822 21.7296 13.9674 21.9751 13.8293C22.2359 13.6913 22.512 13.6222 22.8035 13.6222C23.2637 13.6222 23.6472 13.7833 23.954 14.1055C24.2608 14.4123 24.4142 14.7881 24.4142 15.233V32.79C24.4142 33.2196 24.2608 33.5877 23.954 33.8945C23.6625 34.2013 23.2943 34.3547 22.8495 34.3547ZM28.303 29.3384C27.5513 28.8015 27.4439 28.0805 27.9808 27.1755C28.5944 26.2704 28.9012 25.2042 28.9012 23.977C28.9012 22.6577 28.6021 21.5916 28.0038 20.7785C27.7277 20.349 27.6203 19.9425 27.6817 19.559C27.743 19.1601 27.9501 18.8456 28.303 18.6155C28.6098 18.4008 28.9396 18.3317 29.2924 18.4084C29.6606 18.4851 29.9521 18.6692 30.1668 18.9607C30.6577 19.6203 31.0336 20.3873 31.2943 21.2617C31.5705 22.1361 31.7085 23.0412 31.7085 23.977C31.7085 24.9281 31.5705 25.8408 31.2943 26.7152C31.0336 27.5743 30.6577 28.3337 30.1668 28.9933C29.9521 29.2848 29.6606 29.4688 29.2924 29.5455C28.9396 29.6222 28.6098 29.5532 28.303 29.3384ZM32.836 32.4449C32.4832 32.2301 32.2838 31.9233 32.2378 31.5244C32.1918 31.1256 32.2915 30.7344 32.5369 30.3509C33.1352 29.5072 33.5954 28.5331 33.9175 27.4286C34.2397 26.3087 34.4008 25.1582 34.4008 23.977C34.4008 21.5072 33.7795 19.3749 32.5369 17.5801C32.2915 17.2119 32.1918 16.836 32.2378 16.4525C32.2838 16.0537 32.4832 15.7469 32.836 15.5321C33.1735 15.3174 33.5187 15.2483 33.8715 15.325C34.2397 15.3864 34.5235 15.5781 34.7229 15.9003C35.536 17.0662 36.1496 18.3394 36.5638 19.72C36.9779 21.0853 37.185 22.5043 37.185 23.977C37.185 25.4803 36.9703 26.9223 36.5407 28.303C36.1112 29.6683 35.5053 30.9185 34.7229 32.0537C34.5235 32.3605 34.2474 32.5523 33.8945 32.629C33.5417 32.7057 33.1889 32.6443 32.836 32.4449Z" fill="#F67F15"/>
</svg>
