<svg width="48" height="48" viewBox="0 0 48 48" fill="none" xmlns="http://www.w3.org/2000/svg">
<path d="M23.9886 47.9773C27.2901 47.9773 30.3871 47.3488 33.2797 46.0918C36.1723 44.85 38.7165 43.1235 40.9124 40.9124C43.1235 38.7165 44.8575 36.1723 46.1145 33.2797C47.3715 30.3871 48 27.2901 48 23.9886C48 20.7023 47.3715 17.6129 46.1145 14.7203C44.8575 11.8277 43.1235 9.27591 40.9124 7.06484C38.7165 4.85376 36.1647 3.12731 33.257 1.88547C30.3644 0.62849 27.275 0 23.9886 0C20.7023 0 17.6053 0.62849 14.6976 1.88547C11.805 3.12731 9.25319 4.85376 7.04212 7.06484C4.84619 9.27591 3.11974 11.8277 1.86275 14.7203C0.620918 17.6129 0 20.7023 0 23.9886C0 27.2901 0.620918 30.3871 1.86275 33.2797C3.11974 36.1723 4.85376 38.7165 7.06484 40.9124C9.27591 43.1235 11.8277 44.85 14.7203 46.0918C17.6129 47.3488 20.7023 47.9773 23.9886 47.9773ZM21.717 31.5532C19.8997 31.5532 18.2338 31.1065 16.7194 30.213C15.2049 29.3043 13.9934 28.1003 13.0847 26.601C12.1912 25.0866 11.7444 23.4132 11.7444 21.5807C11.7444 19.7634 12.1912 18.0975 13.0847 16.5831C13.9934 15.0686 15.2049 13.8571 16.7194 12.9484C18.2338 12.0398 19.8997 11.5854 21.717 11.5854C23.5343 11.5854 25.2002 12.0398 26.7146 12.9484C28.2291 13.8571 29.433 15.0686 30.3266 16.5831C31.2352 18.0823 31.6895 19.7482 31.6895 21.5807C31.6895 22.4894 31.5684 23.3677 31.3261 24.2158C31.0838 25.0487 30.743 25.8211 30.3038 26.5329L35.4378 31.6895C35.7104 31.9621 35.9072 32.265 36.0284 32.5982C36.1647 32.9162 36.2328 33.2494 36.2328 33.5977C36.2328 34.3701 35.983 35.0137 35.4832 35.5286C34.9834 36.0435 34.3549 36.301 33.5977 36.301C32.8254 36.301 32.1514 36.0133 31.576 35.4378L26.3966 30.3038C25.7151 30.6976 24.973 31.008 24.1704 31.2352C23.3829 31.4472 22.5651 31.5532 21.717 31.5532ZM21.717 27.487C22.7922 27.487 23.7766 27.222 24.6701 26.6919C25.5637 26.1619 26.2754 25.4501 26.8055 24.5566C27.3355 23.663 27.6006 22.6711 27.6006 21.5807C27.6006 20.4903 27.3355 19.4983 26.8055 18.6048C26.2754 17.7113 25.5637 16.9995 24.6701 16.4695C23.7766 15.9394 22.7922 15.6744 21.717 15.6744C20.6417 15.6744 19.6498 15.9394 18.7411 16.4695C17.8476 16.9995 17.1358 17.7113 16.6058 18.6048C16.0757 19.4983 15.8107 20.4903 15.8107 21.5807C15.8107 22.6711 16.0757 23.663 16.6058 24.5566C17.1358 25.4501 17.8476 26.1619 18.7411 26.6919C19.6498 27.222 20.6417 27.487 21.717 27.487Z" fill="#7CCB56"/>
</svg>
