<svg width="49" height="49" viewBox="0 0 49 49" fill="none" xmlns="http://www.w3.org/2000/svg">
<path fill-rule="evenodd" clip-rule="evenodd" d="M24.0117 48.0234C37.2734 48.0234 48.0234 37.2734 48.0234 24.0117C48.0234 10.75 37.2734 0 24.0117 0C10.75 0 0 10.75 0 24.0117C0 37.2734 10.75 48.0234 24.0117 48.0234ZM26.2773 38.0957C26.1152 38.2598 25.9102 38.3418 25.666 38.3418C25.4297 38.3418 25.2246 38.2598 25.0547 38.0957C24.9805 38.0273 24.918 37.9512 24.8691 37.8672C24.8047 37.7559 24.7598 37.6309 24.7363 37.4922C24.5312 36.1895 24.3203 35.0957 24.0996 34.209C23.8789 33.3242 23.5938 32.5996 23.2422 32.0332C22.9004 31.4688 22.4512 31.0176 21.8965 30.6816C21.3418 30.3379 20.6309 30.0625 19.7656 29.8574C19.3125 29.7441 18.8008 29.6367 18.2305 29.5352C17.7227 29.4453 17.1699 29.3594 16.5723 29.2793C16.3184 29.2461 16.1113 29.1445 15.9473 28.9727C15.7832 28.793 15.7031 28.5781 15.7031 28.334C15.7031 28.0879 15.7832 27.8789 15.9473 27.707C16.1113 27.5254 16.3223 27.4199 16.584 27.3867C17.8477 27.2461 18.9141 27.0781 19.7793 26.8828C20.6523 26.6855 21.3691 26.416 21.9336 26.0703C22.3223 25.8281 22.6582 25.5332 22.9473 25.1836C23.0762 25.0273 23.1953 24.8594 23.3047 24.6816C23.6543 24.1074 23.9355 23.375 24.1484 22.4805C24.3613 21.5879 24.5566 20.4844 24.7363 19.1738C24.7773 18.9277 24.8828 18.7266 25.0547 18.5703C25.2246 18.416 25.4297 18.3379 25.666 18.3379C25.9023 18.3379 26.1074 18.416 26.2773 18.5703C26.4492 18.7266 26.5566 18.9277 26.5957 19.1738C26.709 19.9277 26.8262 20.6133 26.9473 21.2305C27.0352 21.6855 27.127 22.1016 27.2207 22.4805C27.4414 23.3652 27.7227 24.0957 28.0645 24.6699C28.416 25.2344 28.8691 25.6895 29.4238 26.0332C29.9863 26.3789 30.6973 26.6523 31.5547 26.8574C32.418 27.0547 33.4883 27.2305 34.7617 27.3867C35.0137 27.4277 35.2227 27.5371 35.3848 27.7188C35.5488 27.8906 35.6309 28.0957 35.6309 28.334C35.6309 28.5781 35.5488 28.793 35.3848 28.9727C35.3027 29.0645 35.207 29.1367 35.0977 29.1875C34.9922 29.2363 34.877 29.2676 34.748 29.2793C33.9375 29.3691 33.207 29.4727 32.5566 29.5879C32.1934 29.6523 31.8535 29.7227 31.541 29.7969C30.6758 29.9922 29.959 30.2637 29.3867 30.6074C28.8242 30.9434 28.3711 31.4023 28.0293 31.9844C27.8633 32.2598 27.7129 32.5723 27.5762 32.9219C27.4297 33.3008 27.2988 33.7207 27.1836 34.1855C26.9727 35.0879 26.7754 36.1895 26.5957 37.4922C26.582 37.5801 26.5586 37.6621 26.5273 37.7383C26.4707 37.877 26.3867 37.9961 26.2773 38.0957ZM17.2695 24.5215C17.1719 24.6113 17.0488 24.6562 16.9023 24.6562C16.5762 24.6562 16.3926 24.4805 16.3516 24.1289C16.2539 23.3242 16.1504 22.6934 16.0449 22.2344C15.9473 21.7754 15.7793 21.4316 15.543 21.2031C15.3066 20.9648 14.9551 20.7891 14.4902 20.6738C14.1797 20.5918 13.7871 20.5098 13.3145 20.4277C13.082 20.3867 12.8301 20.3457 12.5566 20.3047C12.1895 20.248 12.0059 20.0625 12.0059 19.752C12.0059 19.5957 12.0469 19.4727 12.127 19.3809C12.209 19.2871 12.332 19.2266 12.4961 19.1973C13.3281 19.043 13.9805 18.9023 14.4531 18.7793C14.9355 18.6562 15.2949 18.4805 15.5312 18.252C15.7676 18.0215 15.9395 17.6855 16.0449 17.2441C16.1504 16.793 16.2539 16.1699 16.3516 15.375C16.3926 15.0215 16.5762 14.8457 16.9023 14.8457C17.2285 14.8457 17.4121 15.0137 17.4531 15.3496C17.5039 15.748 17.5547 16.1055 17.6074 16.4219C17.6621 16.7598 17.7168 17.0508 17.7715 17.293C17.832 17.5625 17.9141 17.793 18.0156 17.9844C18.0898 18.127 18.1758 18.248 18.2734 18.3496C18.5098 18.5801 18.8652 18.752 19.3379 18.8652C19.8105 18.9727 20.4688 19.084 21.3086 19.1973C21.3633 19.2051 21.4141 19.2188 21.4609 19.2383C21.5332 19.2695 21.5977 19.3184 21.6504 19.3828C21.75 19.4805 21.7988 19.6035 21.7988 19.752C21.7988 19.9629 21.7207 20.1152 21.5684 20.2109C21.5 20.2539 21.418 20.2852 21.3203 20.3047C20.4727 20.4531 19.8105 20.5918 19.3379 20.7227C18.8652 20.8457 18.5098 21.0215 18.2734 21.252C18.0449 21.4805 17.877 21.8203 17.7715 22.2715C17.6641 22.7227 17.5586 23.3496 17.4531 24.1523C17.4453 24.2188 17.4297 24.2793 17.4043 24.334C17.373 24.4043 17.3281 24.4668 17.2695 24.5215ZM23.2051 15.5215C23.1738 15.7266 23.0586 15.8301 22.8633 15.8301C22.75 15.8301 22.6621 15.7969 22.6016 15.7305C22.5547 15.6777 22.5234 15.6035 22.5078 15.5098C22.4258 15.0098 22.3535 14.6211 22.2871 14.3418C22.2227 14.0625 22.1172 13.8496 21.9688 13.7031C21.8301 13.5547 21.6191 13.4434 21.334 13.3711C21.0469 13.2891 20.6426 13.2031 20.1211 13.1113C19.9004 13.0723 19.791 12.9531 19.791 12.7559C19.791 12.5664 19.8965 12.4492 20.1094 12.3984C20.6309 12.3008 21.0391 12.2109 21.334 12.1289C21.627 12.0469 21.8438 11.9355 21.9824 11.7969C22.0625 11.7168 22.1289 11.6172 22.1816 11.498C22.2266 11.3984 22.2617 11.2852 22.2871 11.1582C22.3535 10.8789 22.4258 10.498 22.5078 10.0137C22.541 9.79297 22.6582 9.68164 22.8633 9.68164C22.918 9.68164 22.9668 9.69141 23.0098 9.70898C23.1172 9.75195 23.1836 9.84961 23.2051 10.002C23.2871 10.502 23.3613 10.8945 23.4258 11.1816C23.4922 11.4688 23.5938 11.6855 23.7324 11.834C23.8789 11.9727 24.0957 12.084 24.3809 12.166C24.6738 12.2402 25.082 12.3164 25.6055 12.3984C25.8164 12.4395 25.9238 12.5586 25.9238 12.7559C25.9238 12.9531 25.8203 13.0723 25.6172 13.1113C25.0859 13.2109 24.6738 13.3008 24.3809 13.3828C24.0957 13.4648 23.8828 13.5801 23.7441 13.7266C23.6719 13.8027 23.6094 13.8965 23.5547 14.0078C23.5039 14.1113 23.4609 14.2324 23.4258 14.3672C23.3613 14.6445 23.2871 15.0293 23.2051 15.5215Z" fill="#FF4546"/>
</svg>
