<svg width="146" height="91" viewBox="0 0 146 91" fill="none" xmlns="http://www.w3.org/2000/svg">
<path fill-rule="evenodd" clip-rule="evenodd" d="M86.5822 3.01322C87.0415 1.05898 85.8389 0.098558 84.5778 0.00669172C83.3919 -0.0851746 81.9721 0.766677 82.231 2.69587C82.4398 7.39775 83.1079 8.08257 83.9765 8.14938C84.8451 8.2162 85.6886 7.63994 86.5822 3.01322ZM70.5939 5.89553C71.3706 3.96634 73.2079 2.74702 75.7133 4.36721C80.6658 7.27353 82.0354 8.09197 81.4592 9.47832C81.0499 10.7227 78.8201 10.7979 72.924 9.88754C70.0677 9.83743 69.9174 7.51572 70.5939 5.89553ZM121.649 38.6291C120.897 40.8255 119.235 41.9947 116.872 41.2514C113.991 40.3495 112.972 38.5539 113.782 35.9817C114.223 34.5816 115.053 33.529 115.827 32.547C116.502 31.6897 117.136 30.8861 117.432 29.9519C117.791 28.8244 117.315 27.9977 116.287 27.6719C115.21 27.3295 114.041 27.8139 113.373 29.5761C111.235 35.2885 108.604 38.8128 103.05 37.0674C95.2333 34.612 94.465 28.6073 97.9141 17.6502C101.539 6.13348 107.001 1.34807 118.826 5.07283C126.301 7.53652 128.414 10.518 127.153 14.5351C126.426 16.8484 125.056 17.7754 122.384 16.9319C120.316 16.2814 118.789 15.4663 117.254 14.647C115.695 13.8149 114.128 12.9785 111.978 12.3052C108.838 11.3197 105.531 12.3136 104.27 16.3223C103.117 19.9719 106.09 23.112 111.485 24.8074C115.803 26.1687 116.68 25.3669 116.922 24.5986C117.25 23.6463 116.257 22.9279 115.222 22.1788C114.097 21.3644 112.922 20.5138 113.339 19.2871C114.041 17.2493 116.446 17.3245 120.655 18.6523C125.023 20.0303 126.401 21.5921 125.925 23.6465C125.636 24.8209 124.563 25.0917 123.452 25.3719C122.28 25.6676 121.066 25.9737 120.689 27.3629C120.268 28.6786 120.706 30.2193 121.187 31.9088C121.774 33.973 122.425 36.2594 121.649 38.6291ZM93.5058 66.443C94.817 62.284 97.8486 59.979 101.899 61.2567C103.96 61.9036 105.677 62.9491 107.337 63.9608C108.893 64.9084 110.4 65.8263 112.096 66.3595C114.418 67.0861 116.598 67.1278 117.483 64.3217C118.042 62.5429 117.024 61.6326 115.729 61.2233C114.501 60.8358 113.217 60.7732 111.771 60.7026C109.915 60.612 107.792 60.5085 105.181 59.6867C102.049 58.7012 101.398 57.1896 101.69 55.3272C101.766 54.5619 102.042 53.8048 102.319 53.0473C102.437 52.7219 102.556 52.3964 102.659 52.0701C103.098 50.8501 102.855 49.5234 102.6 48.1328C102.322 46.6107 102.029 45.0121 102.601 43.3929C103.72 40.6035 106.225 39.9688 109.524 41.0044C116.055 43.0589 113.992 49.0552 108.881 51.5356C106.133 52.922 105.791 56.2542 111.353 58.008C120.097 60.7557 120.765 57.1144 119.262 53.9743C117.633 49.7234 119.922 44.1613 125.534 45.9234C129.15 47.0592 130.06 49.0636 129.501 51.9699C129.195 53.5088 128.011 54.7692 126.783 56.0751C125.559 57.3772 124.293 58.7246 123.813 60.4383C122.824 63.7749 123.087 66.0967 123.334 68.2797C123.582 70.4624 123.813 72.5063 122.761 75.2872C120.807 80.1896 115.136 81.6093 106.075 78.7531C94.3493 75.0701 91.9107 71.5124 93.5058 66.443ZM45.1252 48.4213C52.2407 50.8516 54.1782 54.3008 52.3409 60.1468C51.1299 63.9885 48.7664 67.0869 44.8078 65.8425C42.7758 65.2054 41.4414 64.0493 40.1017 62.8886C38.7544 61.7214 37.4017 60.5495 35.3289 59.8963C32.5729 59.0277 29.0319 59.6791 27.7875 63.6377C26.5265 67.6548 29.249 70.4024 32.289 71.3628C35.1294 72.2558 37.1999 72.4788 38.9845 72.671C40.3376 72.8168 41.5264 72.9448 42.7617 73.3338C46.1441 74.4028 46.8874 77.6599 45.9102 80.7582C43.9977 86.8381 39.7803 88.4166 32.7984 86.1533C21.9415 82.796 21.2066 75.6973 25.3405 62.5604C29.2323 50.2336 33.9342 44.9054 45.1252 48.4213ZM80.7417 90.2019C86.3372 89.8846 89.8197 87.922 89.5441 83.053C89.3582 79.788 87.6875 77.8797 86.1605 76.1356C84.8753 74.6676 83.6919 73.3159 83.5812 71.3693C83.4225 68.4714 84.4748 67.8867 85.8778 67.8116C86.6786 67.7671 87.3704 67.9075 88.015 68.0383C88.5805 68.153 89.1097 68.2604 89.6443 68.2292C91.5151 68.1206 92.225 66.0494 92.083 63.4605C91.7656 57.7648 89.1098 55.8272 78.8459 56.4035C68.5318 56.9797 66.16 59.1929 66.4773 64.8969C66.6277 67.4859 67.5129 69.4652 69.4338 69.3566C69.9692 69.3293 70.4846 69.1647 71.0355 68.9888L71.0356 68.9888C71.6617 68.7888 72.3338 68.5742 73.1335 68.5298C74.5365 68.4547 75.6556 68.914 75.8143 71.812C75.9211 73.7532 74.8975 75.2259 73.7856 76.8259C72.4626 78.7295 71.0144 80.8132 71.1959 84.0803C71.4715 88.9492 75.1963 90.5109 80.7417 90.2019ZM135.73 57.3894C130.193 56.9217 127.563 59.6192 127.212 64.9725C126.886 69.9584 129.985 72.6977 134.712 73.0902C139.497 73.4911 142.913 71.2946 143.238 66.3088C143.581 60.9555 141.326 57.8571 135.73 57.3894ZM142.251 46.3533C143.998 44.5581 145.726 42.7834 145.978 38.9076C146.262 34.5982 143.898 31.124 137.334 30.5728C130.828 30.0383 128.047 33.0699 127.763 37.3876C127.511 41.2655 128.991 43.309 130.489 45.3765C131.965 47.4143 133.458 49.4753 133.325 53.3389C133.618 54.3662 134.002 54.8004 135.814 54.9508C137.626 55.1011 138.061 54.7336 138.42 53.7649C138.785 49.9158 140.528 48.1246 142.251 46.3533ZM136.934 20.2331C138.37 22.2291 138.42 24.8265 135.23 26.3047C129.209 29.4114 127.53 30.2633 126.511 28.8101C125.534 27.6159 126.862 25.3442 131.489 20.0494C133.343 17.2266 135.748 18.5378 136.934 20.2331ZM27.3216 8.40906C25.9436 5.74494 23.7221 5.88691 22.0769 7.18139C20.6739 8.25038 19.6466 10.355 22.1187 11.8332C26.8122 15.583 28.7998 16.6353 29.777 15.7584C30.9796 14.8313 30.1862 13.4367 27.3216 8.40906ZM97.44 7.9738C97.8659 9.75267 97.3899 11.9491 94.6256 11.6652C88.6543 11.6986 86.3827 11.2977 86.1572 10.0116C85.8039 8.53408 87.1491 7.99078 91.9892 6.03594L92.5878 5.79407C95.302 4.55805 96.9473 6.03626 97.44 7.9738ZM11.5568 69.8065C8.88437 73.4561 11.5819 75.7611 14.4632 76.3207C17.1607 76.8635 20.3092 75.6859 20.2591 71.2513C20.6015 65.3134 20.1088 63.1253 18.7892 62.7328C17.4697 62.3403 15.6741 64.1442 11.5568 69.8065ZM105.448 85.1426C104.671 86.1448 103.21 86.6208 101.832 85.1593C98.4661 81.8605 98.4494 80.8499 98.9839 80.1568C99.5184 79.4636 100.454 79.2882 104.496 81.7018C106.241 82.5453 106.175 84.1989 105.448 85.1426ZM92.7351 86.8522C92.8604 89.3994 94.9148 89.533 96.4766 88.9067C98.1803 88.1968 99.291 86.5014 97.7961 84.2048L97.5139 83.7255C95.0651 79.5641 94.382 78.4034 93.0859 78.9266C91.9417 79.3025 91.8833 81.4321 92.7351 86.8522ZM92.8182 27.6817C91.9667 32.9657 93.9501 35.045 96.0502 37.2466C97.6577 38.9317 99.3334 40.6885 99.8585 44.0089C100.51 48.2932 98.0713 50.8905 93.6867 51.617C89.1769 52.3687 86.1036 50.3727 85.4939 46.698C84.9472 43.413 87.2072 41.932 89.0372 40.7327C90.2825 39.9166 91.3287 39.231 91.1562 38.1962C90.9391 36.8934 89.5277 36.0917 82.5876 37.2442C75.706 38.3883 74.6286 39.5993 74.8458 40.9021C75.0181 41.9328 76.2282 42.2442 77.6684 42.6149C79.7875 43.1603 82.4047 43.8339 82.9467 47.1156C83.5564 50.7903 81.2931 53.6715 76.7833 54.4148C72.3904 55.1414 69.2503 53.4711 68.4819 49.2118C67.9062 45.8983 68.9242 43.695 69.9005 41.5818C71.1758 38.8217 72.38 36.2154 69.8683 31.49C66.3857 24.0822 65.3 16.0899 78.7125 13.8684C92.1083 11.6469 93.7118 19.4889 92.8182 27.6817ZM90.438 30.9973C89.8952 27.7318 86.9638 27.3059 81.0843 28.283C75.2717 29.2434 72.6326 30.5964 73.1755 33.8618C73.5847 36.3505 76.0818 37.0354 82.3705 35.9914C88.7176 34.9475 90.8556 33.4943 90.438 30.9973ZM63.2953 55.5636C63.8649 53.9602 64.3976 52.4605 64.2824 50.7664C64.0569 48.1691 62.4869 47.2337 60.2737 47.1168C58.0522 46.9916 56.4404 47.7515 55.8808 50.3071C55.6121 51.9643 55.9806 53.5004 56.3737 55.139C56.7869 56.8612 57.2272 58.6968 56.9832 60.9051C56.6939 64.1577 55.1474 66.2611 53.549 68.4351C51.7327 70.9053 49.8495 73.4667 49.6673 77.9087C49.5003 84.2224 52.866 86.4523 58.1524 86.7446C63.4306 87.0285 67.0301 85.1829 67.5562 78.8858C67.8627 74.4534 66.256 71.7026 64.7056 69.0483C63.3407 66.7116 62.0195 64.4496 62.086 61.1807C62.0818 58.9803 62.7081 57.2169 63.2953 55.5636ZM16.0116 36.7738C7.58493 34.4521 3.35908 31.6877 4.87905 24.2048C6.12342 18.0748 10.1906 14.0578 20.5631 16.1623C30.7018 18.2168 33.4829 22.0418 32.4222 27.2865C31.6539 31.0614 29.2236 33.0824 25.858 32.3976C23.7075 31.9592 22.2606 30.7753 20.8137 29.5915C19.3668 28.4077 17.9199 27.2239 15.7694 26.7854C13.8819 26.4013 12.3369 27.0694 11.9778 28.8399C11.4851 31.2535 14.6169 33.0574 18.9179 34.2349C26.8935 36.3479 30.468 39.5882 29.0482 46.6035C27.6619 53.4433 23.0352 56.8591 12.078 54.6293C1.70549 52.5247 -0.86677 48.5661 0.235625 43.146C0.987259 39.4296 3.48435 37.4252 7.37614 38.2102C9.69366 38.6822 11.2394 39.8089 12.7697 40.9243C14.2724 42.0197 15.7602 43.1041 17.9491 43.5468C19.6612 43.8976 21.1728 43.4049 21.5486 41.5174C21.9912 39.3377 20.4963 37.9263 16.0116 36.7738ZM55.1922 32.8288C53.5037 34.0062 51.5578 35.3631 51.5578 38.6632C51.5578 43.4737 54.9819 45.2191 59.9177 45.2191C64.6112 45.2191 67.9184 43.599 68.2775 38.847C68.4301 35.6717 67.0333 33.8457 65.6208 31.9992C64.2507 30.208 62.8657 28.3976 62.8657 25.3176C62.8657 22.3136 64.2375 20.5651 65.6012 18.8269C67.0204 17.0181 68.4308 15.2203 68.2775 12.0304C67.9184 7.21991 64.6112 5.53292 59.9177 5.53292C55.0488 5.53292 51.5578 7.16145 51.5578 12.0304C51.5578 15.1782 53.4396 16.4266 55.1291 17.5475C56.5056 18.4607 57.7546 19.2893 57.7546 20.9915C57.7546 22.7286 56.7859 23.5137 50.3552 23.5137C43.7408 23.5137 42.8389 22.737 42.8389 20.9915C42.8389 19.2893 44.0879 18.4607 45.4644 17.5475C47.154 16.4266 49.0357 15.1782 49.0357 12.0304C49.0357 7.1531 45.67 5.53292 40.6174 5.53292C35.9823 5.53292 32.6751 7.21991 32.316 12.0304C32.1618 15.2395 33.5748 17.0396 35.0033 18.8596C36.3593 20.5871 37.7293 22.3325 37.7862 25.3176C37.7292 28.3689 36.3546 30.1743 35.0031 31.9492C33.5841 33.8129 32.1905 35.6431 32.3745 38.847C32.7336 43.599 36.0408 45.2191 40.609 45.2191C45.6617 45.2191 49.0273 43.4737 49.0273 38.6632C49.0273 35.3631 47.0627 34.0062 45.3579 32.8288C44.0513 31.9263 42.8973 31.1293 42.8973 29.6436C42.8973 28.0819 43.7993 27.1799 50.3552 27.1799C56.7274 27.1799 57.6294 28.0819 57.6294 29.6436C57.6294 31.1293 56.4864 31.9263 55.1922 32.8288Z" fill="#808080"/>
</svg>
