<?xml version="1.0" encoding="utf-8"?>
<!-- Generator: Adobe Illustrator 15.0.0, SVG Export Plug-In  -->
<!DOCTYPE svg PUBLIC "-//W3C//DTD SVG 1.1//EN" "http://www.w3.org/Graphics/SVG/1.1/DTD/svg11.dtd" [
	<!ENTITY ns_flows "http://ns.adobe.com/Flows/1.0/">
]>
<svg version="1.1"
	 xmlns="http://www.w3.org/2000/svg" xmlns:xlink="http://www.w3.org/1999/xlink" xmlns:a="http://ns.adobe.com/AdobeSVGViewerExtensions/3.0/"
	 x="0px" y="0px" width="30px" height="30px" viewBox="-0.412 -0.413 30 30" enable-background="new -0.412 -0.413 30 30"
	 xml:space="preserve">
<defs>
</defs>
<path fill="#C2C2C2" d="M14.588,0C6.544,0,0,6.544,0,14.587c0,8.044,6.544,14.588,14.588,14.588s14.588-6.544,14.588-14.588
	C29.176,6.544,22.632,0,14.588,0z M15.588,26.458v-3.995h-2.062v3.992C7.786,25.947,3.22,21.376,2.72,15.634h3.978v-2.062H2.718
	C3.205,7.816,7.775,3.229,13.525,2.72v4.023h2.062V2.717c5.779,0.481,10.381,5.078,10.869,10.855h-4.041v2.062h4.04
	C25.953,21.397,21.356,25.978,15.588,26.458z"/>
</svg>
