<svg width="440" height="162" viewBox="0 0 440 162" fill="none" xmlns="http://www.w3.org/2000/svg">
<path fill-rule="evenodd" clip-rule="evenodd" d="M116.849 4.34529C120.975 1.90862 125.695 0.520863 131.121 0.149149C143.346 -0.688192 152.23 2.08858 158.967 8.85289C162.494 12.395 165.197 16.8596 167.29 22.6046C169.122 27.6311 170.381 34.3425 171.027 42.5265C171.344 46.5422 171.296 57.5413 170.949 60.4594C170.201 66.7445 169.11 70.453 167.248 73.0438C165.007 76.1604 162.865 77.6115 159.2 78.4943C158.12 78.7547 157.154 78.8316 154.166 78.8955C148.642 79.0134 146.181 78.6049 143.234 77.0803C140.542 75.6881 139.547 74.2779 138.135 69.8543C137.573 68.0926 137.208 67.2144 136.866 66.8026C135.991 65.7462 134.664 65.636 133.641 66.5344C132.862 67.2179 132.581 67.7517 131.747 70.1337C131.338 71.3017 130.713 72.8236 130.36 73.5158C129.027 76.1233 126.682 77.7638 123.163 78.5507C121.618 78.8963 115.316 79.0567 113.383 78.7995C107.883 78.0674 104.203 75.5346 101.773 70.8068C100.504 68.3385 99.8221 65.8145 99.0774 60.8328C98.7414 58.5849 98.7162 57.9207 98.7194 51.4143C98.7233 43.1016 98.9582 39.8123 99.9943 33.56C101.078 27.0221 102.464 22.5093 104.855 17.743C107.974 11.5228 111.652 7.41527 116.849 4.34529ZM270.395 4.03885C275.421 1.89414 282.415 0.358208 288.427 0.0785174C296.284 -0.286905 303.051 0.636168 306.743 2.57654C309.382 3.96335 311.467 6.462 312.191 9.106C312.32 9.57792 312.468 10.7074 312.519 11.6158C312.722 15.203 311.522 18.4045 309.248 20.3463C306.612 22.5974 303.781 23.6044 298.416 24.1998C293.472 24.7485 290.876 25.2731 288.112 26.2824C283.612 27.9256 280.751 30.0869 279.257 32.9706C277.777 35.8288 277.276 39.7352 277.962 43.077C278.619 46.2751 280.672 49.2104 283.022 50.3093C285.112 51.2873 287.94 51.25 288.702 50.2345C289.001 49.8369 289.13 48.9301 288.959 48.4383C288.806 47.9998 288.551 47.8222 287.021 47.0897C285.008 46.1255 284.315 45.486 283.63 43.9587C282.977 42.5033 282.778 41.4459 282.783 39.459C282.788 37.1932 283.135 35.5503 283.968 33.8433C285.402 30.9077 288.527 28.9527 293.005 28.1907C295.305 27.7992 301.537 27.8009 303.677 28.1935C307.561 28.9063 309.812 30.0895 312.076 32.6086C314.633 35.4534 315.833 39.7758 315.986 46.6951C316.099 51.7597 315.68 55.4076 314.531 59.3727C313.984 61.2616 313.497 62.4705 312.392 64.6848C310.638 68.1974 308.632 70.7141 305.731 73.0394C300.207 77.4667 293.62 79.4559 284.494 79.453C277.841 79.4508 271.871 78.1096 266.494 75.4092C261.756 73.0292 257.194 68.9227 254.082 64.2347C252.922 62.4867 251.09 58.953 250.308 56.9549C246.757 47.8774 246.298 34.989 249.209 26.088C251.706 18.4527 257.215 11.5969 264.398 7.18529C266.157 6.1046 268.788 4.72439 270.395 4.03885ZM340.102 2.59494C343.783 1.18548 346.497 0.592593 351.664 0.0686066C352.936 -0.0603844 358.479 0.126495 360.159 0.355061C370.124 1.71151 378.456 6.28818 384.096 13.5035C386.26 16.2719 388.561 20.5115 389.729 23.8857C392.733 32.5583 392.698 45.4767 389.646 54.3282C385.345 66.8007 375.608 75.7056 363.157 78.5532C358.114 79.7067 351.64 79.7616 346.474 78.6949C342.565 77.8875 337.885 75.9719 334.576 73.8246C325.728 68.0832 319.873 58.6774 318.176 47.4816C317.393 42.3198 317.392 35.8029 318.172 30.6499C319.377 22.685 322.777 15.7825 328.181 10.3292C331.535 6.94383 335.554 4.33679 340.102 2.59494ZM4.25092 10.0428C7.27245 4.042 13.237 0.718754 21.7146 0.312904C27.0568 0.0569674 31.241 0.755091 34.7845 2.49332C36.6885 3.42725 37.7504 4.1765 39.1041 5.54176C41.7346 8.19409 42.9496 10.7744 44.2981 16.571C45.5356 21.8912 46.2012 23.5074 47.397 24.0949C48.1488 24.4641 48.8636 24.259 49.5502 23.477C50.3415 22.5758 50.6745 21.5536 51.9023 16.2563C52.9348 11.8022 54.1143 9.01335 55.926 6.74279C59.632 2.09786 65.9317 -0.09326 74.4121 0.312904C80.4355 0.601246 85.1063 2.30519 88.4058 5.4178C90.5538 7.44406 91.9255 9.6734 93.1018 13.0493C95.4318 19.7363 96.2508 27.9543 96.0707 42.8411C95.9135 55.8349 95.3172 61.9819 93.6963 67.3198C92.4823 71.3177 91.4643 73.1969 89.3562 75.3311C87.6982 77.0097 86.3484 77.8264 84.1651 78.4715C82.4972 78.9645 78.5726 79.0951 76.8618 78.7146C75.0195 78.3046 73.5853 77.5057 72.2053 76.1204C70.0741 73.9809 69.0135 71.2779 68.4383 66.5197C68.2187 64.7027 68.2336 58.6949 68.4659 55.3707C68.6379 52.912 68.63 52.5379 68.3875 51.5953C68.0455 50.2675 67.4782 49.6839 66.5294 49.6839C65.6977 49.6839 65.0272 50.1623 64.6609 51.0171C64.5048 51.3809 63.9044 53.7251 63.3263 56.2263C61.4463 64.3609 60.4435 67.6043 58.6084 71.4852C57.553 73.7168 56.7422 74.9026 55.5041 76.0254C51.7527 79.4275 44.8534 79.5483 40.9335 76.2804C39.5929 75.1628 38.6753 73.8842 37.5953 71.6281C35.7384 67.7494 34.6541 64.3 32.9722 56.92C31.6923 51.3043 31.6305 51.0676 31.3025 50.5368C30.7295 49.6092 29.3384 49.3779 28.5124 50.0729C27.7705 50.6973 27.6019 51.5824 27.6878 54.4031C27.7285 55.7441 27.7638 59.0357 27.766 61.7178C27.7693 65.748 27.7204 66.876 27.4836 68.2174C26.8305 71.9197 25.7795 74.3459 24.0823 76.0703C22.777 77.3963 21.6933 78.0311 19.8138 78.5702C18.4686 78.956 18.2449 78.9744 15.7656 78.9013C13.6968 78.8404 12.8927 78.7512 11.9658 78.4799C8.51501 77.4697 5.77301 75.0605 3.96447 71.45C2.81314 69.1515 1.69533 64.9789 1.12573 60.8526C-0.372299 50.0021 -0.375763 30.6782 1.11849 20.8006C1.6785 17.0981 3.02267 12.4819 4.25092 10.0428ZM175.881 15.8127C178.301 6.14172 183.536 1.54996 193.206 0.616348C198.155 0.138609 202.851 0.86206 206.386 2.6467C211.225 5.08919 213.901 8.95373 215.267 15.4698C215.991 18.9276 216.715 21.7259 217.089 22.5192C217.514 23.4172 218.18 24.1243 218.733 24.2629C219.369 24.4227 220.141 24.0049 220.482 23.3151C220.751 22.7705 220.794 22.1962 220.883 17.9081C221.014 11.608 221.419 9.0102 222.69 6.3231C224.998 1.44803 229.261 -0.456008 234.786 0.921049C239.086 1.99293 241.288 4.59698 242.805 10.4044C244.333 16.2557 244.88 22.5398 245.04 36.0857C245.251 53.9634 244.151 64.0473 241.315 70.2216C239.225 74.7711 235.844 77.3652 230.46 78.5491C228.844 78.9043 223.825 79.0468 221.915 78.7915C215.639 77.9524 211.733 74.9023 208.513 68.3247C206.696 64.6146 205.444 60.417 204.197 53.8525C203.681 51.1363 203.472 50.5387 202.874 50.0831C202.264 49.618 201.388 49.5541 200.81 49.9326C200.601 50.0694 200.303 50.5118 200.147 50.9158C199.822 51.7578 199.805 52.8901 200.014 59.9088C200.211 66.5465 199.683 70.3671 198.107 73.7108C196.921 76.2272 194.434 78.212 191.762 78.775C189.851 79.1778 186.316 78.929 184.432 78.2592C182.163 77.4517 180.009 75.6103 178.572 73.2483C175.106 67.5496 173.831 58.6214 173.827 40.0096C173.825 28.6006 174.412 21.6826 175.881 15.8127ZM8.56517 91.8343C13.7755 86.625 22.7762 82.9874 32.2644 82.2568C34.8211 82.0598 40.1985 82.1864 42.1505 82.4897C49.1305 83.5739 52.9897 86.3348 54.7866 91.5303C55.7537 94.3262 55.8877 98.053 55.1317 101.129C54.4924 103.731 52.5093 106.167 50.04 107.384C48.4039 108.191 47.7374 108.401 44.9276 108.994C41.9038 109.632 41.0928 109.895 40.5886 110.399C39.7321 111.256 39.6831 112.664 40.4799 113.519C40.8908 113.96 42.262 114.678 44.2983 115.519C50.7155 118.168 54.1369 120.961 56.2484 125.274C57.5501 127.933 58.1008 130.853 58.1034 135.108C58.1065 140.56 56.8956 144.292 53.8202 148.308C52.7809 149.665 50.4168 152.007 49.0175 153.066C45.6905 155.583 40.5002 158.034 35.4106 159.491C28.4329 161.489 18.9898 162.174 12.8371 161.128C6.97009 160.131 3.53327 157.899 1.47287 153.748C-0.53168 149.711 -0.472691 143.227 1.59588 140.213C3.66996 137.19 7.11418 135.411 12.6891 134.481C15.4232 134.025 17.9993 133.441 18.5639 133.149C19.562 132.633 19.9675 131.395 19.458 130.42C19.0532 129.645 18.3705 129.172 15.2379 127.498C9.90526 124.649 7.72186 122.905 5.68458 119.868C4.96444 118.795 3.82035 116.467 3.4178 115.256C2.95407 113.861 2.53579 111.393 2.37172 109.084C1.86 101.877 3.73006 96.6685 8.56517 91.8343ZM207.743 83.8419C210.465 82.9978 214.16 82.5058 220.088 82.1984C224.164 81.9871 230.369 82.1929 234.088 82.6628C242.279 83.6977 249.572 86.5808 255.236 91.0228C260.445 95.1088 264.342 101.424 265.939 108.365C266.889 112.495 267.28 116.191 267.28 121.043C267.28 130.918 265.355 138.962 261.563 144.939C253.84 157.112 240.543 162.417 219.931 161.547C211.567 161.194 208.006 160.591 204.672 158.963C203.565 158.423 203.061 158.039 201.749 156.737C200.281 155.281 200.097 155.029 199.292 153.355C197.105 148.807 196.013 143.797 195.3 135.029C194.808 128.976 194.768 116.185 195.222 109.939C196.016 99.0284 198.183 91.1493 201.322 87.7584C203.096 85.8421 204.96 84.7054 207.743 83.8419ZM330.385 84.7908C334.374 83.2767 337.083 82.6812 342.236 82.186C343.542 82.0604 348.911 82.2458 350.573 82.4737C363.458 84.2396 373.325 91.1699 378.59 102.152C381.26 107.721 382.437 113.517 382.434 121.077C382.429 133.512 378.752 143.309 371.259 150.85C364.143 158.011 355.466 161.561 345.068 161.566C338.566 161.569 333.609 160.413 327.944 157.574C319.608 153.395 313.162 145.599 310.157 136.062C307.226 126.759 307.316 114.724 310.382 105.77C313.68 96.1409 321.165 88.2909 330.385 84.7908ZM389.707 92.6028C394.726 87.0209 404.335 82.967 414.204 82.2679C421.322 81.7636 426.744 82.4937 430.797 84.502C433.491 85.8374 435.803 88.6547 436.824 91.8483C437.372 93.5589 437.534 95.1016 437.442 97.7053C437.323 101.07 436.837 102.672 435.351 104.604C433.601 106.878 431.296 108.072 426.867 108.998C423.899 109.619 423.085 109.878 422.526 110.379C421.628 111.184 421.615 112.749 422.499 113.595C422.941 114.018 424.409 114.747 427.811 116.23C433.179 118.571 436.31 121.366 438.284 125.581C439.505 128.184 439.999 130.951 440 135.186C440.001 139.58 439.268 142.556 437.352 145.937C435.615 149.002 432.591 152.052 428.912 154.449C427.184 155.574 423.291 157.466 420.946 158.318C411.794 161.647 400.013 162.576 392.181 160.588C388.741 159.714 386.247 158.071 384.342 155.421C382.781 153.252 381.949 150.322 381.945 146.984C381.94 143.33 382.519 141.394 384.238 139.309C386.218 136.909 389.343 135.428 394.283 134.548C399.555 133.609 400.678 133.273 401.224 132.47C401.924 131.439 401.645 130.268 400.492 129.401C400.203 129.184 398.729 128.355 397.215 127.559C391.158 124.374 388.562 122.007 386.431 117.725C385.246 115.345 384.762 113.631 384.402 110.54C383.539 103.116 385.148 97.6726 389.707 92.6028ZM60.2007 89.3879C63.4002 84.8746 70.6652 82.7616 84.0968 82.4375C99.5229 82.0655 109.057 83.3688 113.858 86.5056C115.263 87.4236 117.036 89.3786 117.8 90.8528C118.491 92.1861 119.327 94.6967 119.575 96.1867C120.33 100.719 120.184 107.642 119.257 111.267C118.496 114.241 116.92 116.363 114.524 117.64C113.122 118.387 112.199 118.597 109.867 118.7C107.432 118.807 106.794 119.053 106.277 120.086C105.991 120.656 105.965 120.995 105.99 123.781C106.006 125.469 106.092 128.088 106.181 129.602C106.271 131.116 106.392 135.257 106.451 138.804C106.564 145.555 106.511 146.533 105.873 149.422C104.444 155.896 100.008 159.712 92.5913 160.848C90.3407 161.193 85.1315 161.065 83.1298 160.616C79.7484 159.857 77.4866 158.77 75.4434 156.919C72.8544 154.574 71.5266 151.794 70.8689 147.34C70.6477 145.844 70.621 144.712 70.696 140.063C70.7448 137.035 70.8655 132.746 70.9641 130.532C71.0626 128.318 71.1201 125.094 71.0918 123.367C71.0479 120.689 70.9996 120.165 70.7629 119.804C70.2203 118.977 69.8158 118.843 67.5147 118.729C66.3391 118.67 65.0234 118.534 64.5908 118.425C61.4041 117.628 58.7864 114.878 57.8948 111.392C56.5457 106.117 56.6919 98.441 58.2355 93.5001C58.8122 91.6544 59.2633 90.7102 60.2007 89.3879ZM123.366 96.8821C125.828 87.8712 130.321 83.4963 137.895 82.7356C141.918 82.3315 145.399 82.8138 148.042 84.1411C150.592 85.4224 152.163 86.9942 153.303 89.4063C155.097 93.2018 155.319 95.8924 155.077 110.916C154.898 122.058 154.913 122.386 155.682 123.516C156.155 124.213 156.93 124.568 157.976 124.568C159.438 124.568 160.397 123.826 160.775 122.404C160.903 121.925 160.94 118.103 160.908 108.955C160.866 97.1837 160.885 96.0324 161.151 94.3783C162.018 88.9797 164.248 85.698 168.256 83.9251C172.469 82.0609 179.066 82.2082 182.617 84.2459C184.227 85.1693 185.99 86.8484 187.206 88.6168C189.278 91.6283 190.808 96.557 191.529 102.545C192.26 108.619 192.641 121.264 192.259 126.801C191.751 134.172 190.505 139.584 188.122 144.771C185.25 151.02 180.638 155.63 174.784 158.101C169.765 160.219 164.988 161.059 157.952 161.061C153.769 161.062 151.516 160.907 148.595 160.416C141.718 159.26 136.864 157.183 132.626 153.579C131.072 152.258 130.477 151.642 129.296 150.13C124.035 143.391 121.466 133.795 121.459 120.86C121.454 110.406 122.185 101.203 123.366 96.8821ZM276.294 86.5636C278.629 84.3922 281.407 83.1765 285.055 82.7299C287.939 82.377 292.29 82.855 294.623 83.7814C297.926 85.0925 300.598 87.597 302.138 90.8259C304.292 95.3418 305.513 101.772 305.976 111.04C306.309 117.717 306.138 132.329 305.66 138.018C304.762 148.69 302.519 154.759 298.284 157.976C295.423 160.148 292.24 161.073 287.625 161.073C282.185 161.073 278.339 159.629 275.354 156.465C272.253 153.178 270.408 147.22 269.641 138.018C269.16 132.249 268.993 117.743 269.331 110.992C269.625 105.097 270.354 99.2694 271.155 96.4102C272.588 91.2949 273.891 88.799 276.294 86.5636Z" fill="white"/>
</svg>
