<svg width="248" height="91" viewBox="0 0 248 91" fill="none" xmlns="http://www.w3.org/2000/svg">
<path opacity="0.5" fill-rule="evenodd" clip-rule="evenodd" d="M65.7844 2.44633C68.1069 1.07452 70.7642 0.293238 73.8191 0.0839684C80.7016 -0.387442 85.7029 1.17584 89.4958 4.98405C91.4819 6.97817 93.0034 9.49171 94.1818 12.726C95.213 15.5559 95.9217 19.3343 96.2856 23.9418C96.4642 26.2025 96.4372 32.3949 96.2418 34.0377C95.8206 37.5762 95.2065 39.664 94.1579 41.1226C92.8967 42.8772 91.6904 43.6941 89.6273 44.1911C89.0189 44.3377 88.4751 44.381 86.7933 44.417C83.6833 44.4834 82.2979 44.2534 80.6383 43.3951C79.123 42.6113 78.5629 41.8173 77.7681 39.3269C77.4515 38.3351 77.246 37.8407 77.0537 37.6088C76.5606 37.0141 75.8137 36.9521 75.2376 37.4578C74.7993 37.8426 74.6412 38.1432 74.1714 39.4842C73.9411 40.1418 73.5897 40.9986 73.3906 41.3883C72.6404 42.8563 71.3203 43.7799 69.3392 44.2228C68.4689 44.4174 64.9211 44.5077 63.8331 44.3629C60.7363 43.9508 58.6649 42.5249 57.2967 39.8632C56.5824 38.4735 56.1983 37.0526 55.7791 34.248C55.5899 32.9824 55.5757 32.6085 55.5775 28.9455C55.5797 24.2655 55.712 22.4137 56.2953 18.8938C56.9052 15.213 57.6859 12.6724 59.0317 9.98907C60.7879 6.48719 62.8582 4.17469 65.7844 2.44633ZM152.228 2.27381C155.058 1.06637 158.995 0.201665 162.38 0.0442041C166.803 -0.161523 170.613 0.358153 172.692 1.45055C174.177 2.23131 175.351 3.63801 175.759 5.12654C175.831 5.39222 175.915 6.02809 175.944 6.53953C176.058 8.55907 175.382 10.3615 174.102 11.4547C172.618 12.722 171.024 13.2889 168.004 13.6241C165.22 13.933 163.759 14.2284 162.203 14.7966C159.669 15.7217 158.058 16.9384 157.218 18.5619C156.384 20.1711 156.102 22.3703 156.489 24.2517C156.858 26.0522 158.014 27.7047 159.337 28.3234C160.514 28.874 162.106 28.853 162.535 28.2812C162.703 28.0575 162.776 27.5469 162.679 27.2701C162.593 27.0231 162.45 26.9232 161.589 26.5108C160.455 25.9679 160.065 25.6079 159.679 24.7481C159.312 23.9287 159.2 23.3334 159.202 22.2148C159.205 20.9392 159.401 20.0143 159.87 19.0533C160.677 17.4006 162.437 16.2999 164.957 15.8709C166.252 15.6505 169.761 15.6515 170.965 15.8725C173.152 16.2738 174.419 16.94 175.694 18.3582C177.133 19.9597 177.809 22.3932 177.896 26.2886C177.959 29.1399 177.723 31.1937 177.076 33.4259C176.768 34.4894 176.494 35.17 175.872 36.4165C174.885 38.3941 173.755 39.811 172.122 41.1201C169.012 43.6126 165.304 44.7325 160.166 44.7308C156.42 44.7296 153.059 43.9745 150.032 42.4543C147.364 41.1143 144.796 38.8025 143.044 36.1632C142.391 35.1791 141.36 33.1896 140.92 32.0647C138.92 26.9542 138.662 19.6983 140.301 14.6871C141.707 10.3886 144.808 6.5289 148.852 4.04521C149.843 3.4368 151.324 2.65976 152.228 2.27381ZM191.472 1.46091C193.544 0.667408 195.072 0.333621 197.982 0.0386245C198.698 -0.0339955 201.818 0.0712148 202.764 0.199894C208.374 0.963555 213.065 3.54015 216.24 7.60226C217.459 9.16085 218.754 11.5477 219.412 13.4473C221.103 18.3298 221.083 25.6027 219.365 30.586C216.943 37.6078 211.462 42.6211 204.452 44.2243C201.612 44.8737 197.968 44.9046 195.06 44.304C192.859 43.8495 190.224 42.7711 188.361 41.5621C183.38 38.3298 180.083 33.0345 179.128 26.7314C178.688 23.8254 178.687 20.1565 179.126 17.2554C179.805 12.7713 181.719 8.88533 184.761 5.81519C186.649 3.90927 188.912 2.44155 191.472 1.46091ZM2.3932 5.65392C4.09428 2.27559 7.45225 0.404648 12.225 0.17616C15.2326 0.0320718 17.5882 0.425105 19.5832 1.4037C20.6551 1.92949 21.2529 2.35131 22.015 3.11993C23.496 4.61315 24.18 6.06582 24.9391 9.3292C25.6359 12.3244 26.0106 13.2343 26.6838 13.5651C27.107 13.7729 27.5095 13.6574 27.896 13.2172C28.3415 12.7098 28.529 12.1344 29.2202 9.15208C29.8015 6.64447 30.4655 5.07438 31.4855 3.79609C33.5719 1.18106 37.1186 -0.0525039 41.8929 0.17616C45.284 0.338493 47.9135 1.29778 49.7711 3.05014C50.9804 4.19089 51.7527 5.44598 52.4149 7.34659C53.7267 11.1112 54.1877 15.7378 54.0863 24.1189C53.9979 31.4342 53.6621 34.8949 52.7496 37.9C52.0662 40.1508 51.493 41.2088 50.3062 42.4103C49.3728 43.3553 48.6128 43.8151 47.3837 44.1783C46.4447 44.4558 44.2352 44.5293 43.2721 44.3151C42.2348 44.0843 41.4274 43.6345 40.6505 42.8547C39.4506 41.6501 38.8536 40.1284 38.5297 37.4496C38.4061 36.4266 38.4145 33.0443 38.5453 31.1728C38.6421 29.7886 38.6377 29.578 38.5011 29.0474C38.3086 28.2998 37.9892 27.9713 37.455 27.9713C36.9868 27.9713 36.6094 28.2406 36.4031 28.7218C36.3152 28.9267 35.9772 30.2464 35.6517 31.6545C34.5933 36.2342 34.0288 38.0602 32.9956 40.2451C32.4015 41.5014 31.945 42.169 31.248 42.8012C29.136 44.7165 25.2518 44.7845 23.0449 42.9447C22.2902 42.3155 21.7736 41.5957 21.1656 40.3255C20.1202 38.1419 19.5097 36.1999 18.5628 32.0451C17.8423 28.8835 17.8075 28.7503 17.6229 28.4515C17.3002 27.9292 16.5171 27.799 16.052 28.1903C15.6344 28.5418 15.5395 29.0401 15.5878 30.6281C15.6108 31.3831 15.6306 33.2362 15.6318 34.7462C15.6337 37.0151 15.6061 37.6502 15.4729 38.4054C15.1052 40.4897 14.5135 41.8556 13.558 42.8264C12.8231 43.573 12.213 43.9303 11.1549 44.2338C10.3975 44.4511 10.2716 44.4614 8.87578 44.4202C7.71111 44.386 7.25839 44.3358 6.73659 44.183C4.79382 43.6142 3.25012 42.2579 2.23193 40.2253C1.58376 38.9312 0.954446 36.5821 0.633767 34.2591C-0.209599 28.1504 -0.211549 17.2713 0.629692 11.7104C0.944969 9.62597 1.70172 7.02715 2.3932 5.65392ZM99.0183 8.90234C100.381 3.4577 103.328 0.872604 108.772 0.346995C111.558 0.078035 114.202 0.485327 116.192 1.49005C118.916 2.86514 120.423 5.04081 121.192 8.70927C121.6 10.6559 122.007 12.2313 122.218 12.678C122.457 13.1835 122.832 13.5816 123.143 13.6597C123.502 13.7496 123.936 13.5144 124.128 13.1261C124.28 12.8195 124.304 12.4961 124.354 10.082C124.427 6.5351 124.655 5.07261 125.371 3.55981C126.67 0.815216 129.07 -0.256726 132.181 0.518537C134.602 1.12199 135.841 2.58803 136.695 5.85752C137.556 9.15172 137.863 12.6896 137.954 20.3157C138.073 30.3806 137.453 36.0577 135.857 39.5337C134.68 42.095 132.776 43.5554 129.745 44.222C128.836 44.4219 126.01 44.5022 124.935 44.3584C121.401 43.886 119.203 42.1688 117.389 38.4658C116.367 36.377 115.662 34.0139 114.96 30.3181C114.669 28.789 114.551 28.4525 114.215 28.1961C113.872 27.9342 113.378 27.8982 113.053 28.1113C112.936 28.1883 112.768 28.4374 112.68 28.6648C112.497 29.1389 112.487 29.7763 112.605 33.7277C112.716 37.4647 112.419 39.6156 111.531 41.4981C110.864 42.9148 109.464 44.0322 107.959 44.3491C106.883 44.5759 104.893 44.4358 103.833 44.0587C102.555 43.6041 101.342 42.5675 100.533 41.2377C98.5821 38.0294 97.8645 33.003 97.8621 22.5248C97.8607 16.1017 98.1912 12.207 99.0183 8.90234ZM4.82188 51.7011C7.75519 48.7683 12.8225 46.7204 18.1642 46.309C19.6036 46.1982 22.631 46.2695 23.7299 46.4402C27.6595 47.0506 29.8322 48.6049 30.8438 51.5299C31.3883 53.104 31.4638 55.2021 31.0381 56.9341C30.6782 58.3986 29.5617 59.7701 28.1716 60.4555C27.2505 60.9096 26.8752 61.0278 25.2934 61.3617C23.591 61.7211 23.1344 61.8691 22.8506 62.153C22.3684 62.6351 22.3408 63.4276 22.7894 63.9092C23.0207 64.1576 23.7927 64.5619 24.9391 65.0351C28.5519 66.5264 30.4781 68.0989 31.6668 70.5271C32.3997 72.0241 32.7097 73.6677 32.7111 76.0632C32.7129 79.1327 32.0312 81.2337 30.2998 83.4947C29.7147 84.2588 28.3837 85.5774 27.5959 86.1734C25.7229 87.5905 22.8008 88.9705 19.9354 89.791C16.0071 90.9159 10.6908 91.3013 7.22693 90.7124C3.92387 90.1508 1.98899 88.8943 0.829016 86.5577C-0.299516 84.2845 -0.266306 80.6344 0.898271 78.9373C2.06595 77.2359 4.00499 76.234 7.14359 75.7105C8.68287 75.4537 10.1331 75.1249 10.451 74.9605C11.0129 74.67 11.2412 73.9732 10.9544 73.4241C10.7265 72.9879 10.3421 72.7218 8.57854 71.7794C5.57633 70.1753 4.3471 69.1935 3.20015 67.4837C2.79472 66.8794 2.15061 65.5687 1.92398 64.887C1.66291 64.1017 1.42742 62.712 1.33505 61.4125C1.04696 57.3551 2.09978 54.4226 4.82188 51.7011ZM116.956 47.2015C118.488 46.7263 120.568 46.4492 123.906 46.2762C126.201 46.1573 129.694 46.2731 131.788 46.5376C136.399 47.1203 140.505 48.7434 143.694 51.2442C146.627 53.5446 148.821 57.0998 149.72 61.0079C150.254 63.3329 150.474 65.4134 150.474 68.1449C150.474 73.7043 149.391 78.2333 147.256 81.5983C142.908 88.4517 135.422 91.4379 123.817 90.9481C119.109 90.7493 117.104 90.4098 115.227 89.4935C114.604 89.1893 114.32 88.9733 113.581 88.2404C112.755 87.4208 112.652 87.2788 112.198 86.3363C110.967 83.7761 110.352 80.9551 109.951 76.0189C109.674 72.611 109.651 65.4103 109.907 61.8935C110.354 55.7512 111.574 51.3154 113.341 49.4064C114.34 48.3275 115.389 47.6876 116.956 47.2015ZM186.002 47.7357C188.247 46.8833 189.772 46.548 192.674 46.2692C193.409 46.1985 196.431 46.3028 197.367 46.4312C204.621 47.4254 210.176 51.327 213.14 57.5097C214.644 60.6451 215.306 63.908 215.305 68.1643C215.302 75.1652 213.232 80.6805 209.013 84.9259C205.007 88.9574 200.122 90.9562 194.268 90.9588C190.607 90.9604 187.816 90.3098 184.627 88.7112C179.934 86.3587 176.305 81.9695 174.614 76.6008C172.964 71.3629 173.014 64.5874 174.74 59.5466C176.597 54.1256 180.811 49.7062 186.002 47.7357ZM219.399 52.1337C222.225 48.9912 227.634 46.7089 233.19 46.3153C237.198 46.0314 240.251 46.4424 242.532 47.5731C244.049 48.3249 245.35 49.911 245.925 51.709C246.233 52.672 246.325 53.5405 246.273 55.0064C246.206 56.9008 245.933 57.8027 245.096 58.8903C244.111 60.1704 242.813 60.8424 240.319 61.3641C238.648 61.7137 238.19 61.8595 237.876 62.1415C237.37 62.5944 237.363 63.4755 237.86 63.952C238.109 64.1901 238.936 64.6003 240.851 65.4354C243.873 66.7535 245.636 68.3272 246.747 70.6997C247.434 72.1654 247.713 73.7234 247.713 76.1075C247.714 78.5809 247.301 80.2568 246.222 82.1602C245.245 83.8856 243.542 85.6027 241.471 86.9522C240.498 87.5858 238.306 88.6506 236.986 89.1306C231.834 91.0044 225.201 91.5276 220.792 90.4082C218.855 89.9165 217.451 88.9912 216.378 87.4996C215.5 86.2781 215.031 84.6285 215.029 82.7495C215.026 80.6923 215.352 79.6025 216.32 78.4285C217.435 77.0772 219.194 76.2435 221.975 75.7483C224.943 75.2198 225.576 75.0304 225.883 74.5781C226.277 73.9979 226.12 73.3389 225.471 72.8504C225.308 72.7282 224.478 72.2615 223.626 71.8134C220.216 70.0205 218.754 68.6876 217.554 66.2772C216.887 64.9372 216.615 63.9724 216.413 62.2323C215.926 58.0527 216.833 54.9879 219.399 52.1337ZM33.8919 50.3238C35.6932 47.7829 39.7833 46.5932 47.345 46.4108C56.0297 46.2014 61.3974 46.9351 64.1002 48.7011C64.8913 49.2179 65.8893 50.3186 66.3195 51.1485C66.7086 51.8991 67.179 53.3125 67.3187 54.1514C67.7438 56.7032 67.6615 60.6007 67.1396 62.6416C66.7115 64.3154 65.8241 65.5103 64.475 66.2293C63.6857 66.65 63.1662 66.7682 61.8531 66.8261C60.4823 66.8865 60.1235 67.025 59.8321 67.6065C59.6712 67.9275 59.6564 68.1181 59.6708 69.6868C59.6795 70.6367 59.7278 72.1112 59.7782 72.9636C59.8286 73.816 59.897 76.1474 59.9303 78.1444C59.9937 81.9449 59.9636 82.4953 59.6046 84.1223C58.8001 87.767 56.303 89.9153 52.1273 90.555C50.8603 90.7491 47.9276 90.6771 46.8007 90.4242C44.897 89.997 43.6236 89.3846 42.4733 88.3426C41.0158 87.0226 40.2682 85.4574 39.8979 82.9502C39.7734 82.1076 39.7584 81.4706 39.8006 78.8529C39.8281 77.1481 39.896 74.7336 39.9515 73.4873C40.007 72.2409 40.0394 70.4257 40.0234 69.4535C39.9987 67.9458 39.9715 67.6508 39.8383 67.4477C39.5328 66.9822 39.305 66.9067 38.0096 66.8423C37.3477 66.8093 36.607 66.7324 36.3635 66.6714C34.5694 66.2222 33.0957 64.6742 32.5937 62.7117C31.8342 59.7419 31.9165 55.4205 32.7855 52.6389C33.1102 51.5998 33.3642 51.0682 33.8919 50.3238ZM69.4529 54.5429C70.8389 49.4699 73.3686 47.0069 77.6329 46.5786C79.8975 46.3511 81.8573 46.6226 83.3451 47.3699C84.7811 48.0912 85.6655 48.9761 86.3073 50.3341C87.3171 52.4709 87.442 53.9857 87.3059 62.4438C87.2048 68.7163 87.2137 68.9009 87.6462 69.5375C87.9127 69.9296 88.349 70.1296 88.938 70.1296C89.7609 70.1296 90.3008 69.7122 90.5139 68.9115C90.5856 68.6417 90.6069 66.49 90.5885 61.3395C90.5648 54.7127 90.5756 54.0645 90.7252 53.1333C91.2134 50.094 92.4692 48.2464 94.7252 47.2483C97.0975 46.1988 100.811 46.2817 102.811 47.4289C103.717 47.9487 104.709 48.8941 105.394 49.8897C106.561 51.5851 107.422 54.3599 107.828 57.7311C108.239 61.1508 108.454 68.2698 108.239 71.3867C107.953 75.5368 107.251 78.5832 105.91 81.5039C104.293 85.022 101.696 87.6171 98.4004 89.0081C95.5749 90.2006 92.8856 90.6737 88.9244 90.6746C86.5692 90.6753 85.3011 90.5878 83.6564 90.3114C79.785 89.661 77.0524 88.4912 74.6661 86.4626C73.7912 85.7188 73.4563 85.3719 72.7918 84.5208C69.8298 80.7268 68.3832 75.3245 68.3794 68.042C68.3763 62.1565 68.7883 56.9753 69.4529 54.5429ZM155.549 48.7338C156.864 47.5113 158.428 46.8269 160.482 46.5754C162.105 46.3767 164.554 46.6458 165.868 47.1674C167.728 47.9055 169.232 49.3155 170.099 51.1333C171.312 53.6757 171.999 57.2958 172.26 62.5134C172.447 66.2729 172.351 74.4988 172.082 77.7016C171.576 83.7099 170.314 87.1265 167.929 88.9376C166.319 90.1605 164.526 90.6813 161.928 90.6814C158.866 90.6814 156.701 89.8683 155.02 88.087C153.274 86.2367 152.235 82.8825 151.803 77.7016C151.533 74.4539 151.439 66.2872 151.629 62.4867C151.795 59.1677 152.205 55.8869 152.656 54.2772C153.463 51.3974 154.196 49.9922 155.549 48.7338Z" fill="black"/>
</svg>
