<?xml version="1.0" encoding="UTF-8" standalone="no"?>
<svg width="25px" height="20px" viewBox="0 0 25 20" version="1.1" xmlns="http://www.w3.org/2000/svg" xmlns:xlink="http://www.w3.org/1999/xlink" xmlns:sketch="http://www.bohemiancoding.com/sketch/ns">
    <!-- Generator: Sketch 3.3.2 (12043) - http://www.bohemiancoding.com/sketch -->
    <title>icon_twitter</title>
    <desc>Created with Sketch.</desc>
    <defs></defs>
    <g id="Page-1" stroke="none" stroke-width="1" fill="none" fill-rule="evenodd" sketch:type="MSPage">
        <path d="M24.1156069,2.72165103 C23.2326447,3.10610882 22.2835634,3.36583008 21.2876815,3.48267545 C22.3042041,2.88454942 23.0850444,1.93742153 23.4526051,0.808783391 C22.5011239,1.36273682 21.4474017,1.76486283 20.325761,1.98159276 C19.4276785,1.04223789 18.1479968,0.455420453 16.7317545,0.455420453 C14.0125506,0.455420453 11.8077869,2.61929268 11.8077869,5.28835665 C11.8077869,5.66716083 11.8513466,6.03607119 11.9353467,6.38978714 C7.84309913,6.188253 4.21501372,4.26407677 1.78644972,1.34000426 C1.36260907,2.05379577 1.11972832,2.88396153 1.11972832,3.76972386 C1.11972832,5.44654507 1.98901034,6.92583747 3.31021142,7.79251681 C2.50309095,7.76742858 1.74385001,7.54999264 1.08000852,7.18803253 C1.07944877,7.20817317 1.07944877,7.22843194 1.07944877,7.2488102 C1.07944877,9.59042498 2.77673271,11.5436934 5.0292556,11.987988 C4.61609497,12.0984723 4.18109432,12.1574836 3.73205237,12.1574836 C3.41477256,12.1574836 3.10637317,12.1270948 2.80565215,12.0707922 C3.43229271,13.990845 5.25065598,15.3881573 7.4053795,15.4270265 C5.72021694,16.7233953 3.59717381,17.4960813 1.29016914,17.4960813 C0.892727657,17.4960813 0.500808102,17.4731125 0.115606936,17.4284701 C2.29469074,18.7998701 4.88285461,19.6 7.66349942,19.6 C16.7202741,19.6 21.6730422,12.2355779 21.6730422,5.84867108 C21.6730422,5.63912766 21.6682424,5.43076139 21.658763,5.22333877 C22.6206835,4.54205551 23.4554052,3.69092222 24.1155272,2.72165103 L24.1156069,2.72165103 Z" id="icon_twitter" fill="#3A3A3A" sketch:type="MSShapeGroup"></path>
    </g>
</svg>