<?xml version="1.0" encoding="UTF-8" standalone="no"?>
<svg width="24px" height="24px" viewBox="0 0 24 24" version="1.1" xmlns="http://www.w3.org/2000/svg" xmlns:xlink="http://www.w3.org/1999/xlink" xmlns:sketch="http://www.bohemiancoding.com/sketch/ns">
    <!-- Generator: Sketch 3.3.2 (12043) - http://www.bohemiancoding.com/sketch -->
    <title>icon_instagram</title>
    <desc>Created with Sketch.</desc>
    <defs></defs>
    <g id="Page-1" stroke="none" stroke-width="1" fill="none" fill-rule="evenodd" sketch:type="MSPage">
        <path d="M1.43233613,0 C0.641344538,0 0,0.641344538 0,1.43233613 L0,22.5676639 C0,23.3586555 0.641344538,24 1.43233613,24 L22.5676639,24 C23.3586555,24 24,23.3586555 24,22.5676639 L24,1.43233613 C24,0.641344538 23.3586555,0 22.5676639,0 L1.43233613,0 Z M8.93687395,9.22084034 C9.68672269,8.37136134 10.7802353,7.83166387 12,7.83166387 C13.218958,7.83166387 14.3124706,8.37136134 15.0627227,9.22084034 C15.6988235,9.94205042 16.0880672,10.8851092 16.0880672,11.9197311 C16.0880672,14.1737143 14.2539832,16.0077983 12,16.0077983 C9.74561345,16.0077983 7.91152941,14.1737143 7.91152941,11.9197311 C7.91152941,10.8855126 8.30077311,9.94205042 8.93687395,9.22084034 L8.93687395,9.22084034 Z M21.4737479,21.4737479 L2.5262521,21.4737479 L2.5262521,9.22084034 L5.96692437,9.22084034 C5.59663866,10.046521 5.38527731,10.9581176 5.38527731,11.9197311 C5.38527731,15.5673277 8.35280672,18.5340504 12,18.5340504 C15.6471933,18.5340504 18.6143193,15.5673277 18.6143193,11.9197311 C18.6143193,10.9581176 18.402958,10.0461176 18.0326723,9.22084034 L21.4737479,9.22084034 L21.4737479,21.4737479 L21.4737479,21.4737479 Z M20.3205378,6.33882353 L18.8143866,6.33882353 C18.177479,6.33882353 17.6611765,5.82292437 17.6611765,5.18642017 L17.6611765,3.67905882 C17.6611765,3.04255462 18.177479,2.52665546 18.8143866,2.52665546 L20.3205378,2.52665546 C20.9574454,2.52665546 21.4737479,3.04255462 21.4737479,3.67905882 L21.4737479,5.18642017 C21.4737479,5.82292437 20.9574454,6.33882353 20.3205378,6.33882353 Z" id="icon_instagram" fill="#3A3A3A" sketch:type="MSShapeGroup"></path>
    </g>
</svg>