<?xml version="1.0" encoding="utf-8"?>
<!-- Generator: Adobe Illustrator 18.0.0, SVG Export Plug-In . SVG Version: 6.00 Build 0)  -->
<!DOCTYPE svg PUBLIC "-//W3C//DTD SVG 1.1//EN" "http://www.w3.org/Graphics/SVG/1.1/DTD/svg11.dtd">
<svg version="1.1" id="Layer_1" xmlns="http://www.w3.org/2000/svg" xmlns:xlink="http://www.w3.org/1999/xlink" x="0px" y="0px"
	 viewBox="0 0 191.7 191.7" enable-background="new 0 0 191.7 191.7" xml:space="preserve">
<g>
	<path fill="#56B2E4" d="M163.2,98.7c-0.7-0.6-1.7-1-2.4-1.6c-1.6-1.4-3.4-1.6-5.6-1.3c-0.2-0.9-0.5-1.8-0.5-2.8
		c-0.1-2.4-0.2-4.7-0.2-7.1c0-1.6-1.1-2.9-1.5-4.3c-0.4-1.4-0.9-2.3-2.4-2.7c-0.3-0.1-0.5-0.7-0.8-1c-0.2-0.3-0.3-0.6-0.5-0.9
		c-0.6-1.4-3.1-1.5-2.5-3.6c0.4-1.4-0.1-2.6-0.5-3.8c-0.1-0.2,0-0.4,0-0.6c-0.2-3.1-0.1-6.2-1.4-9.2c-1.1-2.8-2.1-5.6-1.4-8.7
		c0.1-0.5-0.1-1.2-0.4-1.7c-1.4-2.3-2.9-4.5-4.5-7.1c0.4-0.4,1-1,1.6-1.6c0.3-0.3,0.6-0.7,0.6-1c0.1-2,0.3-4,0.1-6
		c-0.2-2.9-1-3.5-3.6-2.3c0.1-1,0.2-1.9,0.2-2.8c0.2-3.4,2.4-6.8,0.5-10.4c-0.6,0.3-1.2,0.7-1.2,1c0-1.9,0-3.8,0-6.2
		c-2,0.6-2.1,0.9-2.6,1.3c-0.4,0.3-1.2,0.8-1.7,0.8c-1.3,0.2-1.8,1-2.1,2.1c-0.2,0.9-0.6,1.8-0.8,2.6c-0.4,1.7-0.9,3.4-1.2,5.2
		c-0.3,1.6-0.5,3.3-0.8,5c-1.6-0.7-1.6-1.7-1.2-3c1-3.5,2.2-6.9,1.4-11.1c-0.8,0.5-1.6,0.8-2,1.3c-0.6,0.8-1,1.8-1.4,2.7
		c-0.9,2.1-1.7,4.3-2.5,6.4c-0.2,0-0.3,0-0.5,0c0-0.5-0.2-1,0-1.4c0.7-2.6,1.6-5.1,2.1-7.6c0.2-1-0.2-2.2-0.3-3.6
		c-0.8,0.5-1.2,0.8-1.6,1.1c-1.6,1.2-1.1,3.1-1.5,4.7c-0.4,1.5-0.6,3-0.9,4.6c-0.8-0.3-1.3-0.6-1.9-0.9c0.2-0.7,0.4-1.4,0.6-2
		c0.5-2.1,1.4-4.2,0.8-6.5c-0.1-0.4-0.1-0.9-0.2-1.3c-0.6,0.2-1.3,0.2-1.7,0.6c-0.5,0.6-0.7,1.4-1,2.2c-0.5,1.7-1,3.4-1.6,5
		c-0.1,0.3-0.6,0.4-0.9,0.5c-0.6-1.2-2.3-1.7-2.1-3.5c0.1-0.9-0.1-2.1-0.6-2.7c-0.5-0.6-1.6-0.7-2.6-1.1c0.2-0.5,0.6-1.2,0.6-2
		c0-1-0.3-2-0.5-3.1c-0.8,0.5-1.9,0.8-2.3,1.5c-1.6,2.6-2.9,5.3-4.4,8.2c-0.5-0.1-1.1-0.2-2-0.4c0.7-2.2,1.5-4.3,2.1-6.4
		c0.3-1.1,0.5-2.2,0.5-3.3c0-0.6-0.5-1.7-0.6-1.6c-0.8,0.1-1.8,0.2-2.3,0.8c-1.3,1.5-2.6,3.2-3.7,4.9c-1.2,1.9-2.1,3.9-3.2,5.9
		c-1.9,0.1-1.3-1.3-1.4-2.2c-0.2-2-1.2-2.7-2.9-1.6c-1.7,1.1-3.5,2.3-4.7,3.9c-2.2,3-4.8,4.7-8.7,4c-0.2,0-0.6,0.2-0.8,0.4
		c-1,0.7-2,1.5-3,2.2c-0.6,0.4-1.3,0.8-1.8,1.2c-2.1,1.6-4.1,3.3-6.3,4.7c-1.7,1.1-3.7,1.1-5.1,3.3c-1.4,2.4-3.9,4.1-5.9,6.1
		c-2,2-4.1,4-5.9,6.1c-2.3,2.6-4.2,5.5-4.6,9.1c-0.3,2.4-0.7,4.7-2.2,6.7c-1.5,1.8-1.9,4.4-4.5,5.5C33.2,69,32.2,70,31.2,71
		c-3.6,3.7-7.2,7.4-10.6,11.3c-0.7,0.8-0.7,2.7-0.2,3.7c0.7,1.2,1.3,2.3,1.4,3.7c0.2,1.5,0.5,2.8,1.7,3.9c0.3,0.2,0.2,0.9,0.3,1.3
		c0.2,0.8,0.3,1.6,0.6,2.8c-0.9,0.8-2.4,1.6-1.9,3.6c0,0.2-0.3,0.6-0.5,0.8c-1.2,1-0.9,2.3-0.5,3.6c0.4,1.2,0.8,2.5,0.9,3.8
		c0.2,2.3,0,4.7,0.2,7c0.2,1.6,0.7,3.1,1.1,4.6c0.7,2.3,0.6,5.2,3.7,6.1c0.2,0.1,0.3,0.4,0.4,0.6c0.7,1.1,1.3,2.3,1.9,3.4
		c-1.1,1.6-1.1,1.6-0.3,3.4c0.5,1.1,1.4,2.1,1.6,3.3c0.4,2.5,1,5.2,0.5,7.6c-1,4.7-1.3,9.6-3.9,13.9c0,0,0,0.1,0,0.2
		c0.1,1.2-0.6,1.7-1.6,2.3c-0.6,0.4-1.5,1.6-1.3,2c1.2,2.2-0.1,4.3-0.1,6.5c0,1.6-0.5,3.1-0.6,4.7c-0.1,1,0.1,2,0.2,3
		c0.2,1.1,0.3,2.3,0.6,3.4c0.2,0.9,0.5,1.9,1,2.7c0.3,0.3,1.3,0.3,1.9,0.1c0.3-0.1,0.6-0.9,0.6-1.4c-0.2-1.4-0.8-2.8-0.7-4.2
		c0.1-2.2,0.7-4.4,1.1-6.6c0.1-0.3-0.1-0.7-0.2-1.1c-0.6-2.4-0.7-4.7,0.9-6.8c1.1-1.4,2.3-2.9,2.8-4.5c0.5-1.6,0.6-3.3,1.2-5
		c1-2.7,1.3-5.6,1.8-8.4c0.5-3.2,0.7-6.5-0.4-9.9c0.8,0.5,1.3,0.8,1.8,1.2c1.9,1.3,3.3,3.1,3.8,5.3c0.3,1.1,0.8,1.7,1.8,2
		c1.7,0.5,3.6,1.6,5.2,1.4c2.8-0.4,3.1,2.8,5.3,2.9c0.2,0,0.3,0.6,0.5,1c0.5,1,1,2,1.6,3c1.7,2.9,3.9,5.7,5.2,8.8
		c1,2.2,2,4.2,3.4,6.2c1.9,2.7,3.2,5.9,4.5,9c0.5,1.2,1.4,1.8,2.2,2.6c0.5,0.4,1.1,0.8,1.6,1.2c1.4,1,2.8,1.9,4.1,2.9
		c0.2,0.1,0.4,0.2,0.5,0.3c2.9,2.7,6.4,3.5,10.2,3.2c0.6,0,1.3,0.3,2,0.4c0.5,0.1,0.9,0.3,1.4,0.3c1.5-0.2,3.2-0.2,4.6-0.7
		c2.2-0.7,4.4-1.5,6.2-2.8c1.9-1.3,3.1-3.6,5.1-4.8c3.3-2.2,5.2-5.6,7.1-8.8c2.5-4.2,5.6-7.8,8.5-11.6c0.1-0.2,0.4-0.3,0.3-0.3
		c0.9,0.5,1.7,0.9,2.4,1.3c0.8,0.5,1.9,0.9,2.3,1.7c1,1.8,2.5,2.9,4.4,3.3c1.1,0.2,2.3,0,3.5,0.2c0.9,0.1,1.5-0.1,2-0.9
		c1.1-2,2.6-3.5,5.1-3.7c0.4,0,0.9-0.7,1.2-1.1c1-2.1,1.7-4.3,2.8-6.3c0.5-0.9,1.5-1.4,2.4-2c0.7-0.5,1.8-0.5,2.4-1.1
		c0.9-0.8,1.4-1.9,2.2-2.8c1-1,2.2-1.9,3.2-2.9c1.5-1.4,1.4-2.9-0.3-4.3c-0.2-0.2-0.6-0.6-0.5-0.6c1.1-1.5,0.2-3.1,0.3-4.7
		c0.4-3.6,0.5-7.2,0.7-10.7c0.2-2.3,0.3-4.6,0.6-6.9c0.1-0.7,0.4-1.5,0.9-2c1-1,1.4-1.9,0.9-3.3c-0.3-0.9,0.1-2.1-0.2-3
		c-0.3-1-1-1.9-1.7-3.2c1.4-0.1,2.6-0.4,3.7-0.3c1.5,0,3.4-0.8,3.9-2C164.5,101.7,164.2,99.5,163.2,98.7z M148.7,84.3
		c2.9,2.2,1.2,5.4,2.6,8c-2,0.1-2.5-1.1-2.6-2.2C148.6,88.2,148.7,86.4,148.7,84.3z M135.4,34c0.1,1.6,0.2,3.2,0.3,4.9
		C134.3,37.3,135.6,35.6,135.4,34z M134.2,42.5c1.5,2,3.5,3.5,4.1,6.3c0.3,1.6,1.6,3,2.1,4.7c0.6,2.1,0.8,4.3,1.1,6.4
		c0.4,2.5,0,5,1.2,7.4c0.3,0.6-0.1,1.6,0,2.4c0.1,1.3,0.3,2.6,0.5,4c-1.1-0.2-2.1-0.4-2.5-1.7c-0.1-0.3-0.3-0.7-0.5-0.7
		c-1.7-0.4-1.6-1.7-1.9-3c-0.2-1.1-0.7-2.1-1-3.2c-0.3-1.1-0.5-2.3-0.5-3.5c-0.1-2.1,0.3-4.3,0-6.4c-0.3-1.9-1.3-3.7-1.8-5.6
		c-0.6-2.3-1-4.6-1.5-6.9C133.8,42.7,134,42.6,134.2,42.5z M130.1,31.6c0.5-2.6,1.1-5.3,1.7-7.9c0.1,0,0.3,0.1,0.4,0.1
		c-0.4,3.1-0.8,6.1-1.1,9.2c-0.1,0-0.3,0-0.4,0C130.5,32.6,130.1,32.1,130.1,31.6z M128.9,41.1c1.8,3.4-0.2,6.3-0.9,9.4
		C127.4,47.3,128.5,44.2,128.9,41.1z M124.9,35c1.5,3.1-0.2,5.6-1.1,8.2c-0.1,0-0.3,0-0.4-0.1C123.9,40.5,124.4,37.8,124.9,35z
		 M123.4,32.5c-0.3,4-1,7.5-2.2,11.1C120.2,40.7,121.4,34.3,123.4,32.5z M121.1,73.1c-1.3-1.6-0.6-4.3-3.5-4.7
		C119.8,67.7,121.4,70.1,121.1,73.1z M116.2,28c1.8,0.8,1.3,4.2-1.1,6.1C115.4,32.1,115.8,30.1,116.2,28z M115.1,44.4
		c-0.7,0.5-1.5,0.7-1.8,1.3c-0.2,0.6,0.1,1.4,0.2,2.1c0,0.5,0,1-0.2,1.5c-1.9-4-2.3-8.1-2-12.4c0.1-0.1,0.3-0.1,0.4-0.2
		C112.8,39.3,114,41.9,115.1,44.4z M113.7,56.3c-0.2,0-0.4,0.1-0.6,0.1c-0.3-1.6-0.6-3.1-0.8-4.7c0.2,0,0.5-0.1,0.7-0.1
		C113.2,53.1,113.4,54.7,113.7,56.3z M109.8,26.8c1,0.1,1.3,0.1,2.2,0.2c-0.6,1.8-1.2,3.5-1.8,5.2c-0.2,0,0.5-0.1-0.5-0.1
		C109.8,30.3,109.8,28.6,109.8,26.8z M105.2,23.1c0.9,0.8,2.1,1.3,2.4,2.2c0.3,0.7-0.4,1.8-0.7,2.8c-0.1,0.5-0.3,1-0.3,1.4
		c0,0.8,0.1,1.6,0.2,2.4c-0.2,0.1-0.3,0.1-0.5,0.2c-0.6-1.6-0.3-3.9-2.9-4.2C104,26.4,104.5,25,105.2,23.1z M102.2,30.9
		c-0.4,1.8-0.8,3.4-1.3,5.4C100,33.2,100.3,31.7,102.2,30.9z M98.8,11.8c0.2,0.1,0.4,0.1,0.6,0.2c-0.4,1.7-0.7,3.4-1.2,5.1
		c-0.6,1.9-0.9,2.1-3.5,1.8C96.2,16.4,97.5,14.1,98.8,11.8z M99.2,24.7c-0.9,1.4-1.9,2.7-2.8,4.1c-0.2-0.1-0.3-0.2-0.5-0.3
		c0.9-1.4,0.3-3.9,2.8-4.2C98.8,24.4,99,24.6,99.2,24.7z M96.6,34.1c0.6-0.9,1-1.9,1.4-2.8c0.1,0,0.3,0,0.4,0.1
		c0.1,2.6,0.4,5.1,0.2,7.7c-0.3,2.8-1,5.6-1.5,8.5c-0.1,0.5,0.2,1.4,0.6,1.6c0.6,0.3,1.5,0.3,2.1,0c0.5-0.2,1-1.1,0.9-1.6
		c-0.3-3.8,1.1-7.2,1.9-10.7c0.4-1.5,0.8-3,1.2-4.5c5.1,7,3.8,14.9,4.6,22.6c-0.4,0-0.6,0-0.8,0c-2.2-0.4-4.5-0.8-6.7-1.1
		c-0.7-0.1-1.5,0.4-2.2,0.4c-1.4-0.1-2.8-0.4-4.3-0.5c-1.9-0.2-3.7-0.3-5.6-0.4c-2.3-0.1-3.9-1.4-5.4-2.8c-1.4-1.2-3-2.3-4.1-3.7
		c-1.8-2.3-4-2.1-6.4-2c-1,0-2-0.4-3.1-0.7c1.1-1.8,1.8-3.8,3.2-5c0.9-0.8,2.7-0.7,4.1-0.7c0.8,0,1.5,0.7,2.4,1.1
		c-0.3,0.6-0.5,1.1-0.8,1.6c-0.7,1.1-0.6,1.9,0.9,2.2c0.7,0.2,1.2,0.3,1.6,1.2c0.5,1.3,2.2,1,3-0.2c1-1.7,2.2-3.4,3.2-5.1
		c0.3,0.1,0.5,0.2,0.8,0.3c-0.3,1.6-0.5,3.2-1,4.6c-0.3,0.9-0.5,1.4,0.5,1.9c1,0.5,1.7,0.2,2.2-0.6c0.4-0.6,0.6-1.4,1-2.1
		c0.2-0.3,0.2-0.8,0.5-1C94.6,40.7,94.8,36.9,96.6,34.1z M90.9,25.4c0.1,0,0.2,0.1,0.4,0.1c0,0.6,0.1,1.1,0,1.6
		c-0.3,1-0.5,2.2-1.1,3c-2.3,2.9-3.4,6.3-5.1,9.5c-0.4,0.7-1,1.4-1.5,2c-0.1-0.1-0.2-0.1-0.3-0.2C85.7,36.2,88.3,30.8,90.9,25.4z
		 M87.9,18.1c0.2,2.6-0.7,3.4-3.8,3.6C85.5,20.4,86.6,19.3,87.9,18.1z M79.9,27.4c0.2-0.3,0.5-0.5,0.7-0.6c1.6-0.4,3.2-0.7,5.3-1.2
		c-1.7,4.4-3.2,8.3-4.6,11.8c-2.2-0.8-4-1.5-6-2.2C76.8,32.7,78.4,30,79.9,27.4z M75.6,29.1c-0.7,4-3.9,6.1-6.7,8.6
		C70.3,33.6,73.8,29.3,75.6,29.1z M64,56.9c1.7-1.3,1.8-2.7,1.2-4.5c-0.9-2.7,1.1-5.2,3.9-4.7c1.7,0.3,3.6,0.2,5.2,0.8
		c1.5,0.5,2.9,1.5,4.1,2.6c1.5,1.3,2.6,2.9,4.1,4.3c0.5,0.4,1.4,0.5,2.1,0.6c2.3,0.5,4.7,1,7.1,1.4c1.6,0.2,3.5-0.2,4.9,0.5
		c2.1,1,4.1,0.1,6.1,0.2c4.1,0.2,5.8,1.3,6.3,5.6c0.3,2.9,1.8,5.4,4.7,6.9c1.5,0.8,2.9,2.2,3.9,3.6c1.6,2.4,2.9,5,4.2,7.6
		c0.4,0.9,0.5,2,0.8,3.2c-0.9-0.3-1.7-0.6-2.5-0.9c-1.2-0.4-2.2,0.1-3.4,0.4c-1.3,0.3-2.8-0.3-4.2-0.5c-0.2,0-0.4-0.1-0.6-0.2
		c-2.9-1.7-5.2-0.8-8.1,0.6c-2.8,1.3-3.8,2.5-3.1,5.5c0.2,1-0.6,2.4-2.1,2.4c-1.8,0-2.2,1.1-2.5,2.5c1.2,0.9,2.3,0.7,3.3-0.1
		c2.3-1.9,4.7-3.6,7.6-4.4c1.1-0.3,2.2-1,3.2,0.2c1.3-1.6,3.7-1.4,6.2-0.3c0.5,0.2,0.9,0.6,1.4,0.9c1.1,0.6,2.1,0.6,2.9-0.5
		c0.9-1.2,1.6-2.6,2.4-3.9c0.6,1.1,1.3,2.2,1.7,3.4c0.4,1.1,1.3,1.3,2.1,1.1c0.8-0.2,1.7-0.8,2.2-1.6c0.8-1.3-0.2-2.5-0.7-3.8
		c-0.9-2.7-1.7-5.4-2.6-8.1c-0.2-0.7-0.5-1.4,0.3-2c0.3-0.2,0.2-1.1,0.1-1.7c-0.5-2.3-1.1-4.5-1.5-6.8c-0.6-3-1.2-6.1-1.7-9.2
		c-0.1-0.9,0.1-1.9,0.6-2.7c0.7-1.2,0.7-2,0-3.3c-0.8-1.5-1.1-3.3-1.6-4.9c1-0.2,2-0.1,2.6-0.6c0.6-0.5,0.9-1.5,1.3-2.3
		c0.4-1,0.8-2,1.5-2.9c-0.2,1.7-0.3,3.4-0.6,5.1c-0.2,1.4-0.6,2.9-0.7,4.3c0,0.8,0.2,1.8,0.7,2.5c0.7,1.1,2.3,1,2.9-0.2
		c0.7-1.5,1.1-3.1,1.8-4.8c0.9,3,2,5.7,2.5,8.5c0.5,3.2,0.3,6.4,0.5,9.6c0.1,1.2,0.6,2.5,0.7,3.7c0.2,1.4,0.2,2.8,0.4,4.5
		c0.1,0.2,0.5,0.7,0.8,1.3c0.7,1.5,2.3,1.7,3.5,1.7c2.6,0.1,4.7,2,4.7,4.5c0,2.3,0.2,4.5,0.5,6.8c0.1,1.3-0.4,1.9-1.7,1.7
		c-1.5-0.2-4.7,1.3-5.2,2.6c-0.3,0.9-0.3,2-0.5,3c-0.3,2.4-1.1,4.9-0.9,7.2c0.2,2.7-1.3,4.9-1.5,7.5c0,0.5-0.5,0.9-0.8,1.4
		c-0.1-0.2-0.2-0.4-0.3-0.7c-0.9-0.4-1.7-0.8-2.6-1.1c-0.1-0.1-0.4,0-0.5,0c-0.6-2-2.4-2.1-4-2.6c-0.8-0.2-1.7,0-2.6-0.1
		c-0.9-0.1-1.9,0-2.6-0.3c-2.1-1.1-4.2-2.1-6.1-3.6c-2.4-1.9-5.4-2.1-8.1-3.3c-1.5-0.7-3.6-0.2-5.4,0c-1.8,0.2-3.5,0.7-5,2.3
		c-0.9,1-2.7,1.3-4,1.9c-0.6,0.3-1.3,0.4-1.9,0.6c-1.1,0.5-1.9,0.3-2.6-0.7c-1.5-2.4-3.5-4.1-6.4-4.7c-1.9-0.4-3.6-1.5-5.4-2.2
		c-0.4-0.2-1,0.2-1.5,0.1c-2.6-0.6-5.2-0.3-7.7,0.8c-1.2,0.5-2.7,0.5-4.1,0.7c-1.5,0.2-2.6,0.8-2.8,2.4c0,0.2-0.3,0.6-0.5,0.7
		c-1.8,0.3-3.6,0.6-5.8,1c0.6-3.6-1-6-2.7-8.4c-0.7-0.9-1.1-2-1.7-2.9c-0.4-0.5-1-1-1.6-1.2c-1.9-0.6-3.2-4-2.7-5.7
		c0.1-0.3,0.2-0.5,0.2-0.8c0.1-2.5,0.1-2.6,1.3-3.7c0.3-1.1,0.6-1.7,0.5-2.4c-0.1-0.7-0.4-1.4-0.7-2.1c-0.3-0.6-0.7-1.2-1.2-2.1
		c5.3,0.5,8.3-2.6,11.5-5.2c1.1-0.9,2.7-1,3.1-2.8c0.5-2.1,1.2-4.1,1.9-6C62.6,58.7,63.1,57.5,64,56.9z M106.9,138
		c-0.7-0.8-2.3-0.8-3.7-1.2c-0.4-2.2-1.1-2.5-4.7-1.6c-0.6-4.1-1.4-8.2-0.8-12.6c-1.6-1-1.2-2.6-0.8-4.3c0.4,0.7,0.7,1.5,1.3,2.1
		c1.1,1.3,2.3,2.5,3.5,3.6c0.2,0.2,0.7,0.3,1.1,0.3c3.1,0,6.1,0.2,9.2,0c2-0.1,3.9-0.7,5.8-1.3c0.7-0.3,1.2-1.4,1.7-2.1
		c0.4-0.6,0.8-1.3,1.3-1.8c1.2-1,0.9-1.8-0.2-2.6c-2.3-1.8-4.5-3.8-6.8-5.6c-0.6-0.5-1.5-0.8-2.2-0.9c-1.6-0.4-3.3-0.5-4.9-0.9
		c-1.5-0.4-2.7-0.1-4,0.7c-0.4,0.2-0.8,0.4-1.2,0.4c-2-0.1-3.6,0.5-4,2.3c-1-0.7-1.8-1.5-2.7-2c-1.1-0.5-1.3-0.8-0.2-1.6
		c1.9-1.4,3.6-3.1,6.1-3.4c0.8-0.1,1.6-1.3,2.3-1.2c2.3,0.2,4.8-0.2,7,1c2.2,1.2,4.4,2.4,6.3,4c0.2,0.2,0.6,0.6,0.8,0.5
		c2.1-0.4,3.1,1.4,4.7,2c1.3,0.5,2.7,1,4,0.9c1.8-0.2,2.8,0.7,4,2.2c-1.3,0.8-2.5,1.7-3.9,2.3c-1.1,0.5-1.7,1-1.8,2.3
		c-0.3,3.8-0.8,7.5-1,11.3c-0.2,3.5-1.3,6.6-2.7,9.8c-1.5,3.4-4.5,5-7.3,6.6c-1.7,1-4.3,1.5-6.2-0.6c0.4-1.6,1.1-3.3,1.2-4.9
		C108,140.5,107.7,138.9,106.9,138z M56.6,115.4c-0.4-1.8-1.1-3.5-1.7-5c2.8-1.9,5.6-3.7,8.5-5.6c1.7,1.8,1.4,3.9,0.7,5.7
		c-0.7,1.7,0.5,2.6,1.3,2.9c2.6,0.8,5.2,2.3,8,0.8c0.3-0.1,0.7-0.2,0.9-0.2c2.4,0.5,3.8-0.9,5.2-2.6c1.2-1.3,0.6-2.7,1-4
		c0.2-0.7,0.6-1.4,0.9-2.1c0.6,0.8,1.8,1.6,1.7,2.3c-0.2,3.2-0.8,6.4-1.3,9.5c0,0.3-0.1,0.5-0.2,0.8c-1.3,2.4-1.7,5-1.5,7.7
		c0.1,1.2-0.1,2.2-1.1,3.2c-0.5,0.6-0.4,1.8-0.5,2.8c0,0.9,0.6,2.1-1.3,1.5c-0.6-0.2-1.5,0.4-2.2,0.7c0.5,0.8-0.1,2.5-1,2.6
		c-2.4,0.2-2.2,2.2-2.5,3.6c-0.2,1.3-0.7,1.6-1.8,1.4c-2.6-0.5-4.4-1.9-5.8-4.2c-0.7-1.2-1.8-2.1-2.4-3.2c-0.8-1.6-1.5-3.3-2.1-5
		c-0.5-1.6-0.8-3.2-1.2-4.8c-0.1-0.4-0.3-0.8-0.3-1.1C58.8,120.4,57.2,118,56.6,115.4z M75.8,102.5c-1.5-0.1-3.1-0.2-4.6-0.3
		c0-0.2,0-0.5,0-0.7c1.5,0.1,3,0.3,4.5,0.4C75.8,102.1,75.8,102.3,75.8,102.5z M76.5,105c0.4,0.3,0.4,1.2,0.6,1.8
		c-0.2,0-0.3,0-0.5,0c-0.7-0.7-1.5-1.3-2.2-2c0-0.1,0.1-0.3,0.1-0.4C75.2,104.6,76,104.6,76.5,105z M72.9,104.3
		c-1.6,2.1-1.4,4.3,0.8,5.9c-2,0.1-3.7,1.7-5.6,0.1c-1.5-1.3-1.6-3.6,0.2-4.5C69.8,105.1,71.4,104.8,72.9,104.3z M83.4,123.4
		c0.7-2,1.1-4.1,1.7-6.1c0.2-0.7,0.6-1.3,1-2.3c0.6,2.1,0.2,3.6-0.6,5.1c-0.6,1.1-0.7,2.1-0.8,3.4c-0.2,2.4,0.1,5.1-1.6,7.4
		C82.1,128.1,82.6,125.8,83.4,123.4z M72.8,145.3c0.1-1.7,1.9-1.8,3.2-2.3c1.1-0.4,2.6,0.1,3.2-1.4c0-0.1,1,0.1,1.4,0.3
		c1.1,0.7,3.3,0.6,4-0.4c1.2-1.7,2.4-3.4,3.5-5.2c0.9-1.4,0.3-2.5-1.4-2.8c-0.4-0.1-0.9-0.1-1.4-0.2c0.5-1.6,0.9-3.2,1.4-4.8
		c0.6-2,0.9-4.1,1.7-6c1-2.3,0-4.7,0.8-6.9c0.2-0.6,0.8-1.7,1.1-1.6c0.9,0.1,2,0.5,2.1,1.7c0.3,3.6,1.8,6.9,1.5,10.6
		c-0.1,1.5,0.7,3.1,1,4.7c0.2,0.8,0.3,1.6,0.5,2.4c0.3,1.3,0.4,2.4-1.3,2.8c-0.4,0.1-0.7,0.9-0.9,1.4c-0.6,1.6-0.8,3.2,0.3,4.6
		c1.1,1.3,2.6,1.6,4.3,0.9c0.3-0.1,1,0.1,1.2,0.4c0.9,1.1,1.6,2.2,2.7,3.7c-0.8-0.2-1.4-0.2-1.6-0.5c-0.9-1.1-2.1-1.2-3.4-1.4
		c-1.5-0.3-2.2,0.3-3.1,1.1c-1.4,1.3-2.9,2.5-4,3.4c-3.1-1.3-4.3-4.1-7.1-5c-2.7-0.8-4.3,0.1-4.9,2.8c-0.5,2.3-1.2,4.5-4.3,4.2
		c0,0-0.2-0.1-0.2-0.1C73,149.7,72.7,147.5,72.8,145.3z M101.4,140.2c0.7,1.1,1.4,2.3,2.1,3.4C101.2,142.3,100.6,141,101.4,140.2z
		 M100.8,114.5c0.6-0.6,1.3-1.1,1.7-1.8c0.8-1.1,4.6-1.2,5.3-0.6c0.2,0.2,0.2,0.7,0.2,1c0,1-0.2,2.1-0.1,3.1
		c0.1,1.3,1.3,1.7,2.3,1.9c0.9,0.2,1.6-0.2,2-1.2c0.2-0.6,0.7-1.1,1.1-1.7c1.1,0.8,2.5,1.1,2.2,2.8c-0.4,2.1-1.4,3-3.3,2.9
		c-2.6,0-5.1-0.1-7.6-0.2c-3.3-0.1-4.5-1.8-3.7-5C101,115.4,100.8,114.9,100.8,114.5z M46.2,94.8c2.9,2,3.9,4.7,3.7,8.1
		c-1.3-0.1-2.3-0.2-3.6-0.2C46.4,100.1,45.5,97.5,46.2,94.8z M63.1,44.8c-0.8,1.4-1.4,2.5-2,3.5c-1,2.1-2.1,4.3-2.9,6.5
		c-0.5,1.3-1.4,1.6-3.1,1.4C57.1,51.9,58.7,47.7,63.1,44.8z M45.5,60.9c0.1-2.4,1.1-4.6,2.9-6.4c0.6-0.6,0.6-1.8,0.9-2.7
		c0.4-1.3,0.6-2.7,1.2-3.8c1.6-2.6,3.3-5.1,6.5-6.2c0.9-0.3,1.5-1.3,2.2-2c0.4-0.5,0.7-1.1,1.2-1.5c0.3-0.2,0.8-0.2,1.2-0.2
		c0,0.4,0.1,1-0.1,1.3c-1.6,2-3.3,3.9-4.9,5.8c-0.6,0.7-1.1,1.4-1.5,2.2c-0.1,0.2,0.4,1,0.7,1c0.9,0.1,1.8,0,2.7-0.1
		c-1.3,2-2.6,4-3.8,6.1c-0.6,1-0.9,2.3-1,3.4c0,0.4,1.1,1.2,1.7,1.3c1,0.1,2.1-0.3,3.2-0.4c-0.7,3-1.1,6.2-3.7,8.3
		c-1.5,1.1-3.6,1.4-5.1,2.5c-1.4,1-2.5,0.5-3.6-0.1c-0.3-0.1-0.6-0.5-0.6-0.8C45.5,66.1,45.4,63.5,45.5,60.9z M24.8,89
		c-0.6-1.2-1-2.4,0.1-3.6c0.4-0.4,0.7-1.1,0.7-1.6c0.1-4,3.4-5.7,5.7-8.2c0.7-0.7,2.1-0.6,3.1-1.1c2-0.8,3.5-2,4.4-4.3
		c0.8-2.1,2.2-3.9,3.5-6.1c0,3.3-0.1,6.1,0,8.9c0,1.7,0.5,3.4,0.4,5c-0.1,3.5-0.4,6.9-0.7,10.6c-5.4,0.1-8.2,4-11.2,7.5
		c-0.8-0.5-1.5-0.8-2-1.4c-0.9-1-2.7-1.3-2.5-3.4C26.5,90.7,25.3,89.8,24.8,89z M46.7,142.2c-3,0.2-4.8-1.1-5.9-4
		c-0.7-1.9-2-3.3-3.7-4.4c-0.6-0.4-0.8-1.2-1.2-1.9c-0.2-0.4-0.3-1.1-0.6-1.3c-1.5-0.7-1.2-1.7-0.7-3c0.3-0.9,0.3-2-0.1-2.8
		c-0.2-0.4-1.4-0.6-2.1-0.5c-2.8,0.3-5.5-1.9-5.5-4.7c0-1.3-0.2-2.7-0.2-4.1c2.6-0.7,3.3-2.2,2.2-4.4c-0.1-0.2-0.4-0.6-0.3-0.7
		c1-2.8-0.6-6.1,1.8-8.6c1.2-1.2,2.4-2.4,3.6-3.5c1.8-1.5,3.6-2.9,5.5-4.2c0.6-0.4,1.4-0.5,2.3-0.9c0.3,2.7,0.6,5.1,0.9,8.1
		c-2.3-1.7-3.5-0.4-4.6,0.9c-0.2,0.2-0.2,0.6-0.1,0.8c0,0.1,0.4,0.3,0.5,0.3c1.6-1.3,2.6,0.6,4.3,0.4c-0.5,13.2,2.6,25.6,6.5,38
		C48.2,141.9,47.5,142.2,46.7,142.2z M54.3,139.9c-0.1,0.6-0.5,1.2-0.7,1.8c-0.2,0-0.4,0-0.5,0c-0.6-1.1-1.4-2.2-0.7-3.6
		c0.1-0.2,0.2-0.5,0.1-0.6c-0.9-2.1-0.4-4.5-2-6.5c-0.8-1-1.1-2.5-1.5-3.8c-0.5-1.6-1.1-3.3-1.5-5c-0.4-1.6-0.7-3.2-0.8-4.9
		c-0.2-1.9-0.3-3.9-0.2-5.8c0-0.8,0.4-1.7,0.9-2.4c0.6-1,0.6-0.7,1.6,0c0.8,0.6,1.8,1,1.8,2.2c0.1,1.8,0.1,3.5,0.1,5.3
		c0.1,2.4-0.1,4.8,0.3,7.2c0.4,2.8,1.3,5.6,1.9,8.4C53.7,134.8,54.8,137.2,54.3,139.9z M54.1,120.3c1.6,1.4,2.5,5.2,1.6,7.5
		C55.1,125.1,54.6,122.9,54.1,120.3z M91.7,183.5c0,0-0.1,0-0.2,0c-3.1,0.6-5.8-0.5-8.7-1.4c-3.2-0.9-6-2.4-8.6-4.3
		c-1.3-1-2.9-2-3.6-3.4c-1.3-2.6-2.1-5.5-3.1-8.2c0.1-0.1,0.3-0.1,0.4-0.2c1.2,1.9,2.4,3.8,3.4,5.8c1,2,1.9,2.3,3.9,1.6
		c0.9-0.3,2.3-0.3,3.2,0.2c3.1,1.4,5.7,4,9.3,4.7c1,0.2,1.9,1.3,2.7,2.2c1.3,1.5,3.9,2.2,5.6,1.3c0.3-0.2,0.7-0.4,1-0.5
		c0.1-0.1,0.3,0,0.9,0C95.9,182.8,94.1,184.1,91.7,183.5z M100.8,176.3c-1.2,0.4-2.4,0.9-3.5,1.7c-2.1,1.5-4.4,1.5-6.3-0.3
		c-1.5-1.4-3.3-2.4-5.4-3c-1.7-0.5-3.2-2.1-4.5-3.4c-1.3-1.2-2.4-1.6-4-0.7c-1.2,0.7-3.1,0-4.3-1.6c-0.5-0.7-0.9-1.6-1.6-2.8
		c3.1,1,5.6,0.6,7.7-1.6c0.1,0.1,0.2,0.2,0.3,0.3c-0.3,0.7-0.6,1.5-0.9,2.3c0.8,1,1.8,1.4,3.3,1.5c2,0.1,3.9,0.9,5.9,1.5
		c1.7,0.5,3.4,1.1,5,1.7c1.8,0.7,3.6,1.5,5.5,2c0.6,0.2,1.5-0.6,2.3-1c-0.4-0.9-0.8-2.5-1.3-2.5c-4.6-0.4-8.8-1.9-13-3.7
		c-2-0.8-4.1-1.5-6.2-2.2c2.2-2.9,6.4-3,8.6-0.5c0.7,0.8,2.3,1.1,3.5,1.2c1.9,0.1,3.7-0.1,5.6-0.3c2.1-0.2,3.5,0.9,4.6,2.4
		c0.7,1,1.5,2,1.9,3.2C104.9,172.9,103.3,175.5,100.8,176.3z M125.8,141.1c-0.7,1.7-1.4,3.4-2.3,5c-0.7,1.1-0.6,2.8-0.7,4.2
		c0,2.1-1.4,3.1-2.8,4.2c-1.4,1.1-3.6,1.6-3.8,3.6c-0.2,1.8-1.3,3-2,4.5c0,0,0,0.1-0.1,0.2c-1.3,1.5-2.7,3-3.9,4.5
		c-0.3,0.3-0.3,0.9-0.6,1.2c-0.3,0.4-0.7,0.8-1.1,0.8c-0.4,0-0.8-0.5-1.1-0.8c-1.5-2.2-2.9-4.4-4.5-6.5c-0.4-0.6-1.4-0.9-2.1-1
		c-1.7-0.2-3.7-0.6-5.2-0.1c-2.6,0.9-4.4-0.2-6-1.7c-1.5-1.4-3.1-1.6-5-1.2c-3.3,0.7-6.2,2.2-8.6,4.7c-0.4,0.4-1.8,0.2-2.6-0.2
		c-1.8-0.8-3.5-2.1-5.7-1.8c-1,0.1-2,0.4-3,0.6c-0.2,0.2-0.3,0.3-0.5,0.5c-1.2-2.1-2.6-4.2-3.6-6.4c-1.4-3.1-2.9-6.1-5.2-8.6
		c-0.7-0.7-0.2-1.1,0.3-1.8c1.2-1.5,2.4-3.1,3.4-4.8c0.2-0.4-0.2-1.2-0.4-1.7c-0.3-1.1-0.5-2.1-0.8-3.2c-0.4-1.3-0.7-2.7-1.1-4
		c0.1,0,0.3-0.1,0.4-0.1c0.5,0.8,1.2,1.6,1.4,2.5c0.3,1.9,1.8,3,2.9,4.3c0.1,0.2,0.3,0.3,0.4,0.5c1.3,3.5,4.6,4.7,7.6,6.1
		c1.4,0.6,1.2,2,0.7,2.9c-0.8,1.5-0.9,2.7-0.2,4.3c0.4,0.8,0.1,1.9,0.3,2.9c0.3,1.2,3.7,2.7,4.8,2c1.5-0.9,2.9-1.9,4.3-3
		c0.5-0.4,0.9-0.9,1.1-1.5c0.6-1.5,1.6-1.8,2.8-0.7c2.2,1.8,4.7,2.6,7.4,2c1.2-0.3,2.5-0.9,3.2-1.7c2.1-2.3,4.2-1.2,6.3-0.5
		c1.2,0.4,2.4,1,3.6-0.2c0.3-0.3,1-0.2,1.5-0.2c2,0.1,4,0.4,6,0.4c3.4,0.1,5.8-1.9,7.6-4.5c2-2.9,4.1-5.8,5.9-8.9
		c1.2-2.1,1.3-4.5,1.1-7c-0.2-2.8,0-5.6,0.3-8.4c0.4-3.7,3.1-5.3,6.5-4.4c-0.4,2.2-0.7,4.5-1.4,6.7c-0.5,1.5-1.5,2.9-2.2,4.3
		c-0.2,0.5-0.5,0.9-0.6,1.4C128.2,134.2,127.1,137.6,125.8,141.1z M153.4,114.7c-1.1,2.7-1,5.3-0.9,8.1c0.1,2.6-0.3,5.2-0.5,7.8
		c-0.1,1.4,0,2.8-0.2,4.1c-0.2,1.2-0.6,2.4-0.7,3.7c-0.1,0.6,0.1,1.3,0.2,2c-1.4,0.6-2.3,2.2-1.9,4.1c0.3,1.5-0.3,1.9-1.5,2.3
		c-0.5,0.2-1,0.6-1.3,1.1c-1,1.7-2.3,3-4.2,3.8c-1.2,0.5-2.5,1-1.9,3.1c0.3,0.9-0.9,2.3-1.6,3.3c-1.4,2.2-3.9,2.9-6.2,3.6
		c-0.8,0.2-2.3-0.5-2.8-1.2c-1.3-1.9-2.2-4-3.3-6c-0.1-0.3-0.2-0.7-0.1-0.9c2-2.5,4-4.9,5.9-7.3c0.3-0.4,0.6-1.1,0.5-1.6
		c-0.4-1.5,0-2.7,0.5-4.1c0.5-1.3,0.4-3,0.1-4.4c-0.1-0.5-1.5-0.7-2.5-1.1c0.4-1.8,0.7-3.8,2.2-5.6c0.8-1,1.1-2.4,1.5-3.7
		c0.9-2.8,1.8-5.5,2.6-8.3c0.6-2.2,1.1-4.4,1.6-6.7c0.1-0.3,0.2-0.5,0.2-0.7c0.3-1.4,1.7-2.4,0.7-4.4c-0.7-1.5,0.2-3.8,0.6-5.7
		c0.2-1.2,0.8-2.3,1-3.5c0.2-1,0.5-1.6,1.6-1.7c-0.2,1-0.5,1.8-0.4,2.7c0.1,0.6,0.7,1.7,1,1.7c0.9,0,2-0.4,2.8-0.9
		c0.6-0.4,0.9-1.3,1.2-1.8c1.3,0.9,2.5,1.7,3.7,2.6c0.3,0.3,0.7,0.9,0.6,1.2c-0.9,2.6,0.6,5.3-0.4,8c-0.3,0.8,0.4,2.3,1.1,3
		C153.8,112.3,153.9,113.6,153.4,114.7z"/>
	<path fill="#56B2E4" d="M61.9,85.6c1.6-0.1,3.1-0.1,4.8-0.2c-0.5,3.1,0.2,3.1,2.8,2.4c0.3-0.1,0.6,0.1,0.9,0.2
		c2.2,0.8,4.2,1.8,5.5,3.9c1,1.5,3.5,1.5,4.4,0.5c0.6-0.7,1.5-1.5,2.3-1.7c1.2-0.3,1.3-1.1,1.3-1.9c-0.1-0.8-0.4-2.1-0.9-2.3
		c-2.2-0.8-3.5-2.6-5.1-4c-0.5-0.4-1-1.1-1.6-1.2c-1.7-0.2-3.4-0.4-5.1-0.3c-2.4,0.2-4.7,0.8-7.1,1C62,82.3,61.1,83.6,61.9,85.6z
		 M79.4,89.3c-2.5-1-3-3.3-4.4-5.1C77.4,84.4,79.7,87,79.4,89.3z"/>
</g>
<g>
	<path fill="#EC1C24" d="M170.1,95.4c-0.7-0.6-1.7-1-2.4-1.6c-1.6-1.4-3.4-1.6-5.6-1.3c-0.2-0.9-0.5-1.8-0.5-2.8
		c-0.1-2.4-0.2-4.7-0.2-7.1c0-1.6-1.1-2.9-1.5-4.3c-0.4-1.4-0.9-2.3-2.4-2.7c-0.3-0.1-0.5-0.7-0.8-1c-0.2-0.3-0.3-0.6-0.5-0.9
		c-0.6-1.4-3.1-1.5-2.5-3.6c0.4-1.4-0.1-2.6-0.5-3.8c-0.1-0.2,0-0.4,0-0.6c-0.2-3.1-0.1-6.2-1.4-9.2c-1.1-2.8-2.1-5.6-1.4-8.7
		c0.1-0.5-0.1-1.2-0.4-1.7c-1.4-2.3-2.9-4.5-4.5-7.1c0.4-0.4,1-1,1.6-1.6c0.3-0.3,0.6-0.7,0.6-1c0.1-2,0.3-4,0.1-6
		c-0.2-2.9-1-3.5-3.6-2.3c0.1-1,0.2-1.9,0.2-2.8c0.2-3.4,1.9-6.8,0-10.4c-0.6,0.3-1.6,0.7-1.6,1c0-1.9,0-3.8,0-6.2
		c-1,0.6-1.7,0.9-2.2,1.3c-0.4,0.3-1,0.8-1.4,0.8c-1.3,0.2-1.7,1-1.9,2.1c-0.2,0.9-0.5,1.8-0.7,2.6c-0.4,1.7-0.9,3.4-1.2,5.2
		c-0.3,1.6-0.5,3.3-0.8,5c-1.6-0.7-1.6-1.7-1.2-3c1-3.5,2.2-6.9,1.4-11.1c-0.8,0.5-1.6,0.8-2,1.3c-0.6,0.8-1,1.8-1.4,2.7
		c-0.9,2.1-1.7,4.3-2.5,6.4c-0.2,0-0.3,0-0.5,0c0-0.5-0.2-1,0-1.4c0.7-2.6,1.6-5.1,2.1-7.6c0.2-1-0.2-2.2-0.3-3.6
		c-0.8,0.5-1.2,0.8-1.6,1.1c-1.6,1.2-1.1,3.1-1.5,4.7c-0.4,1.5-0.6,3-0.9,4.6c-0.8-0.3-1.3-0.6-1.9-0.9c0.2-0.7,0.4-1.4,0.6-2
		c0.5-2.1,1.4-4.2,0.8-6.5c-0.1-0.4-0.1-0.9-0.2-1.3c-0.6,0.2-1.3,0.2-1.7,0.6c-0.5,0.6-0.7,1.4-1,2.2c-0.5,1.7-1,3.4-1.6,5
		c-0.1,0.3-0.6,0.4-0.9,0.5c-0.6-1.2-2.3-1.7-2.1-3.5c0.1-0.9-0.1-2.1-0.6-2.7c-0.5-0.6-1.6-0.7-2.6-1.1c0.2-0.5,0.6-1.2,0.6-2
		c0-1-0.3-2-0.5-3.1c-0.8,0.5-1.9,0.8-2.3,1.5c-1.6,2.6-2.9,5.3-4.4,8.2c-0.5-0.1-1.1-0.2-2-0.4c0.7-2.2,1.5-4.3,2.1-6.4
		c0.3-1.1,0.5-2.2,0.5-3.3c0-0.6-0.5-1.7-0.6-1.6c-0.8,0.1-1.8,0.2-2.3,0.8c-1.3,1.5-2.6,3.2-3.7,4.9c-1.2,1.9-2.1,3.9-3.2,5.9
		c-1.9,0.1-1.3-1.3-1.4-2.2c-0.2-2-1.2-2.7-2.9-1.6c-1.7,1.1-3.5,2.3-4.7,3.9c-2.2,3-4.8,4.7-8.7,4c-0.2,0-0.6,0.2-0.8,0.4
		c-1,0.7-2,1.5-3,2.2c-0.6,0.4-1.3,0.8-1.8,1.2c-2.1,1.6-4.1,3.3-6.3,4.7c-1.7,1.1-3.7,1.1-5.1,3.3c-1.4,2.4-3.9,4.1-5.9,6.1
		c-2,2-4.1,4-5.9,6.1c-2.3,2.6-4.2,5.5-4.6,9.1c-0.3,2.4-0.7,4.7-2.2,6.7c-1.5,1.8-1.9,4.4-4.5,5.5c-1.2,0.5-2.3,1.6-3.3,2.5
		c-3.6,3.7-7.2,7.4-10.6,11.3c-0.7,0.8-0.7,2.7-0.2,3.7c0.7,1.2,1.3,2.3,1.4,3.7c0.2,1.5,0.5,2.8,1.7,3.9c0.3,0.2,0.2,0.9,0.3,1.3
		c0.2,0.8,0.3,1.6,0.6,2.8c-0.9,0.8-2.4,1.6-1.9,3.6c0,0.2-0.3,0.6-0.5,0.8c-1.2,1-0.9,2.3-0.5,3.6c0.4,1.2,0.8,2.5,0.9,3.8
		c0.2,2.3,0,4.7,0.2,7c0.2,1.6,0.7,3.1,1.1,4.6c0.7,2.3,0.6,5.2,3.7,6.1c0.2,0.1,0.3,0.4,0.4,0.6c0.7,1.1,1.3,2.3,1.9,3.4
		c-1.1,1.6-1.1,1.6-0.3,3.4c0.5,1.1,1.4,2.1,1.6,3.3c0.4,2.5,1,5.2,0.5,7.6c-1,4.7-1.3,9.6-3.9,13.9c0,0,0,0.1,0,0.2
		c0.1,1.2-0.6,1.7-1.6,2.3c-0.6,0.4-1.5,1.6-1.3,2c1.2,2.2-0.1,4.3-0.1,6.5c0,1.6-0.5,3.1-0.6,4.7c-0.1,1,0.1,2,0.2,3
		c0.2,1.1,0.3,2.3,0.6,3.4c0.2,0.9,0.5,1.9,1,2.7c0.3,0.3,1.3,0.3,1.9,0.1c0.3-0.1,0.6-0.9,0.6-1.4c-0.2-1.4-0.8-2.8-0.7-4.2
		c0.1-2.2,0.7-4.4,1.1-6.6c0.1-0.3-0.1-0.7-0.2-1.1c-0.6-2.4-0.7-4.7,0.9-6.8c1.1-1.4,2.3-2.9,2.8-4.5c0.5-1.6,0.6-3.3,1.2-5
		c1-2.7,1.3-5.6,1.8-8.4c0.5-3.2,0.7-6.5-0.4-9.9c0.8,0.5,1.3,0.8,1.8,1.2c1.9,1.3,3.3,3.1,3.8,5.3c0.3,1.1,0.8,1.7,1.8,2
		c1.7,0.5,3.6,1.6,5.2,1.4c2.8-0.4,3.1,2.8,5.3,2.9c0.2,0,0.3,0.6,0.5,1c0.5,1,1,2,1.6,3c1.7,2.9,3.9,5.7,5.2,8.8
		c1,2.2,2,4.2,3.4,6.2c1.9,2.7,3.2,5.9,4.5,9c0.5,1.2,1.4,1.8,2.2,2.6c0.5,0.4,1.1,0.8,1.6,1.2c1.4,1,2.8,1.9,4.1,2.9
		c0.2,0.1,0.4,0.2,0.5,0.3c2.9,2.7,6.4,3.5,10.2,3.2c0.6,0,1.3,0.3,2,0.4c0.5,0.1,0.9,0.3,1.4,0.3c1.5-0.2,3.2-0.2,4.6-0.7
		c2.2-0.7,4.4-1.5,6.2-2.8c1.9-1.3,3.1-3.6,5.1-4.8c3.3-2.2,5.2-5.6,7.1-8.8c2.5-4.2,5.6-7.8,8.5-11.6c0.1-0.2,0.4-0.3,0.3-0.3
		c0.9,0.5,1.7,0.9,2.4,1.3c0.8,0.5,1.9,0.9,2.3,1.7c1,1.8,2.5,2.9,4.4,3.3c1.1,0.2,2.3,0,3.5,0.2c0.9,0.1,1.5-0.1,2-0.9
		c1.1-2,2.6-3.5,5.1-3.7c0.4,0,0.9-0.7,1.2-1.1c1-2.1,1.7-4.3,2.8-6.3c0.5-0.9,1.5-1.4,2.4-2c0.7-0.5,1.8-0.5,2.4-1.1
		c0.9-0.8,1.4-1.9,2.2-2.8c1-1,2.2-1.9,3.2-2.9c1.5-1.4,1.4-2.9-0.3-4.3c-0.2-0.2-0.6-0.6-0.5-0.6c1.1-1.5,0.2-3.1,0.3-4.7
		c0.4-3.6,0.5-7.2,0.7-10.7c0.2-2.3,0.3-4.6,0.6-6.9c0.1-0.7,0.4-1.5,0.9-2c1-1,1.4-1.9,0.9-3.3c-0.3-0.9,0.1-2.1-0.2-3
		c-0.3-1-1-1.9-1.7-3.2c1.4-0.1,2.6-0.4,3.7-0.3c1.5,0,3.4-0.8,3.9-2C171.4,98.4,171.1,96.2,170.1,95.4z M155.6,81
		c2.9,2.2,1.2,5.4,2.6,8c-2,0.1-2.5-1.1-2.6-2.2C155.4,84.9,155.6,83.1,155.6,81z M142.3,30.7c0.1,1.6,0.2,3.2,0.3,4.9
		C141.2,34,142.5,32.3,142.3,30.7z M141.1,39.2c1.5,2,3.5,3.5,4.1,6.3c0.3,1.6,1.6,3,2.1,4.7c0.6,2.1,0.8,4.3,1.1,6.4
		c0.4,2.5,0,5,1.2,7.4c0.3,0.6-0.1,1.6,0,2.4c0.1,1.3,0.3,2.6,0.5,4c-1.1-0.2-2.1-0.4-2.5-1.7c-0.1-0.3-0.3-0.7-0.5-0.7
		c-1.7-0.4-1.6-1.7-1.9-3c-0.2-1.1-0.7-2.1-1-3.2c-0.3-1.1-0.5-2.3-0.5-3.5c-0.1-2.1,0.3-4.3,0-6.4c-0.3-1.9-1.3-3.7-1.8-5.6
		c-0.6-2.3-1-4.6-1.5-6.9C140.7,39.4,140.9,39.3,141.1,39.2z M137,28.4c0.5-2.6,1.1-5.3,1.7-7.9c0.1,0,0.3,0.1,0.4,0.1
		c-0.4,3.1-0.8,6.1-1.1,9.2c-0.1,0-0.3,0-0.4,0C137.4,29.3,137,28.8,137,28.4z M135.8,37.8c1.8,3.4-0.2,6.3-0.9,9.4
		C134.3,44,135.4,40.9,135.8,37.8z M131.8,31.8c1.5,3.1-0.2,5.6-1.1,8.2c-0.1,0-0.3,0-0.4-0.1C130.8,37.2,131.3,34.5,131.8,31.8z
		 M130.3,29.3c-0.3,4-1,7.5-2.2,11.1C127.1,37.4,128.3,31,130.3,29.3z M128,69.8c-1.3-1.6-0.6-4.3-3.5-4.7
		C126.7,64.4,128.3,66.8,128,69.8z M123.1,24.7c1.8,0.8,1.3,4.2-1.1,6.1C122.3,28.8,122.7,26.8,123.1,24.7z M122,41.2
		c-0.7,0.5-1.5,0.7-1.8,1.3c-0.2,0.6,0.1,1.4,0.2,2.1c0,0.5,0,1-0.2,1.5c-1.9-4-2.3-8.1-2-12.4c0.1-0.1,0.3-0.1,0.4-0.2
		C119.7,36.1,120.9,38.6,122,41.2z M120.5,53c-0.2,0-0.4,0.1-0.6,0.1c-0.3-1.6-0.6-3.1-0.8-4.7c0.2,0,0.5-0.1,0.7-0.1
		C120.1,49.8,120.3,51.4,120.5,53z M115.8,23.5c2,0.1,1.8,0.1,2.7,0.2c-0.6,1.8-1.4,3.5-2,5.2c-0.2,0,1.3-0.1-0.7-0.1
		C115.8,27.1,115.8,25.3,115.8,23.5z M112.1,19.9c0.9,0.8,2.1,1.3,2.4,2.2c0.3,0.7-0.4,1.8-0.7,2.8c-0.1,0.5-0.3,1-0.3,1.4
		c0,0.8,0.1,1.6,0.2,2.4c-0.2,0.1-0.3,0.1-0.5,0.2c-0.6-1.6-0.3-3.9-2.9-4.2C110.9,23.1,111.4,21.7,112.1,19.9z M109.1,27.7
		c-0.4,1.8-0.8,3.4-1.3,5.4C106.9,30,107.2,28.4,109.1,27.7z M105.7,8.5c0.2,0.1,0.4,0.1,0.6,0.2c-0.4,1.7-0.7,3.4-1.2,5.1
		c-0.6,1.9-0.9,2.1-3.5,1.8C103.1,13.1,104.4,10.8,105.7,8.5z M106.1,21.4c-0.9,1.4-1.9,2.7-2.8,4.1c-0.2-0.1-0.3-0.2-0.5-0.3
		c0.9-1.4,0.3-3.9,2.8-4.2C105.7,21.1,105.9,21.3,106.1,21.4z M103.5,30.8c0.6-0.9,1-1.9,1.4-2.8c0.1,0,0.3,0,0.4,0.1
		c0.1,2.6,0.4,5.1,0.2,7.7c-0.3,2.8-1,5.6-1.5,8.5c-0.1,0.5,0.2,1.4,0.6,1.6c0.6,0.3,1.5,0.3,2.1,0c0.5-0.2,1-1.1,0.9-1.6
		c-0.3-3.8,1.1-7.2,1.9-10.7c0.4-1.5,0.8-3,1.2-4.5c5.1,7,3.8,14.9,4.6,22.6c-0.4,0-0.6,0-0.8,0c-2.2-0.4-4.5-0.8-6.7-1.1
		c-0.7-0.1-1.5,0.4-2.2,0.4c-1.4-0.1-2.8-0.4-4.3-0.5c-1.9-0.2-3.7-0.3-5.6-0.4c-2.3-0.1-3.9-1.4-5.4-2.8c-1.4-1.2-3-2.3-4.1-3.7
		c-1.8-2.3-4-2.1-6.4-2c-1,0-2-0.4-3.1-0.7c1.1-1.8,1.8-3.8,3.2-5c0.9-0.8,2.7-0.7,4.1-0.7c0.8,0,1.5,0.7,2.4,1.1
		c-0.3,0.6-0.5,1.1-0.8,1.6c-0.7,1.1-0.6,1.9,0.9,2.2c0.7,0.2,1.2,0.3,1.6,1.2c0.5,1.3,2.2,1,3-0.2c1-1.7,2.2-3.4,3.2-5.1
		c0.3,0.1,0.5,0.2,0.8,0.3c-0.3,1.6-0.5,3.2-1,4.6c-0.3,0.9-0.5,1.4,0.5,1.9c1,0.5,1.7,0.2,2.2-0.6c0.4-0.6,0.6-1.4,1-2.1
		c0.2-0.3,0.2-0.8,0.5-1C101.5,37.4,101.7,33.6,103.5,30.8z M97.8,22.2c0.1,0,0.2,0.1,0.4,0.1c0,0.6,0.1,1.1,0,1.6
		c-0.3,1-0.5,2.2-1.1,3c-2.3,2.9-3.4,6.3-5.1,9.5c-0.4,0.7-1,1.4-1.5,2c-0.1-0.1-0.2-0.1-0.3-0.2C92.6,32.9,95.2,27.5,97.8,22.2z
		 M94.8,14.8c0.2,2.6-0.7,3.4-3.8,3.6C92.4,17.1,93.5,16,94.8,14.8z M86.8,24.1c0.2-0.3,0.5-0.5,0.7-0.6c1.6-0.4,3.2-0.7,5.3-1.2
		c-1.7,4.4-3.2,8.3-4.6,11.8c-2.2-0.8-4-1.5-6-2.2C83.7,29.4,85.2,26.7,86.8,24.1z M82.5,25.9c-0.7,4-3.9,6.1-6.7,8.6
		C77.2,30.3,80.7,26,82.5,25.9z M70.9,53.6c1.7-1.3,1.8-2.7,1.2-4.5c-0.9-2.7,1.1-5.2,3.9-4.7c1.7,0.3,3.6,0.2,5.2,0.8
		c1.5,0.5,2.9,1.5,4.1,2.6c1.5,1.3,2.6,2.9,4.1,4.3c0.5,0.4,1.4,0.5,2.1,0.6c2.3,0.5,4.7,1,7.1,1.4c1.6,0.2,3.5-0.2,4.9,0.5
		c2.1,1,4.1,0.1,6.1,0.2c4.1,0.2,5.8,1.3,6.3,5.6c0.3,2.9,1.8,5.4,4.7,6.9c1.5,0.8,2.9,2.2,3.9,3.6c1.6,2.4,2.9,5,4.2,7.6
		c0.4,0.9,0.5,2,0.8,3.2c-0.9-0.3-1.7-0.6-2.5-0.9c-1.2-0.4-2.2,0.1-3.4,0.4c-1.3,0.3-2.8-0.3-4.2-0.5c-0.2,0-0.4-0.1-0.6-0.2
		c-2.9-1.7-5.2-0.8-8.1,0.6c-2.8,1.3-3.8,2.5-3.1,5.5c0.2,1-0.6,2.4-2.1,2.4c-1.8,0-2.2,1.1-2.5,2.5c1.2,0.9,2.3,0.7,3.3-0.1
		c2.3-1.9,4.7-3.6,7.6-4.4c1.1-0.3,2.2-1,3.2,0.2c1.3-1.6,3.7-1.4,6.2-0.3c0.5,0.2,0.9,0.6,1.4,0.9c1.1,0.6,2.1,0.6,2.9-0.5
		c0.9-1.2,1.6-2.6,2.4-3.9c0.6,1.1,1.3,2.2,1.7,3.4c0.4,1.1,1.3,1.3,2.1,1.1c0.8-0.2,1.7-0.8,2.2-1.6c0.8-1.3-0.2-2.5-0.7-3.8
		c-0.9-2.7-1.7-5.4-2.6-8.1c-0.2-0.7-0.5-1.4,0.3-2c0.3-0.2,0.2-1.1,0.1-1.7c-0.5-2.3-1.1-4.5-1.5-6.8c-0.6-3-1.2-6.1-1.7-9.2
		c-0.1-0.9,0.1-1.9,0.6-2.7c0.7-1.2,0.7-2,0-3.3c-0.8-1.5-1.1-3.3-1.6-4.9c1-0.2,2-0.1,2.6-0.6c0.6-0.5,0.9-1.5,1.3-2.3
		c0.4-1,0.8-2,1.5-2.9c-0.2,1.7-0.3,3.4-0.6,5.1c-0.2,1.4-0.6,2.9-0.7,4.3c0,0.8,0.2,1.8,0.7,2.5c0.7,1.1,2.3,1,2.9-0.2
		c0.7-1.5,1.1-3.1,1.8-4.8c0.9,3,2,5.7,2.5,8.5c0.5,3.2,0.3,6.4,0.5,9.6c0.1,1.2,0.6,2.5,0.7,3.7c0.2,1.4,0.2,2.8,0.4,4.5
		c0.1,0.2,0.5,0.7,0.8,1.3c0.7,1.5,2.3,1.7,3.5,1.7c2.6,0.1,4.7,2,4.7,4.5c0,2.3,0.2,4.5,0.5,6.8c0.1,1.3-0.4,1.9-1.7,1.7
		c-1.5-0.2-4.7,1.3-5.2,2.6c-0.3,0.9-0.3,2-0.5,3c-0.3,2.4-1.1,4.9-0.9,7.2c0.2,2.7-1.3,4.9-1.5,7.5c0,0.5-0.5,0.9-0.8,1.4
		c-0.1-0.2-0.2-0.4-0.3-0.7c-0.9-0.4-1.7-0.8-2.6-1.1c-0.1-0.1-0.4,0-0.5,0c-0.6-2-2.4-2.1-4-2.6c-0.8-0.2-1.7,0-2.6-0.1
		c-0.9-0.1-1.9,0-2.6-0.3c-2.1-1.1-4.2-2.1-6.1-3.6c-2.4-1.9-5.4-2.1-8.1-3.3c-1.5-0.7-3.6-0.2-5.4,0c-1.8,0.2-3.5,0.7-5,2.3
		c-0.9,1-2.7,1.3-4,1.9c-0.6,0.3-1.3,0.4-1.9,0.6c-1.1,0.5-1.9,0.3-2.6-0.7c-1.5-2.4-3.5-4.1-6.4-4.7c-1.9-0.4-3.6-1.5-5.4-2.2
		c-0.4-0.2-1,0.2-1.5,0.1c-2.6-0.6-5.2-0.3-7.7,0.8c-1.2,0.5-2.7,0.5-4.1,0.7c-1.5,0.2-2.6,0.8-2.8,2.4c0,0.2-0.3,0.6-0.5,0.7
		c-1.8,0.3-3.6,0.6-5.8,1c0.6-3.6-1-6-2.7-8.4c-0.7-0.9-1.1-2-1.7-2.9c-0.4-0.5-1-1-1.6-1.2c-1.9-0.6-3.2-4-2.7-5.7
		c0.1-0.3,0.2-0.5,0.2-0.8c0.1-2.5,0.1-2.6,1.3-3.7c0.3-1.1,0.6-1.7,0.5-2.4c-0.1-0.7-0.4-1.4-0.7-2.1c-0.3-0.6-0.7-1.2-1.2-2.1
		c5.3,0.5,8.3-2.6,11.5-5.2c1.1-0.9,2.7-1,3.1-2.8c0.5-2.1,1.2-4.1,1.9-6C69.5,55.4,70,54.2,70.9,53.6z M113.7,134.7
		c-0.7-0.8-2.3-0.8-3.7-1.2c-0.4-2.2-1.1-2.5-4.7-1.6c-0.6-4.1-1.4-8.2-0.8-12.6c-1.6-1-1.2-2.6-0.8-4.3c0.4,0.7,0.7,1.5,1.3,2.1
		c1.1,1.3,2.3,2.5,3.5,3.6c0.2,0.2,0.7,0.3,1.1,0.3c3.1,0,6.1,0.2,9.2,0c2-0.1,3.9-0.7,5.8-1.3c0.7-0.3,1.2-1.4,1.7-2.1
		c0.4-0.6,0.8-1.3,1.3-1.8c1.2-1,0.9-1.8-0.2-2.6c-2.3-1.8-4.5-3.8-6.8-5.6c-0.6-0.5-1.5-0.8-2.2-0.9c-1.6-0.4-3.3-0.5-4.9-0.9
		c-1.5-0.4-2.7-0.1-4,0.7c-0.4,0.2-0.8,0.4-1.2,0.4c-2-0.1-3.6,0.5-4,2.3c-1-0.7-1.8-1.5-2.7-2c-1.1-0.5-1.3-0.8-0.2-1.6
		c1.9-1.4,3.6-3.1,6.1-3.4c0.8-0.1,1.6-1.3,2.3-1.2c2.3,0.2,4.8-0.2,7,1c2.2,1.2,4.4,2.4,6.3,4c0.2,0.2,0.6,0.6,0.8,0.5
		c2.1-0.4,3.1,1.4,4.7,2c1.3,0.5,2.7,1,4,0.9c1.8-0.2,2.8,0.7,4,2.2c-1.3,0.8-2.5,1.7-3.9,2.3c-1.1,0.5-1.7,1-1.8,2.3
		c-0.3,3.8-0.8,7.5-1,11.3c-0.2,3.5-1.3,6.6-2.7,9.8c-1.5,3.4-4.5,5-7.3,6.6c-1.7,1-4.3,1.5-6.2-0.6c0.4-1.6,1.1-3.3,1.2-4.9
		C114.9,137.3,114.6,135.6,113.7,134.7z M63.5,112.1c-0.4-1.8-1.1-3.5-1.7-5c2.8-1.9,5.6-3.7,8.5-5.6c1.7,1.8,1.4,3.9,0.7,5.7
		c-0.7,1.7,0.5,2.6,1.3,2.9c2.6,0.8,5.2,2.3,8,0.8c0.3-0.1,0.7-0.2,0.9-0.2c2.4,0.5,3.8-0.9,5.2-2.6c1.2-1.3,0.6-2.7,1-4
		c0.2-0.7,0.6-1.4,0.9-2.1c0.6,0.8,1.8,1.6,1.7,2.3c-0.2,3.2-0.8,6.4-1.3,9.5c0,0.3-0.1,0.5-0.2,0.8c-1.3,2.4-1.7,5-1.5,7.7
		c0.1,1.2-0.1,2.2-1.1,3.2c-0.5,0.6-0.4,1.8-0.5,2.8c0,0.9,0.6,2.1-1.3,1.5c-0.6-0.2-1.5,0.4-2.2,0.7c0.5,0.8-0.1,2.5-1,2.6
		c-2.4,0.2-2.2,2.2-2.5,3.6c-0.2,1.3-0.7,1.6-1.8,1.4c-2.6-0.5-4.4-1.9-5.8-4.2c-0.7-1.2-1.8-2.1-2.4-3.2c-0.8-1.6-1.5-3.3-2.1-5
		c-0.5-1.6-0.8-3.2-1.2-4.8c-0.1-0.4-0.3-0.8-0.3-1.1C65.7,117.1,64.1,114.7,63.5,112.1z M82.7,99.2c-1.5-0.1-3.1-0.2-4.6-0.3
		c0-0.2,0-0.5,0-0.7c1.5,0.1,3,0.3,4.5,0.4C82.7,98.8,82.7,99,82.7,99.2z M83.4,101.7c0.4,0.3,0.4,1.2,0.6,1.8c-0.2,0-0.3,0-0.5,0
		c-0.7-0.7-1.5-1.3-2.2-2c0-0.1,0.1-0.3,0.1-0.4C82.1,101.3,82.9,101.3,83.4,101.7z M79.8,101c-1.6,2.1-1.4,4.3,0.8,5.9
		c-2,0.1-3.7,1.7-5.6,0.1c-1.5-1.3-1.6-3.6,0.2-4.5C76.7,101.8,78.3,101.5,79.8,101z M90.2,120.1c0.7-2,1.1-4.1,1.7-6.1
		c0.2-0.7,0.6-1.3,1-2.3c0.6,2.1,0.2,3.6-0.6,5.1c-0.6,1.1-0.7,2.1-0.8,3.4c-0.2,2.4,0.1,5.1-1.6,7.4
		C89,124.8,89.5,122.5,90.2,120.1z M79.7,142c0.1-1.7,1.9-1.8,3.2-2.3c1.1-0.4,2.6,0.1,3.2-1.4c0-0.1,1,0.1,1.4,0.3
		c1.1,0.7,3.3,0.6,4-0.4c1.2-1.7,2.4-3.4,3.5-5.2c0.9-1.4,0.3-2.5-1.4-2.8c-0.4-0.1-0.9-0.1-1.4-0.2c0.5-1.6,0.9-3.2,1.4-4.8
		c0.6-2,0.9-4.1,1.7-6c1-2.3,0-4.7,0.8-6.9c0.2-0.6,0.8-1.7,1.1-1.6c0.9,0.1,2,0.5,2.1,1.7c0.3,3.6,1.8,6.9,1.5,10.6
		c-0.1,1.5,0.7,3.1,1,4.7c0.2,0.8,0.3,1.6,0.5,2.4c0.3,1.3,0.4,2.4-1.3,2.8c-0.4,0.1-0.7,0.9-0.9,1.4c-0.6,1.6-0.8,3.2,0.3,4.6
		c1.1,1.3,2.6,1.6,4.3,0.9c0.3-0.1,1,0.1,1.2,0.4c0.9,1.1,1.6,2.2,2.7,3.7c-0.8-0.2-1.4-0.2-1.6-0.5c-0.9-1.1-2.1-1.2-3.4-1.4
		c-1.5-0.3-2.2,0.3-3.1,1.1c-1.4,1.3-2.9,2.5-4,3.4c-3.1-1.3-4.3-4.1-7.1-5c-2.7-0.8-4.3,0.1-4.9,2.8c-0.5,2.3-1.2,4.5-4.3,4.2
		c0,0-0.2-0.1-0.2-0.1C79.9,146.4,79.5,144.2,79.7,142z M108.3,136.9c0.7,1.1,1.4,2.3,2.1,3.4C108,139,107.5,137.7,108.3,136.9z
		 M107.7,111.2c0.6-0.6,1.3-1.1,1.7-1.8c0.8-1.1,4.6-1.2,5.3-0.6c0.2,0.2,0.2,0.7,0.2,1c0,1-0.2,2.1-0.1,3.1
		c0.1,1.3,1.3,1.7,2.3,1.9c0.9,0.2,1.6-0.2,2-1.2c0.2-0.6,0.7-1.1,1.1-1.7c1.1,0.8,2.5,1.1,2.2,2.8c-0.4,2.1-1.4,3-3.3,2.9
		c-2.6,0-5.1-0.1-7.6-0.2c-3.3-0.1-4.5-1.8-3.7-5C107.9,112.1,107.7,111.6,107.7,111.2z M53.1,91.6c2.9,2,3.9,4.7,3.7,8.1
		c-1.3-0.1-2.3-0.2-3.6-0.2C53.3,96.9,52.4,94.2,53.1,91.6z M70,41.5c-0.8,1.4-1.4,2.5-2,3.5c-1,2.1-2.1,4.3-2.9,6.5
		c-0.5,1.3-1.4,1.6-3.1,1.4C64,48.7,65.6,44.4,70,41.5z M52.4,57.7c0.1-2.4,1.1-4.6,2.9-6.4c0.6-0.6,0.6-1.8,0.9-2.7
		c0.4-1.3,0.6-2.7,1.2-3.8c1.6-2.6,3.3-5.1,6.5-6.2c0.9-0.3,1.5-1.3,2.2-2c0.4-0.5,0.7-1.1,1.2-1.5c0.3-0.2,0.8-0.2,1.2-0.2
		c0,0.4,0.1,1-0.1,1.3c-1.6,2-3.3,3.9-4.9,5.8c-0.6,0.7-1.1,1.4-1.5,2.2c-0.1,0.2,0.4,1,0.7,1c0.9,0.1,1.8,0,2.7-0.1
		c-1.3,2-2.6,4-3.8,6.1c-0.6,1-0.9,2.3-1,3.4c0,0.4,1.1,1.2,1.7,1.3c1,0.1,2.1-0.3,3.2-0.4c-0.7,3-1.1,6.2-3.7,8.3
		c-1.5,1.1-3.6,1.4-5.1,2.5c-1.4,1-2.5,0.5-3.6-0.1c-0.3-0.1-0.6-0.5-0.6-0.8C52.4,62.8,52.2,60.2,52.4,57.7z M31.7,85.7
		c-0.6-1.2-1-2.4,0.1-3.6c0.4-0.4,0.7-1.1,0.7-1.6c0.1-4,3.4-5.7,5.7-8.2c0.7-0.7,2.1-0.6,3.1-1.1c2-0.8,3.5-2,4.4-4.3
		c0.8-2.1,2.2-3.9,3.5-6.1c0,3.3-0.1,6.1,0,8.9c0,1.7,0.5,3.4,0.4,5c-0.1,3.5-0.4,6.9-0.7,10.6c-5.4,0.1-8.2,4-11.2,7.5
		c-0.8-0.5-1.5-0.8-2-1.4c-0.9-1-2.7-1.3-2.5-3.4C33.4,87.4,32.2,86.5,31.7,85.7z M53.6,138.9c-3,0.2-4.8-1.1-5.9-4
		c-0.7-1.9-2-3.3-3.7-4.4c-0.6-0.4-0.8-1.2-1.2-1.9c-0.2-0.4-0.3-1.1-0.6-1.3c-1.5-0.7-1.2-1.7-0.7-3c0.3-0.9,0.3-2-0.1-2.8
		c-0.2-0.4-1.4-0.6-2.1-0.5c-2.8,0.3-5.5-1.9-5.5-4.7c0-1.3-0.2-2.7-0.2-4.1c2.6-0.7,3.3-2.2,2.2-4.4c-0.1-0.2-0.4-0.6-0.3-0.7
		c1-2.8-0.6-6.1,1.8-8.6c1.2-1.2,2.4-2.4,3.6-3.5c1.8-1.5,3.6-2.9,5.5-4.2c0.6-0.4,1.4-0.5,2.3-0.9c0.3,2.7,0.6,5.1,0.9,8.1
		c-2.3-1.7-3.5-0.4-4.6,0.9c-0.2,0.2-0.2,0.6-0.1,0.8c0,0.1,0.4,0.3,0.5,0.3c1.6-1.3,2.6,0.6,4.3,0.4c-0.5,13.2,2.6,25.6,6.5,38
		C55.1,138.6,54.4,138.9,53.6,138.9z M61.2,136.6c-0.1,0.6-0.5,1.2-0.7,1.8c-0.2,0-0.4,0-0.5,0c-0.6-1.1-1.4-2.2-0.7-3.6
		c0.1-0.2,0.2-0.5,0.1-0.6c-0.9-2.1-0.4-4.5-2-6.5c-0.8-1-1.1-2.5-1.5-3.8c-0.5-1.6-1.1-3.3-1.5-5c-0.4-1.6-0.7-3.2-0.8-4.9
		c-0.2-1.9-0.3-3.9-0.2-5.8c0-0.8,0.4-1.7,0.9-2.4c0.6-1,0.6-0.7,1.6,0c0.8,0.6,1.8,1,1.8,2.2c0.1,1.8,0.1,3.5,0.1,5.3
		c0.1,2.4-0.1,4.8,0.3,7.2c0.4,2.8,1.3,5.6,1.9,8.4C60.6,131.5,61.7,134,61.2,136.6z M61,117c1.6,1.4,2.5,5.2,1.6,7.5
		C62,121.8,61.5,119.6,61,117z M98.6,180.2c0,0-0.1,0-0.2,0c-3.1,0.6-5.8-0.5-8.7-1.4c-3.2-0.9-6-2.4-8.6-4.3c-1.3-1-2.9-2-3.6-3.4
		c-1.3-2.6-2.1-5.5-3.1-8.2c0.1-0.1,0.3-0.1,0.4-0.2c1.2,1.9,2.4,3.8,3.4,5.8c1,2,1.9,2.3,3.9,1.6c0.9-0.3,2.3-0.3,3.2,0.2
		c3.1,1.4,5.7,4,9.3,4.7c1,0.2,1.9,1.3,2.7,2.2c1.3,1.5,3.9,2.2,5.6,1.3c0.3-0.2,0.7-0.4,1-0.5c0.1-0.1,0.3,0,0.9,0
		C102.8,179.6,101,180.8,98.6,180.2z M107.7,173c-1.2,0.4-2.4,0.9-3.5,1.7c-2.1,1.5-4.4,1.5-6.3-0.3c-1.5-1.4-3.3-2.4-5.4-3
		c-1.7-0.5-3.2-2.1-4.5-3.4c-1.3-1.2-2.4-1.6-4-0.7c-1.2,0.7-3.1,0-4.3-1.6c-0.5-0.7-0.9-1.6-1.6-2.8c3.1,1,5.6,0.6,7.7-1.6
		c0.1,0.1,0.2,0.2,0.3,0.3c-0.3,0.7-0.6,1.5-0.9,2.3c0.8,1,1.8,1.4,3.3,1.5c2,0.1,3.9,0.9,5.9,1.5c1.7,0.5,3.4,1.1,5,1.7
		c1.8,0.7,3.6,1.5,5.5,2c0.6,0.2,1.5-0.6,2.3-1c-0.4-0.9-0.8-2.5-1.3-2.5c-4.6-0.4-8.8-1.9-13-3.7c-2-0.8-4.1-1.5-6.2-2.2
		c2.2-2.9,6.4-3,8.6-0.5c0.7,0.8,2.3,1.1,3.5,1.2c1.9,0.1,3.7-0.1,5.6-0.3c2.1-0.2,3.5,0.9,4.6,2.4c0.7,1,1.5,2,1.9,3.2
		C111.8,169.6,110.2,172.2,107.7,173z M132.7,137.8c-0.7,1.7-1.4,3.4-2.3,5c-0.7,1.1-0.6,2.8-0.7,4.2c0,2.1-1.4,3.1-2.8,4.2
		c-1.4,1.1-3.6,1.6-3.8,3.6c-0.2,1.8-1.3,3-2,4.5c0,0,0,0.1-0.1,0.2c-1.3,1.5-2.7,3-3.9,4.5c-0.3,0.3-0.3,0.9-0.6,1.2
		c-0.3,0.4-0.7,0.8-1.1,0.8c-0.4,0-0.8-0.5-1.1-0.8c-1.5-2.2-2.9-4.4-4.5-6.5c-0.4-0.6-1.4-0.9-2.1-1c-1.7-0.2-3.7-0.6-5.2-0.1
		c-2.6,0.9-4.4-0.2-6-1.7c-1.5-1.4-3.1-1.6-5-1.2c-3.3,0.7-6.2,2.2-8.6,4.7c-0.4,0.4-1.8,0.2-2.6-0.2c-1.8-0.8-3.5-2.1-5.7-1.8
		c-1,0.1-2,0.4-3,0.6c-0.2,0.2-0.3,0.3-0.5,0.5c-1.2-2.1-2.6-4.2-3.6-6.4c-1.4-3.1-2.9-6.1-5.2-8.6c-0.7-0.7-0.2-1.1,0.3-1.8
		c1.2-1.5,2.4-3.1,3.4-4.8c0.2-0.4-0.2-1.2-0.4-1.7c-0.3-1.1-0.5-2.1-0.8-3.2c-0.4-1.3-0.7-2.7-1.1-4c0.1,0,0.3-0.1,0.4-0.1
		c0.5,0.8,1.2,1.6,1.4,2.5c0.3,1.9,1.8,3,2.9,4.3c0.1,0.2,0.3,0.3,0.4,0.5c1.3,3.5,4.6,4.7,7.6,6.1c1.4,0.6,1.2,2,0.7,2.9
		c-0.8,1.5-0.9,2.7-0.2,4.3c0.4,0.8,0.1,1.9,0.3,2.9c0.3,1.2,3.7,2.7,4.8,2c1.5-0.9,2.9-1.9,4.3-3c0.5-0.4,0.9-0.9,1.1-1.5
		c0.6-1.5,1.6-1.8,2.8-0.7c2.2,1.8,4.7,2.6,7.4,2c1.2-0.3,2.5-0.9,3.2-1.7c2.1-2.3,4.2-1.2,6.3-0.5c1.2,0.4,2.4,1,3.6-0.2
		c0.3-0.3,1-0.2,1.5-0.2c2,0.1,4,0.4,6,0.4c3.4,0.1,5.8-1.9,7.6-4.5c2-2.9,4.1-5.8,5.9-8.9c1.2-2.1,1.3-4.5,1.1-7
		c-0.2-2.8,0-5.6,0.3-8.4c0.4-3.7,3.1-5.3,6.5-4.4c-0.4,2.2-0.7,4.5-1.4,6.7c-0.5,1.5-1.5,2.9-2.2,4.3c-0.2,0.5-0.5,0.9-0.6,1.4
		C135.1,130.9,134,134.3,132.7,137.8z M160.3,111.4c-1.1,2.7-1,5.3-0.9,8.1c0.1,2.6-0.3,5.2-0.5,7.8c-0.1,1.4,0,2.8-0.2,4.1
		c-0.2,1.2-0.6,2.4-0.7,3.7c-0.1,0.6,0.1,1.3,0.2,2c-1.4,0.6-2.3,2.2-1.9,4.1c0.3,1.5-0.3,1.9-1.5,2.3c-0.5,0.2-1,0.6-1.3,1.1
		c-1,1.7-2.3,3-4.2,3.8c-1.2,0.5-2.5,1-1.9,3.1c0.3,0.9-0.9,2.3-1.6,3.3c-1.4,2.2-3.9,2.9-6.2,3.6c-0.8,0.2-2.3-0.5-2.8-1.2
		c-1.3-1.9-2.2-4-3.3-6c-0.1-0.3-0.2-0.7-0.1-0.9c2-2.5,4-4.9,5.9-7.3c0.3-0.4,0.6-1.1,0.5-1.6c-0.4-1.5,0-2.7,0.5-4.1
		c0.5-1.3,0.4-3,0.1-4.4c-0.1-0.5-1.5-0.7-2.5-1.1c0.4-1.8,0.7-3.8,2.2-5.6c0.8-1,1.1-2.4,1.5-3.7c0.9-2.8,1.8-5.5,2.6-8.3
		c0.6-2.2,1.1-4.4,1.6-6.7c0.1-0.3,0.2-0.5,0.2-0.7c0.3-1.4,1.7-2.4,0.7-4.4c-0.7-1.5,0.2-3.8,0.6-5.7c0.2-1.2,0.8-2.3,1-3.5
		c0.2-1,0.5-1.6,1.6-1.7c-0.2,1-0.5,1.8-0.4,2.7c0.1,0.6,0.7,1.7,1,1.7c0.9,0,2-0.4,2.8-0.9c0.6-0.4,0.9-1.3,1.2-1.8
		c1.3,0.9,2.5,1.7,3.7,2.6c0.3,0.3,0.7,0.9,0.6,1.2c-0.9,2.6,0.6,5.3-0.4,8c-0.3,0.8,0.4,2.3,1.1,3
		C160.7,109,160.7,110.3,160.3,111.4z"/>
	<path fill="#EC1C24" d="M68.8,82.3c1.6-0.1,3.1-0.1,4.8-0.2c-0.5,3.1,0.2,3.1,2.8,2.4c0.3-0.1,0.6,0.1,0.9,0.2
		c2.2,0.8,4.2,1.8,5.5,3.9c1,1.5,3.5,1.5,4.4,0.5c0.6-0.7,1.5-1.5,2.3-1.7c1.2-0.3,1.3-1.1,1.3-1.9c-0.1-0.8-0.4-2.1-0.9-2.3
		c-2.2-0.8-3.5-2.6-5.1-4c-0.5-0.4-1-1.1-1.6-1.2c-1.7-0.2-3.4-0.4-5.1-0.3c-2.4,0.2-4.7,0.8-7.1,1C68.9,79,68,80.3,68.8,82.3z
		 M86.3,86c-2.5-1-3-3.3-4.4-5.1C84.3,81.1,86.6,83.7,86.3,86z"/>
</g>
</svg>
