<svg width="115" height="25" viewBox="0 0 115 25" fill="none" xmlns="http://www.w3.org/2000/svg">
<path d="M22.7595 20.4996H24.6595C24.8395 20.4996 24.9995 20.4196 25.0795 20.1996L26.0595 17.5796C26.1195 17.4196 26.2195 17.3196 26.3995 17.3196H31.4995C31.6795 17.3196 31.7795 17.4196 31.8395 17.5796L32.8195 20.1996C32.8995 20.4196 33.0395 20.4996 33.2395 20.4996H35.1395C35.4595 20.4996 35.5995 20.2396 35.4995 19.9996L30.4795 6.83961C30.3995 6.61961 30.2395 6.49961 30.0395 6.49961H27.8595C27.6595 6.49961 27.4995 6.61961 27.3995 6.83961L22.3795 19.9996C22.2995 20.2396 22.4395 20.4996 22.7595 20.4996ZM26.9595 14.6796L28.7795 9.69961C28.8395 9.51961 29.0595 9.51961 29.1195 9.69961L30.9195 14.6796C30.9995 14.9196 30.8795 15.0196 30.7595 15.0196H27.1195C26.9995 15.0196 26.8795 14.9196 26.9595 14.6796Z" fill="black"/>
<path d="M37.6862 24.0996H39.1662C39.3862 24.0996 39.5662 23.9196 39.5662 23.6996V20.4796C39.5662 20.1796 39.6862 20.0596 39.9462 20.0596C40.4662 20.0596 40.9062 20.8396 42.7262 20.8396C44.1262 20.8396 45.2862 20.3596 46.0862 19.4596C46.9862 18.4996 47.4862 17.0796 47.4862 15.3996C47.4862 13.7196 46.9862 12.2996 46.0862 11.3396C45.2862 10.4596 44.1262 9.95961 42.7262 9.95961C40.7462 9.95961 40.3462 10.9396 39.7262 10.9396C39.1662 10.9396 39.2662 10.2996 38.7262 10.2996H37.6862C37.4662 10.2996 37.2862 10.4796 37.2862 10.6996V23.6996C37.2862 23.9196 37.4662 24.0996 37.6862 24.0996ZM39.4862 15.3996C39.4862 14.4996 39.7262 13.7196 40.1662 13.1796C40.6462 12.5796 41.3662 12.2196 42.3062 12.2196C43.2462 12.2196 43.9862 12.5796 44.4462 13.1796C44.9062 13.7196 45.1462 14.4996 45.1462 15.3996C45.1462 16.2996 44.9062 17.0796 44.4462 17.6396C43.9862 18.2196 43.2462 18.5796 42.3062 18.5796C41.3662 18.5796 40.6462 18.2196 40.1662 17.6396C39.7262 17.0796 39.4862 16.2996 39.4862 15.3996Z" fill="black"/>
<path d="M50.1229 24.0996H51.6029C51.8229 24.0996 52.0029 23.9196 52.0029 23.6996V20.4796C52.0029 20.1796 52.1229 20.0596 52.3829 20.0596C52.9029 20.0596 53.3429 20.8396 55.1629 20.8396C56.5629 20.8396 57.7229 20.3596 58.5229 19.4596C59.4229 18.4996 59.9229 17.0796 59.9229 15.3996C59.9229 13.7196 59.4229 12.2996 58.5229 11.3396C57.7229 10.4596 56.5629 9.95961 55.1629 9.95961C53.1829 9.95961 52.7829 10.9396 52.1629 10.9396C51.6029 10.9396 51.7029 10.2996 51.1629 10.2996H50.1229C49.9029 10.2996 49.7229 10.4796 49.7229 10.6996V23.6996C49.7229 23.9196 49.9029 24.0996 50.1229 24.0996ZM51.9229 15.3996C51.9229 14.4996 52.1629 13.7196 52.6029 13.1796C53.0829 12.5796 53.8029 12.2196 54.7429 12.2196C55.6829 12.2196 56.4229 12.5796 56.8829 13.1796C57.3429 13.7196 57.5829 14.4996 57.5829 15.3996C57.5829 16.2996 57.3429 17.0796 56.8829 17.6396C56.4229 18.2196 55.6829 18.5796 54.7429 18.5796C53.8029 18.5796 53.0829 18.2196 52.6029 17.6396C52.1629 17.0796 51.9229 16.2996 51.9229 15.3996Z" fill="black"/>
<path d="M62.5601 20.4996H64.0201C64.2401 20.4996 64.4201 20.3196 64.4201 20.0996V15.4596C64.4201 13.4396 65.6801 12.6796 67.0801 12.6796H68.2201C68.4401 12.6796 68.6201 12.4996 68.6201 12.2796V10.6996C68.6201 10.4796 68.4401 10.2996 68.2201 10.2996H67.2001C65.3001 10.2996 65.0201 11.3996 64.4801 11.3996C64.1801 11.3996 64.1001 11.0796 64.0201 10.6996C63.9601 10.4196 63.7801 10.2996 63.5801 10.2996H62.5601C62.3401 10.2996 62.1401 10.4796 62.1401 10.6996V20.0996C62.1401 20.3196 62.3401 20.4996 62.5601 20.4996Z" fill="black"/>
<path d="M74.546 20.8396C76.246 20.8396 77.6061 20.2596 78.5061 19.2196C79.3061 18.2796 79.766 16.9796 79.766 15.3996C79.766 13.8196 79.3061 12.5196 78.5061 11.5796C77.6061 10.5396 76.246 9.95961 74.546 9.95961C72.866 9.95961 71.506 10.5396 70.606 11.5796C69.806 12.5196 69.3461 13.8196 69.3461 15.3996C69.3461 16.9796 69.806 18.2796 70.606 19.2196C71.506 20.2596 72.866 20.8396 74.546 20.8396ZM71.686 15.3996C71.686 14.4796 71.926 13.7196 72.386 13.1596C72.846 12.5596 73.586 12.2196 74.546 12.2196C75.526 12.2196 76.266 12.5596 76.726 13.1596C77.186 13.7196 77.426 14.4796 77.426 15.3996C77.426 16.3196 77.186 17.0996 76.726 17.6396C76.266 18.2396 75.526 18.5796 74.546 18.5796C73.586 18.5796 72.846 18.2396 72.386 17.6396C71.926 17.0996 71.686 16.3196 71.686 15.3996Z" fill="black"/>
<path d="M85.1112 20.8396C86.9512 20.8396 87.4912 19.8596 88.0312 19.8596C88.6312 19.8596 88.4912 20.4996 89.0712 20.4996H90.0912C90.3112 20.4996 90.4912 20.3196 90.4912 20.0996V13.7196C90.4912 11.1596 88.8512 9.95961 86.1512 9.95961C83.6512 9.95961 81.8512 11.2596 81.7912 13.0396C81.7712 13.2996 81.9112 13.4396 82.1912 13.4396H83.5712C83.8112 13.4396 83.9912 13.3796 84.0512 13.0996C84.1312 12.3996 84.9512 11.9196 86.1912 11.9196C87.5912 11.9196 88.2912 12.6196 88.2912 13.6396V14.0396C88.2912 14.1796 88.2312 14.2396 88.0912 14.2396H85.1112C82.5912 14.2396 81.3912 15.5796 81.3912 17.4596C81.3912 19.3796 82.7512 20.8396 85.1112 20.8396ZM83.7312 17.3596C83.7312 16.5396 84.2512 16.0596 85.2712 16.0596H88.0912C88.2312 16.0596 88.2912 16.1196 88.2912 16.2996V16.7996C88.2912 18.1596 87.1312 18.8996 85.7512 18.8996C84.4912 18.8996 83.7312 18.3796 83.7312 17.3596Z" fill="black"/>
<path d="M97.7175 20.8396C100.137 20.8396 102.057 19.3796 102.277 17.1396C102.297 16.9196 102.137 16.7396 101.917 16.7396H100.377C100.177 16.7396 100.037 16.8396 99.9575 17.0596C99.7375 17.8796 98.9375 18.5796 97.7175 18.5796C96.7975 18.5796 96.1175 18.2596 95.6575 17.6596C95.2175 17.1196 94.9775 16.3396 94.9775 15.3996C94.9775 14.4596 95.2175 13.6796 95.6575 13.1396C96.1175 12.5396 96.7975 12.2196 97.7175 12.2196C99.0375 12.2196 99.7375 12.9196 99.9575 13.7396C100.037 13.9596 100.177 14.0596 100.377 14.0596H101.917C102.137 14.0596 102.297 13.8796 102.277 13.6596C102.057 11.4196 100.217 9.95961 97.7175 9.95961C96.0975 9.95961 94.7775 10.5196 93.8775 11.5596C93.0975 12.4796 92.6375 13.7996 92.6375 15.3996C92.6375 17.0196 93.0975 18.3196 93.8775 19.2596C94.7775 20.2796 96.0975 20.8396 97.7175 20.8396Z" fill="black"/>
<path d="M104.748 20.4996H106.228C106.448 20.4996 106.628 20.3196 106.628 20.0996V14.6796C106.628 13.0996 107.588 12.2196 108.948 12.2196C110.288 12.2196 111.248 13.0996 111.248 14.6796V20.0996C111.248 20.3196 111.428 20.4996 111.648 20.4996H113.128C113.348 20.4996 113.528 20.3196 113.528 20.0996V14.3196C113.528 11.5196 111.828 9.95961 109.548 9.95961C107.668 9.95961 107.508 10.6796 106.968 10.6796C106.748 10.6796 106.628 10.5596 106.628 10.2796V6.49961C106.628 6.27961 106.448 6.09961 106.228 6.09961H104.748C104.528 6.09961 104.348 6.27961 104.348 6.49961V20.0996C104.348 20.3196 104.528 20.4996 104.748 20.4996Z" fill="black"/>
<path fill-rule="evenodd" clip-rule="evenodd" d="M9.81441 9.37205C9.81441 10.9582 8.52855 12.2441 6.94236 12.2441C5.35617 12.2441 4.07031 10.9582 4.07031 9.37205C4.07031 7.78586 5.35617 6.5 6.94236 6.5C8.52855 6.5 9.81441 7.78586 9.81441 9.37205ZM5.74409 17.63C5.74409 19.2162 4.45823 20.502 2.87205 20.502C1.28586 20.502 0 19.2162 0 17.63C0 16.0438 1.28586 14.7579 2.87205 14.7579C4.45823 14.7579 5.74409 16.0438 5.74409 17.63ZM11.1279 20.5019C12.7141 20.5019 14 19.216 14 17.6299C14 16.0437 12.7141 14.7578 11.1279 14.7578C9.54172 14.7578 8.25586 16.0437 8.25586 17.6299C8.25586 19.216 9.54172 20.5019 11.1279 20.5019Z" fill="black"/>
</svg>
