<svg width="74" height="80" viewBox="0 0 74 80" fill="none" xmlns="http://www.w3.org/2000/svg">
<path d="M13.7433 1.72648C16.4643 0.882374 20.1595 0.390321 26.0877 0.0829446C30.1633 -0.128317 36.3686 0.0774431 40.0879 0.547316C48.2792 1.58223 55.5721 4.46532 61.2356 8.90733C66.4451 12.9934 70.3423 19.3083 71.939 26.25C72.8888 30.3799 73.2795 34.0754 73.2795 38.9272C73.2795 48.8021 71.3551 56.8467 67.563 62.8237C59.8399 74.997 46.5427 80.3013 25.9304 79.4313C17.5671 79.0781 14.006 78.4752 10.6717 76.8475C9.56507 76.3072 9.06122 75.9235 7.74835 74.6217C6.28037 73.1659 6.0971 72.9136 5.29185 71.2396C3.10451 66.692 2.01297 61.6812 1.29974 52.9134C0.807372 46.8601 0.767722 34.0699 1.22218 27.8231C2.01579 16.913 4.18269 9.03381 7.32205 5.64292C9.0963 3.72662 10.9599 2.58993 13.7433 1.72648Z" fill="black" style="fill:black;fill-opacity:1;"/>
</svg>
