<svg width="69" height="80" viewBox="0 0 69 80" fill="none" xmlns="http://www.w3.org/2000/svg">
<path d="M23.3949 4.03885C28.4215 1.89414 35.4148 0.358208 41.4271 0.0785174C49.2837 -0.286905 56.0515 0.636168 59.7432 2.57654C62.382 3.96335 64.4666 6.462 65.1908 9.106C65.3201 9.57792 65.468 10.7074 65.5193 11.6158C65.7219 15.203 64.5224 18.4045 62.2484 20.3463C59.612 22.5974 56.7814 23.6044 51.416 24.1998C46.4719 24.7485 43.8763 25.2731 41.1125 26.2824C36.6124 27.9256 33.7509 30.0868 32.2572 32.9706C30.777 35.8288 30.2764 39.7352 30.9624 43.077C31.619 46.2751 33.6723 49.2104 36.0216 50.3093C38.1123 51.2873 40.9404 51.25 41.7024 50.2345C42.0006 49.8369 42.1299 48.9301 41.9586 48.4383C41.8057 47.9998 41.5507 47.8222 40.0211 47.0897C38.0075 46.1255 37.3149 45.486 36.63 43.9587C35.9772 42.5033 35.7782 41.4459 35.7826 39.459C35.7878 37.1932 36.1347 35.5503 36.9684 33.8433C38.4021 30.9077 41.5275 28.9527 46.0046 28.1907C48.3047 27.7992 54.5375 27.8009 56.6768 28.1935C60.5607 28.9063 62.8116 30.0895 65.0757 32.6086C67.6327 35.4534 68.8326 39.7758 68.9865 46.6951C69.099 51.7597 68.6804 55.4076 67.5312 59.3727C66.984 61.2616 66.4969 62.4705 65.3919 64.6848C63.6384 68.1974 61.6319 70.7141 58.7308 73.0394C53.2073 77.4667 46.6204 79.4559 37.4944 79.453C30.841 79.4508 24.8712 78.1096 19.4944 75.4092C14.7557 73.0292 10.1943 68.9227 7.08213 64.2347C5.92168 62.4867 4.08983 58.953 3.30802 56.9549C-0.243163 47.8774 -0.702023 34.989 2.20908 26.088C4.70616 18.4527 10.215 11.5969 17.3981 7.18529C19.1574 6.1046 21.788 4.72439 23.3949 4.03885Z" fill="black" style="fill:black;fill-opacity:1;"/>
</svg>
