<svg width="97" height="79" viewBox="0 0 97 79" fill="none" xmlns="http://www.w3.org/2000/svg">
<path d="M4.25092 9.78114C7.27245 3.78038 13.237 0.457137 21.7146 0.0512876C27.0568 -0.204649 31.241 0.493474 34.7845 2.23171C36.6885 3.16563 37.7504 3.91488 39.1041 5.28014C41.7346 7.93248 42.9496 10.5128 44.2981 16.3093C45.5356 21.6296 46.2012 23.2457 47.397 23.8333C48.1488 24.2025 48.8636 23.9974 49.5502 23.2154C50.3415 22.3142 50.6745 21.292 51.9023 15.9947C52.9348 11.5406 54.1143 8.75173 55.926 6.48117C59.632 1.83624 65.9318 -0.354877 74.4121 0.0512876C80.4355 0.33963 85.1063 2.04357 88.4058 5.15618C90.5538 7.18244 91.9255 9.41179 93.1018 12.7877C95.4318 19.4747 96.2508 27.6926 96.0707 42.5795C95.9135 55.5733 95.3172 61.7203 93.6963 67.0582C92.4823 71.0561 91.4643 72.9353 89.3562 75.0694C87.6982 76.7481 86.3484 77.5648 84.1651 78.2099C82.4972 78.7029 78.5725 78.8335 76.8618 78.4529C75.0195 78.043 73.5853 77.244 72.2053 75.8588C70.0741 73.7193 69.0135 71.0163 68.4383 66.2581C68.2187 64.4411 68.2336 58.4332 68.4659 55.109C68.6379 52.6503 68.63 52.2763 68.3875 51.3337C68.0455 50.0059 67.4782 49.4223 66.5294 49.4223C65.6977 49.4223 65.0272 49.9006 64.6609 50.7554C64.5048 51.1193 63.9044 53.4635 63.3263 55.9646C61.4463 64.0992 60.4435 67.3427 58.6084 71.2236C57.553 73.4552 56.7422 74.6409 55.5041 75.7638C51.7527 79.1659 44.8534 79.2867 40.9335 76.0188C39.5929 74.9011 38.6753 73.6225 37.5953 71.3665C35.7384 67.4878 34.6541 64.0384 32.9722 56.6583C31.6923 51.0427 31.6305 50.8059 31.3025 50.2752C30.7295 49.3475 29.3384 49.1163 28.5124 49.8113C27.7705 50.4356 27.6019 51.3208 27.6878 54.1415C27.7285 55.4825 27.7638 58.7741 27.766 61.4562C27.7693 65.4864 27.7204 66.6144 27.4836 67.9557C26.8305 71.6581 25.7795 74.0842 24.0823 75.8086C22.777 77.1347 21.6933 77.7694 19.8138 78.3085C18.4686 78.6944 18.2449 78.7128 15.7656 78.6397C13.6968 78.5788 12.8927 78.4896 11.9658 78.2182C8.51501 77.208 5.77301 74.7989 3.96447 71.1884C2.81314 68.8898 1.69533 64.7173 1.12573 60.591C-0.372299 49.7405 -0.375763 30.4165 1.11849 20.539C1.6785 16.8365 3.02267 12.2203 4.25092 9.78114Z" fill="black" style="fill:black;fill-opacity:1;"/>
</svg>
