<svg width="73" height="79" viewBox="0 0 73 79" fill="none" xmlns="http://www.w3.org/2000/svg">
<path d="M2.88078 15.34C5.30124 5.669 10.5362 1.07724 20.2057 0.143626C25.1545 -0.334113 29.8512 0.389337 33.3863 2.17397C38.2249 4.61647 40.9013 8.481 42.2666 14.9971C42.991 18.4548 43.7147 21.2532 44.0894 22.0464C44.5138 22.9445 45.18 23.6516 45.7325 23.7902C46.3693 23.95 47.1407 23.5322 47.4821 22.8424C47.7514 22.2978 47.794 21.7235 47.8829 17.4353C48.0135 11.1352 48.4187 8.53748 49.6903 5.85038C51.9976 0.975303 56.2605 -0.92873 61.7856 0.448327C66.0859 1.52021 68.2878 4.12426 69.8044 9.93168C71.3325 15.783 71.8794 22.0671 72.0397 35.613C72.2512 53.4907 71.151 63.5746 68.3149 69.7489C66.2254 74.2983 62.8436 76.8925 57.4597 78.0764C55.844 78.4315 50.8245 78.5741 48.9151 78.3188C42.6386 77.4797 38.733 74.4295 35.5125 67.8519C33.6959 64.1419 32.4444 59.9443 31.1973 53.3798C30.6812 50.6636 30.4714 50.066 29.8743 49.6104C29.2644 49.1453 28.3878 49.0814 27.8102 49.4599C27.6013 49.5967 27.303 50.0391 27.1471 50.443C26.8221 51.2851 26.8053 52.4174 27.0139 59.4361C27.2111 66.0737 26.6834 69.8944 25.1072 73.2381C23.9211 75.7545 21.4344 77.7393 18.7624 78.3022C16.8508 78.7051 13.3158 78.4562 11.4324 77.7864C9.16248 76.979 7.00878 75.1376 5.57211 72.7756C2.10602 67.0769 0.831404 58.1487 0.827156 39.5368C0.82464 28.1279 1.41169 21.2099 2.88078 15.34Z" fill="black" style="fill:black;fill-opacity:1;"/>
</svg>
