<svg width="65" height="79" viewBox="0 0 65 79" fill="none" xmlns="http://www.w3.org/2000/svg">
<path d="M4.20068 7.01215C7.40013 2.49888 14.6652 0.385797 28.0967 0.0617464C43.5228 -0.310282 53.0573 0.992992 57.8579 4.12983C59.2632 5.04787 61.036 7.00287 61.8 8.47699C62.4912 9.81032 63.3267 12.3209 63.5749 13.8109C64.33 18.3435 64.1838 25.2664 63.2567 28.8917C62.4964 31.8648 60.9201 33.9872 58.5238 35.2643C57.1217 36.0115 56.199 36.2215 53.8666 36.3244C51.4318 36.4317 50.7944 36.6777 50.2769 37.7104C49.9911 38.2807 49.9648 38.6192 49.9903 41.4057C50.0058 43.0928 50.0916 45.712 50.1811 47.226C50.2706 48.7401 50.3922 52.8812 50.4513 56.4284C50.5638 63.1791 50.5105 64.1567 49.8728 67.0466C48.4438 73.5205 44.0082 77.3365 36.5913 78.4727C34.3407 78.8175 29.1315 78.6896 27.1298 78.2404C23.7483 77.4815 21.4866 76.3937 19.4433 74.543C16.8544 72.1982 15.5266 69.4182 14.8689 64.9647C14.6477 63.4681 14.6209 62.3365 14.696 57.6869C14.7447 54.6587 14.8654 50.3699 14.964 48.1562C15.0625 45.9424 15.1201 42.7181 15.0918 40.9912C15.0479 38.3132 14.9996 37.7892 14.7628 37.4284C14.2203 36.6016 13.8157 36.4676 11.5146 36.353C10.3391 36.2945 9.02337 36.158 8.59078 36.0496C5.40408 35.2517 2.78634 32.502 1.89473 29.0161C0.545673 23.741 0.691814 16.0653 2.23546 11.1243C2.81214 9.27862 3.26329 8.33447 4.20068 7.01215Z" fill="black" style="fill:black;fill-opacity:1;"/>
</svg>
