<svg width="153" height="153" viewBox="0 0 153 153" fill="none" xmlns="http://www.w3.org/2000/svg">
<path d="M76.8125 152.039C118.786 152.039 152.812 118.013 152.812 76.0391C152.812 34.0654 118.786 0.0390625 76.8125 0.0390625C34.8389 0.0390625 0.8125 34.0654 0.8125 76.0391C0.8125 118.013 34.8389 152.039 76.8125 152.039Z" fill="#F67F15"/>
<path d="M91.5876 46.4152C90.497 45.8909 89.3789 45.4258 88.2382 45.0218" stroke="white" stroke-width="4.465" stroke-miterlimit="10" stroke-linecap="round"/>
<path d="M101.564 53.735C100.736 52.8521 99.8617 52.0145 98.9439 51.2258" stroke="#FFBB88" stroke-width="4.465" stroke-miterlimit="10" stroke-linecap="round"/>
<path d="M108.222 64.1616C107.77 63.0393 107.257 61.9423 106.686 60.8753" stroke="white" stroke-width="4.465" stroke-miterlimit="10" stroke-linecap="round"/>
<path d="M110.664 76.2923C110.648 75.0824 110.566 73.8741 110.419 72.673" stroke="#FFBB88" stroke-width="4.465" stroke-miterlimit="10" stroke-linecap="round"/>
<path d="M108.559 88.4844C108.98 87.35 109.34 86.1938 109.637 85.0207" stroke="white" stroke-width="4.465" stroke-miterlimit="10" stroke-linecap="round"/>
<path d="M102.193 99.0938C102.996 98.1883 103.749 97.2401 104.45 96.2535" stroke="white" stroke-width="4.465" stroke-miterlimit="10" stroke-linecap="round"/>
<path d="M68.2348 109.267C72.841 110.508 77.6585 110.757 82.3681 109.996C87.0777 109.236 91.5719 107.483 95.5528 104.854" stroke="white" stroke-width="4.465" stroke-miterlimit="10" stroke-linecap="round"/>
<path d="M48.6215 94.878C51.5186 99.4153 55.4615 103.192 60.1194 105.891" stroke="white" stroke-width="4.465" stroke-miterlimit="10" stroke-linecap="round"/>
<path d="M43.9916 83.4037C44.2304 84.59 44.533 85.7625 44.8981 86.9163" stroke="#FFBB88" stroke-width="4.465" stroke-miterlimit="10" stroke-linecap="round"/>
<path d="M67.3382 44.5075C60.7477 46.4818 54.9202 50.4278 50.6401 55.8142C46.36 61.2007 43.8328 67.7691 43.3987 74.6353" stroke="#FFBB88" stroke-width="4.465" stroke-miterlimit="10" stroke-linecap="round"/>
<path d="M79.6402 43.1929C78.4339 43.098 77.2233 43.0681 76.0137 43.1035" stroke="white" stroke-width="4.465" stroke-miterlimit="10" stroke-linecap="round"/>
<path d="M98.7407 40.1498C94.4477 37.6003 89.7397 35.8258 84.8319 34.9073" stroke="#FFBB88" stroke-width="4.465" stroke-miterlimit="10" stroke-linecap="round"/>
<path d="M114.597 56.7768C112.254 52.3679 109.153 48.4056 105.437 45.0708" stroke="white" stroke-width="4.465" stroke-miterlimit="10" stroke-linecap="round"/>
<path d="M117.266 90.5989C120.168 82.1536 120.341 73.0096 117.762 64.4603" stroke="white" stroke-width="4.465" stroke-miterlimit="10" stroke-linecap="round"/>
<path d="M112.039 100.949C112.666 100.041 113.257 99.1097 113.811 98.1561" stroke="#FFBB88" stroke-width="4.465" stroke-miterlimit="10" stroke-linecap="round"/>
<path d="M94.3691 115.635C98.9277 113.598 103.092 110.775 106.673 107.295" stroke="white" stroke-width="4.465" stroke-miterlimit="10" stroke-linecap="round"/>
<path d="M71.6434 118.999C76.5967 119.627 81.6219 119.379 86.4893 118.266" stroke="#FFBB88" stroke-width="4.465" stroke-miterlimit="10" stroke-linecap="round"/>
<path d="M60.445 115.99C61.4612 116.419 62.4937 116.808 63.5402 117.157" stroke="#FFBB88" stroke-width="4.465" stroke-miterlimit="10" stroke-linecap="round"/>
<path d="M50.474 110.069C51.3369 110.756 52.2261 111.41 53.1397 112.028" stroke="white" stroke-width="4.465" stroke-miterlimit="10" stroke-linecap="round"/>
<path d="M34.5504 80.1105C35.2531 89.0128 38.7369 97.4689 44.5092 104.283" stroke="#FFBB88" stroke-width="4.465" stroke-miterlimit="10" stroke-linecap="round"/>
<path d="M38.99 57.5686C36.7395 62.0256 35.2904 66.8437 34.709 71.8027" stroke="white" stroke-width="4.465" stroke-miterlimit="10" stroke-linecap="round"/>
<path d="M54.495 40.6132C50.2563 43.252 46.5148 46.6158 43.4414 50.5508" stroke="white" stroke-width="4.465" stroke-miterlimit="10" stroke-linecap="round"/>
<path d="M76.5531 34.1821C71.5604 34.2344 66.6158 35.1644 61.9453 36.9297" stroke="#FFBB88" stroke-width="4.465" stroke-miterlimit="10" stroke-linecap="round"/>
<path d="M101.841 31.6577C100.832 31.1018 99.8039 30.5799 98.7597 30.093" stroke="white" stroke-width="4.465" stroke-miterlimit="10" stroke-linecap="round"/>
<path d="M119.954 48.3682C117.026 43.938 113.43 39.9874 109.294 36.6565" stroke="#FFBB88" stroke-width="4.465" stroke-miterlimit="10" stroke-linecap="round"/>
<path d="M124.765 95.9843C127.312 89.6575 128.576 82.8879 128.484 76.0686C128.393 69.2493 126.947 62.516 124.232 56.2599" stroke="#FFBB88" stroke-width="4.465" stroke-miterlimit="10" stroke-linecap="round"/>
<path d="M110.359 115.98C114.404 112.54 117.893 108.494 120.701 103.987" stroke="white" stroke-width="4.465" stroke-miterlimit="10" stroke-linecap="round"/>
<path d="M75.9609 128.24C85.4667 128.432 94.8398 125.987 103.042 121.178" stroke="#FFBB88" stroke-width="4.465" stroke-miterlimit="10" stroke-linecap="round"/>
<path d="M63.6719 126.494C64.7849 126.792 65.9076 127.053 67.038 127.276" stroke="white" stroke-width="4.465" stroke-miterlimit="10" stroke-linecap="round"/>
<path d="M42.0853 114.605C45.9885 118.205 50.4252 121.181 55.2381 123.425" stroke="white" stroke-width="4.465" stroke-miterlimit="10" stroke-linecap="round"/>
<path d="M34.0425 105.149C34.6778 106.111 35.3453 107.05 36.0436 107.967" stroke="#FFBB88" stroke-width="4.465" stroke-miterlimit="10" stroke-linecap="round"/>
<path d="M28.498 94.0459C28.8848 95.1313 29.3079 96.2033 29.7667 97.2603" stroke="white" stroke-width="4.465" stroke-miterlimit="10" stroke-linecap="round"/>
<path d="M25.7692 81.9351C25.885 83.0816 26.0393 84.2238 26.2318 85.3598" stroke="#FFBB88" stroke-width="4.465" stroke-miterlimit="10" stroke-linecap="round"/>
<path d="M65.6858 26.5283C54.9165 28.9538 45.2118 34.7761 38.0031 43.1365C30.7945 51.4968 26.4635 61.9526 25.6491 72.9616" stroke="#FFBB88" stroke-width="4.465" stroke-miterlimit="10" stroke-linecap="round"/>
<path d="M78.0356 25.2798C76.8835 25.2566 75.7311 25.272 74.5801 25.3262" stroke="white" stroke-width="4.465" stroke-miterlimit="10" stroke-linecap="round"/>
<path d="M90.3251 27.0241C89.2122 26.7259 88.0895 26.4651 86.959 26.2422" stroke="#FFBB88" stroke-width="4.465" stroke-miterlimit="10" stroke-linecap="round"/>
<path d="M111.829 27.4093C110.677 26.5959 109.496 25.8232 108.29 25.0925" stroke="white" stroke-width="4.465" stroke-miterlimit="10" stroke-linecap="round"/>
<path d="M136.914 84.4148C138.114 75.0183 137.088 65.4711 133.918 56.5443C130.748 47.6176 125.522 39.5617 118.664 33.0273" stroke="white" stroke-width="4.465" stroke-miterlimit="10" stroke-linecap="round"/>
<path d="M109.951 127.379C122.234 119.384 131.19 107.195 135.152 93.085" stroke="#FFBB88" stroke-width="4.465" stroke-miterlimit="10" stroke-linecap="round"/>
<path d="M47.7121 129.582C55.9968 134.176 65.2458 136.756 74.7119 137.115C84.178 137.475 93.5959 135.602 102.205 131.649" stroke="white" stroke-width="4.465" stroke-miterlimit="10" stroke-linecap="round"/>
<path d="M37.0398 122.051C38.0976 122.984 39.1877 123.88 40.3082 124.737" stroke="#FFBB88" stroke-width="4.465" stroke-miterlimit="10" stroke-linecap="round"/>
<path d="M28.2381 112.402C29.0705 113.54 29.9425 114.65 30.8526 115.727" stroke="#FFBB88" stroke-width="4.465" stroke-miterlimit="10" stroke-linecap="round"/>
<path d="M21.715 101.086C22.2832 102.377 22.8964 103.648 23.5535 104.896" stroke="white" stroke-width="4.465" stroke-miterlimit="10" stroke-linecap="round"/>
<path d="M17.7783 88.633C18.0556 90.016 18.3813 91.389 18.7547 92.7492" stroke="white" stroke-width="4.465" stroke-miterlimit="10" stroke-linecap="round"/>
<path d="M38.7693 29.997C31.4355 35.993 25.6148 43.6299 21.7774 52.2908C17.9401 60.9517 16.1936 70.3938 16.6791 79.8543" stroke="white" stroke-width="4.465" stroke-miterlimit="10" stroke-linecap="round"/>
<path d="M49.7147 22.872C48.4563 23.5092 47.2205 24.1903 46.0098 24.9141" stroke="white" stroke-width="4.465" stroke-miterlimit="10" stroke-linecap="round"/>
<path d="M61.9382 18.265C60.5722 18.6168 59.2189 19.0164 57.8809 19.4629" stroke="white" stroke-width="4.465" stroke-miterlimit="10" stroke-linecap="round"/>
<path d="M100.406 21.0755C91.0134 17.1272 80.7747 15.6191 70.6426 16.6914" stroke="#FFBB88" stroke-width="4.465" stroke-miterlimit="10" stroke-linecap="round"/>
<path d="M119.973 22.3785C115.278 18.6684 110.123 15.5819 104.636 13.196" stroke="white" stroke-width="4.465" stroke-miterlimit="10" stroke-linecap="round"/>
<path d="M129.488 31.4939C128.459 30.3001 127.389 29.1417 126.28 28.0208" stroke="white" stroke-width="4.465" stroke-miterlimit="10" stroke-linecap="round"/>
<path d="M137.106 42.2457C136.321 40.8786 135.489 39.5386 134.613 38.2282" stroke="#FFBB88" stroke-width="4.465" stroke-miterlimit="10" stroke-linecap="round"/>
<path d="M146.223 80.2211C146.744 69.816 144.912 59.4274 140.864 49.8279" stroke="white" stroke-width="4.465" stroke-miterlimit="10" stroke-linecap="round"/>
<path d="M144.318 93.2594C144.693 91.7283 145.016 90.1848 145.286 88.6317" stroke="white" stroke-width="4.465" stroke-miterlimit="10" stroke-linecap="round"/>
<path d="M139.979 105.703C140.637 104.271 141.246 102.816 141.805 101.342" stroke="white" stroke-width="4.465" stroke-miterlimit="10" stroke-linecap="round"/>
<path d="M133.363 117.098C134.281 115.816 135.154 114.503 135.982 113.161" stroke="white" stroke-width="4.465" stroke-miterlimit="10" stroke-linecap="round"/>
<path d="M124.709 127.037C125.853 125.952 126.959 124.828 128.026 123.667" stroke="#FFBB88" stroke-width="4.465" stroke-miterlimit="10" stroke-linecap="round"/>
<path d="M114.332 135.156C115.66 134.307 116.959 133.413 118.226 132.475" stroke="white" stroke-width="4.465" stroke-miterlimit="10" stroke-linecap="round"/>
<path d="M76.832 146.07C87.2501 146.095 97.5397 143.771 106.936 139.271" stroke="white" stroke-width="4.465" stroke-miterlimit="10" stroke-linecap="round"/>
<path d="M63.7188 144.787C65.266 145.089 66.8231 145.338 68.3874 145.534" stroke="white" stroke-width="4.465" stroke-miterlimit="10" stroke-linecap="round"/>
<path d="M29.0485 126.81C36.5713 134.017 45.622 139.436 55.5277 142.663" stroke="#FFBB88" stroke-width="4.465" stroke-miterlimit="10" stroke-linecap="round"/>
<path d="M20.4426 116.828C21.354 118.115 22.309 119.37 23.3059 120.591" stroke="white" stroke-width="4.465" stroke-miterlimit="10" stroke-linecap="round"/>
<path d="M13.8815 105.401C14.533 106.836 15.2333 108.249 15.9811 109.637" stroke="white" stroke-width="4.465" stroke-miterlimit="10" stroke-linecap="round"/>
<path d="M9.60043 92.9395C9.96845 94.4724 10.3887 95.9923 10.8603 97.4966" stroke="white" stroke-width="4.465" stroke-miterlimit="10" stroke-linecap="round"/>
<path d="M7.75805 79.8922C7.82931 81.4671 7.95428 83.039 8.13274 84.6053" stroke="#FFBB88" stroke-width="4.465" stroke-miterlimit="10" stroke-linecap="round"/>
<path d="M8.41524 66.7312C8.18717 68.2911 8.01239 69.8583 7.8912 71.4301" stroke="white" stroke-width="4.465" stroke-miterlimit="10" stroke-linecap="round"/>
<path d="M11.5527 53.9333C11.0336 55.4218 10.5654 56.9276 10.1489 58.448" stroke="#FFBB88" stroke-width="4.465" stroke-miterlimit="10" stroke-linecap="round"/>
<path d="M34.2824 22.1735C26.0779 28.594 19.4264 36.7814 14.8223 46.127" stroke="white" stroke-width="4.465" stroke-miterlimit="10" stroke-linecap="round"/>
<path d="M57.6283 10.208C51.883 11.8801 46.3785 14.2891 41.252 17.375" stroke="white" stroke-width="4.465" stroke-miterlimit="10" stroke-linecap="round"/>
<path d="M70.5728 7.74522C69.0031 7.89134 67.4389 8.09096 65.8828 8.34375" stroke="#FFBB88" stroke-width="4.465" stroke-miterlimit="10" stroke-linecap="round"/>
<path d="M83.7497 7.77642C82.1808 7.62284 80.607 7.52283 79.0312 7.47656" stroke="white" stroke-width="4.465" stroke-miterlimit="10" stroke-linecap="round"/>
<path d="M96.6839 10.3007C95.1723 9.85298 93.646 9.45693 92.1074 9.11328" stroke="#FFBB88" stroke-width="4.465" stroke-miterlimit="10" stroke-linecap="round"/>
<path d="M76.9982 71.0645C73.8274 71.0645 71.2832 73.6086 71.2832 76.7984C71.2832 79.9691 73.8274 82.5133 76.9982 82.5133C80.1689 82.5133 82.7131 79.9691 82.7131 76.7984C82.7131 73.5897 80.1689 71.0645 76.9982 71.0645ZM76.9982 80.5957C74.9096 80.5957 73.2008 78.9059 73.2008 76.7984C73.2008 74.6719 74.8906 72.9821 76.9982 72.9821C79.1057 72.9821 80.7955 74.6719 80.7955 76.7984C80.7955 78.9059 79.1057 80.5957 76.9982 80.5957Z" fill="white"/>
<path d="M84.8205 71.4824C84.042 71.4824 83.3965 72.1469 83.3965 72.8874C83.3965 73.6849 84.042 74.2924 84.8205 74.2924C85.5799 74.2734 86.2255 73.6659 86.2255 72.8874C86.2255 72.128 85.5799 71.4824 84.8205 71.4824Z" fill="white"/>
<path d="M77.0173 56.4824C77.0173 56.4824 76.9983 56.4824 77.0173 56.4824C65.7963 56.4824 56.7207 65.558 56.7207 76.76C56.7207 87.9621 65.7963 97.0377 76.9983 97.0377C88.2004 97.0377 97.2759 87.9621 97.2759 76.76C97.2759 65.577 88.2004 56.5014 77.0173 56.4824ZM90.099 82.3801C90.099 84.6395 88.8839 85.8356 86.6055 85.8356H67.3721C65.0748 85.8356 63.8786 84.6395 63.8786 82.3801V71.2539C63.8786 68.9945 65.0748 67.7984 67.3721 67.7984H70.1442C70.9796 67.7984 71.2454 67.6465 71.758 67.1149L72.5934 66.2225C73.1441 65.6339 73.7136 65.3491 74.7959 65.3491H79.1438C80.226 65.3491 80.7956 65.6339 81.3462 66.2225L82.1816 67.1149C82.6943 67.6465 82.9601 67.7984 83.7955 67.7984H86.6055C88.9029 67.7984 90.099 68.9945 90.099 71.2539V82.3801H90.099Z" fill="white"/>
<path d="M76.9665 56.4297C65.7455 56.4297 56.6699 65.5052 56.6699 76.7073C56.6699 87.9094 65.7455 96.9849 76.9475 96.9849C88.1496 96.9849 97.2252 87.9094 97.2252 76.7073C97.2252 65.5242 88.1496 56.4487 76.9665 56.4297Z" fill="white"/>
<path d="M68.666 73.9804C68.666 73.6884 68.666 73.5425 68.6782 73.4195C68.7957 72.2337 69.7337 71.2957 70.9195 71.1782C71.0425 71.166 71.1963 71.166 71.504 71.166C71.6226 71.166 71.6818 71.166 71.7322 71.163C72.3749 71.124 72.9376 70.7184 73.1778 70.121C73.1966 70.0742 73.2142 70.0215 73.2493 69.916C73.2845 69.8105 73.3021 69.7578 73.3209 69.711C73.5611 69.1136 74.1238 68.708 74.7665 68.6691C74.8169 68.666 74.8724 68.666 74.9836 68.666H79.0151C79.1262 68.666 79.1818 68.666 79.2322 68.6691C79.8749 68.708 80.4376 69.1136 80.6778 69.711C80.6966 69.7578 80.7142 69.8105 80.7493 69.916C80.7845 70.0215 80.8021 70.0742 80.8209 70.121C81.0611 70.7184 81.6238 71.124 82.2665 71.163C82.3169 71.166 82.3761 71.166 82.4947 71.166C82.8024 71.166 82.9562 71.166 83.0792 71.1782C84.265 71.2957 85.203 72.2337 85.3205 73.4195C85.3327 73.5425 85.3327 73.6884 85.3327 73.9804V80.4993C85.3327 81.8995 85.3327 82.5995 85.0602 83.1343C84.8205 83.6047 84.4381 83.9872 83.9677 84.2269C83.4329 84.4993 82.7328 84.4993 81.3327 84.4993H72.666C71.2659 84.4993 70.5658 84.4993 70.031 84.2269C69.5606 83.9872 69.1782 83.6047 68.9385 83.1343C68.666 82.5995 68.666 81.8995 68.666 80.4993V73.9804Z" stroke="#F67F15" stroke-width="2" stroke-linecap="round" stroke-linejoin="round"/>
<path d="M76.9993 80.7493C78.8403 80.7493 80.3327 79.257 80.3327 77.416C80.3327 75.5751 78.8403 74.0827 76.9993 74.0827C75.1584 74.0827 73.666 75.5751 73.666 77.416C73.666 79.257 75.1584 80.7493 76.9993 80.7493Z" stroke="#F67F15" stroke-width="2" stroke-linecap="round" stroke-linejoin="round"/>
</svg>
