<svg width="48" height="48" viewBox="0 0 48 48" fill="none" xmlns="http://www.w3.org/2000/svg">
<path d="M23.9886 47.9773C27.2901 47.9773 30.3871 47.3488 33.2797 46.0918C36.1723 44.85 38.7165 43.1235 40.9124 40.9124C43.1235 38.7165 44.8575 36.1723 46.1145 33.2797C47.3715 30.3871 48 27.2901 48 23.9886C48 20.7023 47.3715 17.6129 46.1145 14.7203C44.8575 11.8277 43.1235 9.27591 40.9124 7.06484C38.7165 4.85376 36.1647 3.12731 33.257 1.88547C30.3644 0.62849 27.275 0 23.9886 0C20.7023 0 17.6053 0.62849 14.6976 1.88547C11.805 3.12731 9.25319 4.85376 7.04212 7.06484C4.84619 9.27591 3.11973 11.8277 1.86275 14.7203C0.620918 17.6129 0 20.7023 0 23.9886C0 27.2901 0.620918 30.3871 1.86275 33.2797C3.11973 36.1723 4.85376 38.7165 7.06484 40.9124C9.27591 43.1235 11.8277 44.85 14.7203 46.0918C17.6129 47.3488 20.7023 47.9773 23.9886 47.9773ZM9.24562 21.8306C9.24562 19.8164 9.91197 18.2035 11.2447 16.992C12.5925 15.7653 14.3796 15.1519 16.6058 15.1519H25.0336V12.6531C25.0336 12.1836 25.1699 11.8126 25.4425 11.54C25.7151 11.2522 26.0861 11.1084 26.5556 11.1084C26.9645 11.1084 27.3355 11.2522 27.6687 11.54L32.8481 15.8788C33.2267 16.1969 33.416 16.5831 33.416 17.0374C33.4311 17.4766 33.2418 17.8628 32.8481 18.1959L27.6687 22.5121C27.3658 22.7695 26.9948 22.8982 26.5556 22.8982C26.0861 22.8982 25.7151 22.7619 25.4425 22.4894C25.1699 22.2168 25.0336 21.8381 25.0336 21.3535V18.8093H16.3332C15.3034 18.8093 14.478 19.1046 13.8571 19.6952C13.2513 20.2707 12.9484 21.0431 12.9484 22.0123V23.2844C12.9484 23.7842 12.7667 24.2158 12.4032 24.5793C12.0549 24.9276 11.6157 25.1018 11.0857 25.1018C10.5859 25.1018 10.1543 24.9276 9.79082 24.5793C9.42735 24.2158 9.24562 23.7842 9.24562 23.2844V21.8306ZM38.5499 26.1921C38.5499 28.2063 37.876 29.8268 36.5282 31.0535C35.1803 32.265 33.4009 32.8708 31.1898 32.8708H22.7619V35.3923C22.7619 35.8618 22.6257 36.2404 22.3531 36.5282C22.0805 36.8008 21.7094 36.9371 21.2399 36.9371C20.831 36.9371 20.4676 36.7932 20.1496 36.5054L14.9475 32.1666C14.5537 31.8486 14.3568 31.4699 14.3568 31.0308C14.3568 30.5764 14.5537 30.1827 14.9475 29.8495L20.1496 25.5334C20.4524 25.2759 20.8159 25.1472 21.2399 25.1472C21.7094 25.1472 22.0805 25.2835 22.3531 25.5561C22.6257 25.8287 22.7619 26.1997 22.7619 26.6692V29.2134H31.4624C32.477 29.2134 33.2948 28.9257 33.9158 28.3502C34.5367 27.7596 34.8471 26.9796 34.8471 26.0104V24.7383C34.8471 24.2234 35.0213 23.7918 35.3696 23.4434C35.7331 23.0951 36.1723 22.921 36.6872 22.921C37.2021 22.921 37.6413 23.0951 38.0047 23.4434C38.3682 23.7918 38.5499 24.2234 38.5499 24.7383V26.1921Z" fill="#1C8DF5"/>
</svg>
