<svg width="48" height="48" viewBox="0 0 48 48" fill="none" xmlns="http://www.w3.org/2000/svg">
<path fill-rule="evenodd" clip-rule="evenodd" d="M24 48C37.2539 48 48 37.2539 48 24C48 10.7461 37.2539 0 24 0C10.7461 0 0 10.7461 0 24C0 37.2539 10.7461 48 24 48ZM29.0273 36.9727C27.459 37.6582 25.7812 38 23.9941 38C22.2129 38 20.541 37.6582 18.9727 36.9727C17.4062 36.2949 16.0254 35.3535 14.8262 34.1465C13.9492 33.2695 13.209 32.2891 12.6094 31.207C12.3906 30.8125 12.1914 30.4062 12.0098 29.9844C11.6152 29.0605 11.3359 28.0977 11.1719 27.0957C11.0566 26.3887 11 25.6621 11 24.918C11 23.5234 11.2031 22.1934 11.6113 20.9277C11.7285 20.5684 11.8613 20.2129 12.0098 19.8633C12.6895 18.2871 13.625 16.8945 14.8145 15.6895C15.3672 15.1328 15.959 14.6328 16.5918 14.1895C17.3281 13.6719 18.1172 13.2305 18.9609 12.8652C19.1777 12.7715 19.3965 12.6836 19.6172 12.6016C20.5117 12.2715 21.4375 12.0488 22.3945 11.9316V10.6113C22.3945 10.1562 22.5547 9.77539 22.875 9.4707C23.1934 9.15625 23.5664 9 23.9941 9C24.4375 9 24.8145 9.15625 25.125 9.4707C25.4375 9.77539 25.5938 10.1562 25.5938 10.6113V11.9316C26.0547 11.9883 26.5078 12.0684 26.9531 12.1738C27.6602 12.3418 28.3457 12.5723 29.0137 12.8652C30.3242 13.4277 31.498 14.1738 32.541 15.1016L33.457 14.2148C33.8008 13.8848 34.2109 13.7207 34.6875 13.7207C35.1211 13.7207 35.4824 13.8691 35.7695 14.166C36.0645 14.4629 36.2129 14.8262 36.2129 15.2559C36.2129 15.6934 36.0312 16.0938 35.6719 16.457L34.6523 17.4746C35.1699 18.2168 35.6113 19.0137 35.9785 19.8633C36.6602 21.4414 37 23.127 37 24.918C37 26.7188 36.6602 28.4082 35.9785 29.9844C35.2969 31.5625 34.3594 32.9492 33.1602 34.1465C31.9707 35.3535 30.5938 36.2949 29.0273 36.9727ZM22.332 26.6035C22.793 27.0664 23.3457 27.2969 23.9941 27.2969C24.6504 27.2969 25.2031 27.0703 25.6543 26.6152C25.8848 26.3828 26.0586 26.127 26.1738 25.8457C26.2871 25.5664 26.3438 25.2617 26.3438 24.9316C26.3438 24.502 26.2383 24.1172 26.0234 23.7793C25.8184 23.4395 25.5273 23.1602 25.1504 22.9355V17.2637C25.1504 16.9414 25.0391 16.668 24.8184 16.4453C24.5977 16.2227 24.3223 16.1113 23.9941 16.1113C23.666 16.1113 23.3906 16.2227 23.1699 16.4453C22.9473 16.668 22.8379 16.9414 22.8379 17.2637V22.9238C22.6172 23.0645 22.4258 23.2227 22.2637 23.3984C22.1484 23.5234 22.0488 23.6582 21.9629 23.8027C21.7578 24.1426 21.6562 24.5176 21.6562 24.9316C21.6562 25.2793 21.7207 25.6016 21.8496 25.8965C21.9609 26.1523 22.1211 26.3887 22.332 26.6035Z" fill="#FF8514"/>
</svg>
