<?xml version="1.0" encoding="UTF-8" standalone="no"?>
<svg width="604px" height="254px" viewBox="0 0 604 254" version="1.1" xmlns="http://www.w3.org/2000/svg" xmlns:xlink="http://www.w3.org/1999/xlink" xmlns:sketch="http://www.bohemiancoding.com/sketch/ns">
    <!-- Generator: Sketch 3.4 (15575) - http://www.bohemiancoding.com/sketch -->
    <title>logo</title>
    <desc>Created with Sketch.</desc>
    <defs></defs>
    <g id="Logo" stroke="none" stroke-width="1" fill="none" fill-rule="evenodd" sketch:type="MSPage">
        <g id="Artboard-1" sketch:type="MSArtboardGroup" transform="translate(-190.000000, -123.000000)" fill="#444444">
            <g id="logo" sketch:type="MSLayerGroup" transform="translate(190.000000, 123.000000)">
                <path d="M77.6360172,32.7089686 L146.445927,32.7089686 L146.445927,165.065471 C146.445927,197.186996 120.44545,223.319283 88.4859457,223.319283 C56.5545498,223.319283 30.5540734,197.186996 30.5540734,165.065471 L30.5540734,162.240359 L0,162.240359 L0,165.065471 C0,214.109417 39.6893759,254 88.4859457,254 C137.310624,254 177,214.109417 177,165.065471 L177,2 L77.6360172,2 L77.6360172,32.7089686 Z" id="Fill-1" sketch:type="MSShapeGroup"></path>
                <path d="M372.341467,165.087318 C372.341467,197.242428 346.167485,223.366693 314.014102,223.366693 C281.832515,223.366693 255.658533,197.242428 255.658533,165.087318 L255.658533,88.9126817 C255.658533,56.7857539 281.832515,30.6333074 314.014102,30.6333074 C346.167485,30.6333074 372.341467,56.7857539 372.341467,88.9126817 L372.341467,165.087318 Z M314.014102,0 C264.937886,0 225,39.8768446 225,88.9126817 L225,165.087318 C225,214.123155 264.937886,254 314.014102,254 C363.062114,254 403,214.123155 403,165.087318 L403,88.9126817 C403,39.8768446 363.062114,0 314.014102,0 L314.014102,0 Z" id="Fill-3" sketch:type="MSShapeGroup"></path>
                <path d="M435,2 L435,32.6819758 L504.17602,32.6819758 L504.17602,254 L534.795837,254 L534.795837,32.6819758 L604,32.6819758 L604,2 L435,2 Z" id="Fill-5" sketch:type="MSShapeGroup"></path>
            </g>
        </g>
    </g>
</svg>