<svg width="64" height="32" viewBox="0 0 64 32" fill="none" xmlns="http://www.w3.org/2000/svg">
<path fill-rule="evenodd" clip-rule="evenodd" d="M13.2597 15.3333V2H6.18785V15.3333C6.18785 18.7698 3.41745 21.5556 0 21.5556V28.6667C7.32311 28.6667 13.2597 22.6971 13.2597 15.3333ZM23.9145 15.3333C23.9145 11.8969 26.7034 9.11111 30.1436 9.11111C33.5839 9.11111 36.3727 11.8969 36.3727 15.3333C36.3727 18.7698 33.5839 21.5556 30.1436 21.5556C26.7034 21.5556 23.9145 18.7698 23.9145 15.3333ZM30.1436 2C22.7717 2 16.7956 7.96954 16.7956 15.3333C16.7956 22.6971 22.7717 28.6667 30.1436 28.6667C37.5156 28.6667 43.4917 22.6971 43.4917 15.3333C43.4917 7.96954 37.5156 2 30.1436 2ZM51.6244 28.6667H58.6962V9.06402H63.9999V2H58.6962H51.6244H46.3203V9.06402H51.6244V28.6667Z" fill="black"/>
</svg>
